<?xml version="1.0" standalone="no"?>
<!DOCTYPE svg PUBLIC "-//W3C//DTD SVG 1.1//EN" "http://www.w3.org/Graphics/SVG/1.1/DTD/svg11.dtd" >
<svg xmlns="http://www.w3.org/2000/svg" xmlns:xlink="http://www.w3.org/1999/xlink" version="1.1">
<metadata>
Created by FontForge 20161116 at Thu Apr  7 23:22:14 2016
 By Jimmy Warting
Copyright (c) 2016 by Aigul Gilmutdinovaa@mail.ru &#38; Jovanny Lemonad. All rights reserved.
</metadata>
<defs>
<font id="Bully" horiz-adv-x="280" >
  <font-face 
    font-family="Bully"
    font-weight="400"
    font-stretch="normal"
    units-per-em="1000"
    panose-1="2 0 5 8 2 0 0 2 0 3"
    ascent="800"
    descent="-200"
    x-height="450"
    cap-height="700"
    bbox="-100 -250 1130 920"
    underline-thickness="50"
    underline-position="-100"
    stemh="100"
    stemv="90"
    unicode-range="U+000D-F6D4"
  />
<missing-glyph horiz-adv-x="7633" 
 />
    <glyph glyph-name=".notdef" horiz-adv-x="7633" 
 />
    <glyph glyph-name="B" unicode="B" horiz-adv-x="340" 
d="M300 320v-270c0 -30 -20 -50 -50 -50h-200c-5 0 -10 5 -10 10v680c0 5 5 10 10 10h200c30 0 50 -20 50 -50v-225c0 -30 -20 -50 -50 -50v-5c30 0 50 -20 50 -50zM150 320v-220h30c5 0 10 5 10 9v201c0 5 -5 10 -10 10h-30zM190 430v160c0 5 -5 10 -10 10h-30v-180h30
c5 0 10 5 10 10z" />
    <glyph glyph-name="C" unicode="C" horiz-adv-x="330" 
d="M200 450c-5 0 -10 5 -10 10v130c0 5 -5 10 -10 10h-20c-5 0 -10 -5 -10 -10v-480c0 -5 5 -10 10 -10h20c5 0 10 5 10 10v130c0 5 5 10 10 10h90c5 0 10 -5 10 -10v-190c0 -30 -20 -50 -50 -50h-160c-30 0 -50 20 -50 50v600c0 30 20 50 50 50h160c30 0 50 -20 50 -50
v-190c0 -5 -5 -10 -10 -10h-90z" />
    <glyph glyph-name="D" unicode="D" horiz-adv-x="340" 
d="M250 0h-200c-5 0 -10 5 -10 10v680c0 5 5 10 10 10h200c30 0 50 -20 50 -50v-600c0 -30 -20 -50 -50 -50zM190 110v480c0 5 -5 10 -10 10h-30v-500h30c5 0 10 5 10 10z" />
    <glyph glyph-name="E" unicode="E" horiz-adv-x="300" 
d="M270 410v-80c0 -5 -5 -10 -10 -10h-110v-220h130c5 0 10 -5 10 -10v-80c0 -5 -5 -10 -10 -10h-230c-5 0 -10 5 -10 10v680c0 5 5 10 10 10h230c5 0 10 -5 10 -10v-80c0 -5 -5 -10 -10 -10h-130v-180h110c5 0 10 -5 10 -10z" />
    <glyph glyph-name="F" unicode="F" horiz-adv-x="290" 
d="M260 410v-80c0 -5 -5 -10 -10 -10h-100v-310c0 -5 -5 -10 -10 -10h-90c-5 0 -10 5 -10 10v680c0 5 5 10 10 10h230c5 0 10 -5 10 -10v-80c0 -5 -5 -10 -10 -10h-130v-180h100c5 0 10 -5 10 -10z" />
    <glyph glyph-name="G" unicode="G" horiz-adv-x="340" 
d="M200 450c-5 0 -10 5 -10 10v130c0 5 -5 10 -10 10h-20c-5 0 -10 -5 -10 -10v-480c0 -5 5 -10 10 -10h20c5 0 10 5 10 10v170h-10c-5 0 -10 5 -10 10v80c0 5 5 10 10 10h110c5 0 10 -5 10 -10v-320c0 -30 -20 -50 -50 -50h-160c-30 0 -50 20 -50 50v600c0 30 20 50 50 50
h160c30 0 50 -20 50 -50v-190c0 -5 -5 -10 -10 -10h-90z" />
    <glyph glyph-name="H" unicode="H" horiz-adv-x="340" 
d="M190 10v310h-40v-310c0 -5 -5 -10 -10 -10h-90c-5 0 -10 5 -10 10v680c0 5 5 10 10 10h90c5 0 10 -5 10 -10v-270h40v270c0 5 5 10 10 10h90c5 0 10 -5 10 -10v-680c0 -5 -5 -10 -10 -10h-90c-5 0 -10 5 -10 10z" />
    <glyph glyph-name="I" unicode="I" horiz-adv-x="190" 
d="M150 690v-680c0 -5 -5 -10 -10 -10h-90c-5 0 -10 5 -10 10v680c0 5 5 10 10 10h90c5 0 10 -5 10 -10z" />
    <glyph glyph-name="J" unicode="J" horiz-adv-x="330" 
d="M290 690v-640c0 -30 -20 -50 -50 -50h-160c-30 0 -50 20 -50 50v190c0 5 5 10 10 10h90c5 0 10 -5 10 -10v-130c0 -5 5 -10 10 -10h20c5 0 10 5 10 10v580c0 5 5 10 10 10h90c5 0 10 -5 10 -10z" />
    <glyph glyph-name="L" unicode="L" horiz-adv-x="290" 
d="M150 690v-590h130c5 0 10 -5 10 -10v-80c0 -5 -5 -10 -10 -10h-230c-5 0 -10 5 -10 10v680c0 5 5 10 10 10h90c5 0 10 -5 10 -10z" />
    <glyph glyph-name="M" unicode="M" horiz-adv-x="450" 
d="M245 230h-40c-10 0 -14 5 -15 10l-40 140v-370c0 -5 -5 -10 -10 -10h-90c-5 0 -10 5 -10 10v680c0 5 5 9 10 10h85c10 0 14 -5 15 -10l75 -265l75 265c1 5 5 10 15 10h85c5 0 10 -5 10 -10v-680c0 -5 -5 -10 -10 -10h-90c-5 0 -10 5 -10 10v370l-40 -140
c-1 -5 -5 -10 -15 -10z" />
    <glyph glyph-name="N" unicode="N" horiz-adv-x="340" 
d="M190 10v210l-40 100v-310c0 -5 -5 -10 -10 -10h-90c-5 0 -10 5 -10 10v680c0 5 5 10 10 10h90c5 0 10 -5 10 -10v-170l40 -100v270c0 5 5 10 10 10h90c5 0 10 -5 10 -10v-680c0 -5 -5 -10 -10 -10h-90c-5 0 -10 5 -10 10z" />
    <glyph glyph-name="O" unicode="O" horiz-adv-x="340" 
d="M90 700h160c30 0 50 -20 50 -50v-600c0 -30 -20 -50 -50 -50h-160c-30 0 -50 20 -50 50v600c0 30 20 50 50 50zM190 110v480c0 5 -5 10 -10 10h-20c-5 0 -10 -5 -10 -10v-480c0 -5 5 -10 10 -10h20c5 0 10 5 10 10z" />
    <glyph glyph-name="P" unicode="P" horiz-adv-x="330" 
d="M250 310h-100v-300c0 -5 -5 -10 -10 -10h-90c-5 0 -10 5 -10 10v680c0 5 5 10 10 10h200c30 0 50 -20 50 -50v-290c0 -30 -20 -50 -50 -50zM190 420v170c0 5 -5 10 -10 10h-30v-190h30c5 0 10 5 10 10z" />
    <glyph glyph-name="Q" unicode="Q" horiz-adv-x="339" 
d="M90 700h160c30 0 50 -20 50 -50v-625l25 -30c5 -6 5 -11 0 -15l-70 -55c-6 -5 -11 -5 -15 0l-60 75h-90c-30 0 -50 20 -50 50v600c0 30 20 50 50 50zM190 110v480c0 5 -5 10 -10 10h-20c-5 0 -10 -5 -10 -10v-480c0 -5 5 -10 10 -10h20c5 0 10 5 10 10z" />
    <glyph glyph-name="R" unicode="R" horiz-adv-x="340" 
d="M190 420v170c0 5 -5 10 -10 10h-30v-190h30c5 0 10 5 10 10zM300 310v-300c0 -5 -5 -10 -10 -10h-90c-5 0 -10 5 -10 10v290c0 5 -5 10 -10 10h-30v-300c0 -5 -5 -10 -10 -10h-90c-5 0 -10 5 -10 10v680c0 5 5 10 10 10h200c30 0 50 -20 50 -50v-235
c0 -30 -20 -50 -50 -50v-5c30 0 50 -20 50 -50z" />
    <glyph glyph-name="S" unicode="S" horiz-adv-x="320" 
d="M30 460v190c0 30 20 50 50 50h160c30 0 50 -20 50 -50v-190c0 -5 -5 -10 -10 -10h-90c-5 0 -10 5 -10 10v130c0 5 -5 10 -10 10h-20c-5 0 -10 -5 -10 -10v-115l135 -175c7 -10 15 -20 15 -40v-210c0 -30 -20 -50 -50 -50h-160c-30 0 -50 20 -50 50v190c0 5 5 10 10 10h90
c5 0 10 -5 10 -10v-130c0 -5 5 -10 10 -10h20c5 0 10 5 10 10v135l-135 175c-7 10 -15 20 -15 40z" />
    <glyph glyph-name="T" unicode="T" horiz-adv-x="270" 
d="M260 690v-80c0 -5 -5 -10 -10 -10h-60v-590c0 -5 -5 -10 -10 -10h-90c-5 0 -10 5 -10 10v590h-60c-5 0 -10 5 -10 10v80c0 5 5 10 10 10h230c5 0 10 -5 10 -10z" />
    <glyph glyph-name="U" unicode="U" horiz-adv-x="340" 
d="M150 690v-580c0 -5 5 -10 10 -10h20c5 0 10 5 10 10v580c0 5 5 10 10 10h90c5 0 10 -5 10 -10v-640c0 -30 -20 -50 -50 -50h-160c-30 0 -50 20 -50 50v640c0 5 5 10 10 10h90c5 0 10 -5 10 -10z" />
    <glyph glyph-name="V" unicode="V" horiz-adv-x="310" 
d="M205 700h85c5 0 10 -5 10 -10l-65 -680c0 -5 -5 -10 -10 -10h-140c-5 0 -10 5 -10 10l-65 680c0 5 5 10 10 10h85c5 0 10 -5 10 -10l40 -490l40 490c0 5 5 10 10 10z" />
    <glyph glyph-name="W" unicode="W" horiz-adv-x="470" 
d="M190 440h90c5 0 9 -5 10 -10l20 -190l45 450c0 5 5 10 10 10h85c5 0 10 -5 10 -10l-75 -680c-1 -5 -5 -10 -10 -10h-100c-5 0 -9 5 -10 10l-30 270l-30 -270c-1 -5 -5 -10 -10 -10h-100c-5 0 -9 5 -10 10l-75 680c0 5 5 10 10 10h85c5 0 10 -5 10 -10l45 -450l20 190
c0 5 5 10 10 10z" />
    <glyph glyph-name="X" unicode="X" horiz-adv-x="310" 
d="M0 10l105 340l-105 340c0 5 5 10 10 10h85c5 0 8 -5 10 -10l50 -170l50 170c2 5 5 10 10 10h85c5 0 10 -5 10 -10l-105 -340l105 -340c0 -5 -5 -10 -10 -10h-85c-5 0 -8 5 -10 10l-50 170l-50 -170c-2 -5 -5 -10 -10 -10h-85c-5 0 -10 5 -10 10z" />
    <glyph glyph-name="Y" unicode="Y" horiz-adv-x="320" 
d="M160 470l55 220c2 5 5 10 10 10h85c5 0 10 -5 10 -10l-105 -390v-290c0 -5 -5 -10 -10 -10h-90c-5 0 -10 5 -10 10v290l-105 390c0 5 5 10 10 10h85c5 0 8 -5 10 -10z" />
    <glyph glyph-name="Z" unicode="Z" horiz-adv-x="270" 
d="M20 700h240c5 0 10 -5 10 -10l-145 -590h125c5 0 10 -5 10 -10v-80c0 -5 -5 -10 -10 -10h-240c-5 0 -10 5 -10 10l145 590h-125c-5 0 -10 5 -10 10v80c0 5 5 10 10 10z" />
    <glyph glyph-name="afii10018" unicode="&#x411;" horiz-adv-x="330" 
d="M150 430h100c30 0 50 -20 50 -50v-330c0 -30 -20 -50 -50 -50h-200c-5 0 -10 5 -10 10v680c0 5 5 10 10 10h230c5 0 10 -5 10 -10v-80c0 -5 -5 -10 -10 -10h-130v-170zM190 110v210c0 5 -5 10 -10 10h-30v-230h30c5 0 10 5 10 10z" />
    <glyph glyph-name="afii10020" unicode="&#x413;" 
d="M150 600v-590c0 -5 -5 -10 -10 -10h-90c-5 0 -10 5 -10 10v680c0 5 5 10 10 10h220c5 0 10 -5 10 -10v-80c0 -5 -5 -10 -10 -10h-120z" />
    <glyph glyph-name="afii10021" unicode="&#x414;" horiz-adv-x="365" 
d="M245 -50v50h-135v-50c0 -5 -5 -10 -10 -10h-90c-5 0 -10 5 -10 10v140c0 5 5 10 10 10h30l45 590c0 5 5 10 10 10h210c5 0 10 -5 10 -10v-590h30c5 0 10 -5 10 -10v-140c0 -5 -5 -10 -10 -10h-90c-5 0 -10 5 -10 10zM185 600l-37 -500h57v500h-20z" />
    <glyph glyph-name="afii10023" unicode="&#x401;" horiz-adv-x="300" 
d="M270 410v-80c0 -5 -5 -10 -10 -10h-110v-220h130c5 0 10 -5 10 -10v-80c0 -5 -5 -10 -10 -10h-230c-5 0 -10 5 -10 10v680c0 5 5 10 10 10h230c5 0 10 -5 10 -10v-80c0 -5 -5 -10 -10 -10h-130v-180h110c5 0 10 -5 10 -10zM70 860h70c5 0 10 -5 10 -10v-70
c0 -5 -5 -10 -10 -10h-70c-5 0 -10 5 -10 10v70c0 5 5 10 10 10zM200 860h70c5 0 10 -5 10 -10v-70c0 -5 -5 -10 -10 -10h-70c-5 0 -10 5 -10 10v70c0 5 5 10 10 10z" />
    <glyph glyph-name="afii10025" unicode="&#x417;" horiz-adv-x="330" 
d="M290 650v-235c0 -30 -20 -50 -50 -50v-5c30 0 50 -20 50 -50v-260c0 -30 -20 -50 -50 -50h-160c-30 0 -50 20 -50 50v150c0 5 5 10 10 10h90c5 0 10 -5 10 -10v-90c0 -5 5 -10 10 -10h20c5 0 10 5 10 10v200h-80c-5 0 -10 5 -10 10v80c0 5 5 10 10 10h80v180
c0 5 -5 10 -10 10h-20c-5 0 -10 -5 -10 -10v-90c0 -5 -5 -10 -10 -10h-90c-5 0 -10 5 -10 10v150c0 30 20 50 50 50h160c30 0 50 -20 50 -50z" />
    <glyph glyph-name="afii10026" unicode="&#x418;" horiz-adv-x="340" 
d="M150 220v-210c0 -5 -5 -10 -10 -10h-90c-5 0 -10 5 -10 10v680c0 5 5 10 10 10h90c5 0 10 -5 10 -10v-270l40 100v170c0 5 5 10 10 10h90c5 0 10 -5 10 -10v-680c0 -5 -5 -10 -10 -10h-90c-5 0 -10 5 -10 10v310z" />
    <glyph glyph-name="afii10027" unicode="&#x419;" horiz-adv-x="340" 
d="M150 220v-210c0 -5 -5 -10 -10 -10h-90c-5 0 -10 5 -10 10v680c0 5 5 10 10 10h90c5 0 10 -5 10 -10v-270l40 100v170c0 5 5 10 10 10h90c5 0 10 -5 10 -10v-680c0 -5 -5 -10 -10 -10h-90c-5 0 -10 5 -10 10v310zM195 815v25c0 5 5 10 10 10h55c5 0 10 -5 10 -10v-50
c0 -25 -15 -40 -40 -40h-120c-25 0 -40 15 -40 40v50c0 5 5 10 10 10h55c5 0 10 -5 10 -10v-25h50z" />
    <glyph glyph-name="afii10029" unicode="&#x41b;" horiz-adv-x="355" 
d="M40 110l45 580c0 5 5 10 10 10h210c5 0 10 -5 10 -10v-680c0 -5 -5 -10 -10 -10h-90c-5 0 -10 5 -10 10v590h-20l-40 -550c-2 -30 -20 -50 -50 -50h-85c-5 0 -10 5 -10 10v80c0 5 5 10 10 10h20c5 0 10 5 10 10z" />
    <glyph glyph-name="space" unicode=" " horiz-adv-x="150" 
 />
    <glyph glyph-name="afii10033" unicode="&#x41f;" horiz-adv-x="340" 
d="M190 10v590h-40v-590c0 -5 -5 -10 -10 -10h-90c-5 0 -10 5 -10 10v680c0 5 5 10 10 10h240c5 0 10 -5 10 -10v-680c0 -5 -5 -10 -10 -10h-90c-5 0 -10 5 -10 10z" />
    <glyph glyph-name="afii10038" unicode="&#x424;" horiz-adv-x="470" 
d="M80 550h100v140c0 5 5 10 10 10h90c5 0 10 -5 10 -10v-140h100c30 0 50 -20 50 -50v-290c0 -30 -20 -50 -50 -50h-100v-150c0 -5 -5 -10 -10 -10h-90c-5 0 -10 5 -10 10v150h-100c-30 0 -50 20 -50 50v290c0 30 20 50 50 50zM330 270v170c0 5 -5 10 -10 10h-30v-190h30
c5 0 10 5 10 10zM140 440v-170c0 -5 5 -10 10 -10h30v190h-30c-5 0 -10 -5 -10 -10z" />
    <glyph glyph-name="afii10040" unicode="&#x426;" horiz-adv-x="350" 
d="M230 -50v50h-180c-5 0 -10 5 -10 10v680c0 5 5 10 10 10h90c5 0 10 -5 10 -10v-590h40v590c0 5 5 10 10 10h90c5 0 10 -5 10 -10v-590h30c5 0 10 -5 10 -10v-140c0 -5 -5 -10 -10 -10h-90c-5 0 -10 5 -10 10z" />
    <glyph glyph-name="afii10041" unicode="&#x427;" horiz-adv-x="330" 
d="M290 690v-680c0 -5 -5 -10 -10 -10h-90c-5 0 -10 5 -10 10v280h-100c-30 0 -50 20 -50 50v350c0 5 5 10 10 10h90c5 0 10 -5 10 -10v-290c0 -5 5 -10 10 -10h30v300c0 5 5 10 10 10h90c5 0 10 -5 10 -10z" />
    <glyph glyph-name="afii10042" unicode="&#x428;" horiz-adv-x="490" 
d="M340 100v590c0 5 5 10 10 10h90c5 0 10 -5 10 -10v-680c0 -5 -5 -10 -10 -10h-390c-5 0 -10 5 -10 10v680c0 5 5 10 10 10h90c5 0 10 -5 10 -10v-590h40v590c0 5 5 10 10 10h90c5 0 10 -5 10 -10v-590h40z" />
    <glyph glyph-name="afii10043" unicode="&#x429;" horiz-adv-x="500" 
d="M380 -50v50h-330c-5 0 -10 5 -10 10v680c0 5 5 10 10 10h90c5 0 10 -5 10 -10v-590h40v590c0 5 5 10 10 10h90c5 0 10 -5 10 -10v-590h40v590c0 5 5 10 10 10h90c5 0 10 -5 10 -10v-590h30c5 0 10 -5 10 -10v-140c0 -5 -5 -10 -10 -10h-90c-5 0 -10 5 -10 10z" />
    <glyph glyph-name="afii10044" unicode="&#x42a;" horiz-adv-x="370" 
d="M190 430h100c30 0 50 -20 50 -50v-330c0 -30 -20 -50 -50 -50h-200c-5 0 -10 5 -10 10v590h-70c-5 0 -10 5 -10 10v80c0 5 5 10 10 10h170c5 0 10 -5 10 -10v-260zM230 110v210c0 5 -5 10 -10 10h-30v-230h30c5 0 10 5 10 10z" />
    <glyph glyph-name="afii10045" unicode="&#x42b;" horiz-adv-x="490" 
d="M150 430h100c30 0 50 -20 50 -50v-330c0 -30 -20 -50 -50 -50h-200c-5 0 -10 5 -10 10v680c0 5 5 10 10 10h90c5 0 10 -5 10 -10v-260zM190 110v210c0 5 -5 10 -10 10h-30v-230h30c5 0 10 5 10 10zM450 690v-680c0 -5 -5 -10 -10 -10h-90c-5 0 -10 5 -10 10v680
c0 5 5 10 10 10h90c5 0 10 -5 10 -10z" />
    <glyph glyph-name="afii10046" unicode="&#x42c;" horiz-adv-x="330" 
d="M150 430h100c30 0 50 -20 50 -50v-330c0 -30 -20 -50 -50 -50h-200c-5 0 -10 5 -10 10v680c0 5 5 10 10 10h90c5 0 10 -5 10 -10v-260zM190 110v210c0 5 -5 10 -10 10h-30v-230h30c5 0 10 5 10 10z" />
    <glyph glyph-name="afii10047" unicode="&#x42d;" horiz-adv-x="330" 
d="M130 490h-90c-5 0 -10 5 -10 10v150c0 30 20 50 50 50h160c30 0 50 -20 50 -50v-600c0 -30 -20 -50 -50 -50h-160c-30 0 -50 20 -50 50v150c0 5 5 10 10 10h90c5 0 10 -5 10 -10v-90c0 -5 5 -10 10 -10h20c5 0 10 5 10 10v200h-80c-5 0 -10 5 -10 10v80c0 5 5 10 10 10
h80v180c0 5 -5 10 -10 10h-20c-5 0 -10 -5 -10 -10v-90c0 -5 -5 -10 -10 -10z" />
    <glyph glyph-name="zero" unicode="0" horiz-adv-x="320" 
d="M90 700h140c30 0 50 -20 50 -50v-600c0 -30 -20 -50 -50 -50h-140c-30 0 -50 20 -50 50v600c0 30 20 50 50 50zM170 110v480c0 5 -5 10 -10 10v0c-5 0 -10 -5 -10 -10v-480c0 -5 5 -10 10 -10v0c5 0 10 5 10 10z" />
    <glyph glyph-name="one" unicode="1" horiz-adv-x="220" 
d="M70 10v590h-60c-5 0 -10 5 -10 10v80c0 5 5 10 10 10h160c5 0 10 -5 10 -10v-680c0 -5 -5 -10 -10 -10h-90c-5 0 -10 5 -10 10z" />
    <glyph glyph-name="two" unicode="2" horiz-adv-x="300" 
d="M30 10v100c0 30 15 70 15 70l115 310v100c0 5 -5 10 -10 10v0c-5 0 -10 -5 -10 -10v-70c0 -5 -5 -10 -10 -10h-90c-5 0 -10 5 -10 10v130c0 30 20 50 50 50h140c30 0 50 -20 50 -50v-130c0 -30 -15 -70 -15 -70l-115 -310v-40h120c5 0 10 -5 10 -10v-80
c0 -5 -5 -10 -10 -10h-220c-5 0 -10 5 -10 10z" />
    <glyph glyph-name="three" unicode="3" horiz-adv-x="290" 
d="M150 420h60c30 0 50 -20 50 -50v-320c0 -30 -20 -50 -50 -50h-140c-30 0 -50 20 -50 50v140c0 5 5 10 10 10h90c5 0 10 -5 10 -10v-80c0 -5 5 -10 10 -10s10 5 10 10v200c0 5 -5 10 -10 10h-90c-5 0 -10 5 -10 10v50c0 25 20 55 20 55l90 165h-120c-5 0 -10 5 -10 10v80
c0 5 5 10 10 10h220c5 0 10 -5 10 -10v-50c0 -25 -20 -55 -20 -55z" />
    <glyph glyph-name="four" unicode="4" horiz-adv-x="315" 
d="M110 320h45v205zM30 360l85 330c1 5 5 10 10 10h130c5 0 10 -5 10 -10v-370h30c5 0 10 -5 10 -10v-80c0 -5 -5 -10 -10 -10h-30v-210c0 -5 -5 -10 -10 -10h-90c-5 0 -10 5 -10 10v210h-125c-5 0 -10 5 -10 10v70c0 30 10 60 10 60z" />
    <glyph glyph-name="five" unicode="5" horiz-adv-x="300" 
d="M150 600v-180h70c30 0 50 -20 50 -50v-320c0 -30 -20 -50 -50 -50h-140c-30 0 -50 20 -50 50v140c0 5 5 10 10 10h90c5 0 10 -5 10 -10v-80c0 -5 5 -10 10 -10s10 5 10 10v200c0 5 -5 10 -10 10h-100c-5 0 -10 5 -10 10v360c0 5 5 10 10 10h210c5 0 10 -5 10 -10v-80
c0 -5 -5 -10 -10 -10h-110z" />
    <glyph glyph-name="six" unicode="6" horiz-adv-x="310" 
d="M180 510c-5 0 -10 5 -10 10v70c0 5 -5 10 -10 10s-10 -5 -10 -10v-170h80c30 0 50 -20 50 -50v-320c0 -30 -20 -50 -50 -50h-140c-30 0 -50 20 -50 50v600c0 30 20 50 50 50h140c30 0 50 -20 50 -50v-130c0 -5 -5 -10 -10 -10h-90zM170 110v200c0 5 -5 10 -10 10h-10
v-210c0 -5 5 -10 10 -10s10 5 10 10z" />
    <glyph glyph-name="seven" unicode="7" horiz-adv-x="285" 
d="M50 10l105 590h-15c-5 0 -10 -5 -10 -10v-30c0 -5 -5 -10 -10 -10h-90c-5 0 -10 5 -10 10v90c0 30 20 50 50 50h195c5 0 10 -5 10 -10l-120 -680c-1 -5 -5 -10 -10 -10h-85c-5 0 -10 5 -10 10z" />
    <glyph glyph-name="eight" unicode="8" horiz-adv-x="330" 
d="M240 0h-150c-30 0 -50 20 -50 50v270c0 30 20 50 50 50v5c-30 0 -50 20 -50 50v225c0 30 20 50 50 50h150c30 0 50 -20 50 -50v-225c0 -30 -20 -50 -50 -50v-5c30 0 50 -20 50 -50v-270c0 -30 -20 -50 -50 -50zM170 320h-10c-5 0 -10 -5 -10 -10v-200c0 -5 5 -10 10 -10
h10c5 0 10 5 10 10v200c0 5 -5 10 -10 10zM180 430v160c0 5 -5 10 -10 10h-10c-5 0 -10 -5 -10 -10v-160c0 -5 5 -10 10 -10h10c5 0 10 5 10 10z" />
    <glyph glyph-name="nine" unicode="9" horiz-adv-x="310" 
d="M40 190h90c5 0 10 -5 10 -10v-70c0 -5 5 -10 10 -10s10 5 10 10v170h-80c-30 0 -50 20 -50 50v320c0 30 20 50 50 50h140c30 0 50 -20 50 -50v-600c0 -30 -20 -50 -50 -50h-140c-30 0 -50 20 -50 50v130c0 5 5 10 10 10zM140 590v-200c0 -5 5 -10 10 -10h10v210
c0 5 -5 10 -10 10s-10 -5 -10 -10z" />
    <glyph glyph-name="a" unicode="a" 
d="M30 320v90c0 25 15 40 40 40h140c25 0 40 -15 40 -40v-400c0 -5 -5 -10 -10 -10h-70c-5 0 -10 5 -10 10v15h-5s-5 -25 -35 -25h-50c-25 0 -40 15 -40 40v180c0 25 15 40 40 40h50c30 0 35 -25 35 -25h5v115c0 5 -5 10 -10 10h-20c-5 0 -10 -5 -10 -10v-30
c0 -5 -5 -10 -10 -10h-70c-5 0 -10 5 -10 10zM160 90v80h-30c-5 0 -10 -5 -10 -10v-60c0 -5 5 -10 10 -10h30z" />
    <glyph glyph-name="b" unicode="b" 
d="M250 410v-370c0 -25 -15 -40 -40 -40h-170c-5 0 -10 5 -10 10v680c0 5 5 10 10 10h70c5 0 10 -5 10 -10v-240h90c25 0 40 -15 40 -40zM120 360v-270h30c5 0 10 5 10 10v250c0 5 -5 10 -10 10h-30z" />
    <glyph glyph-name="d" unicode="d" 
d="M30 40v370c0 25 15 40 40 40h90v240c0 5 5 10 10 10h70c5 0 10 -5 10 -10v-680c0 -5 -5 -10 -10 -10h-170c-25 0 -40 15 -40 40zM160 90v270h-30c-5 0 -10 -5 -10 -10v-250c0 -5 5 -10 10 -10h30z" />
    <glyph glyph-name="e" unicode="e" horiz-adv-x="270" 
d="M250 80v-70c0 -5 -5 -10 -10 -10h-170c-25 0 -40 15 -40 40v370c0 25 15 40 40 40h140c25 0 40 -15 40 -40v-190c0 -25 -15 -40 -40 -40h-90v-80c0 -5 5 -10 10 -10h110c5 0 10 -5 10 -10zM120 350v-80h30c5 0 10 5 10 10v70c0 5 -5 10 -10 10h-20c-5 0 -10 -5 -10 -10z
" />
    <glyph glyph-name="f" unicode="f" horiz-adv-x="220" 
d="M30 450h30v210c0 25 15 40 40 40h100c5 0 10 -5 10 -10v-70c0 -5 -5 -10 -10 -10h-40c-5 0 -10 -5 -10 -10v-150h50c5 0 10 -5 10 -10v-70c0 -5 -5 -10 -10 -10h-50v-350c0 -5 -5 -10 -10 -10h-70c-5 0 -10 5 -10 10v350h-30c-5 0 -10 5 -10 10v70c0 5 5 10 10 10z" />
    <glyph glyph-name="g" unicode="g" 
d="M30 40v370c0 25 15 40 40 40h50c30 0 35 -25 35 -25h5v15c0 5 5 10 10 10h70c5 0 10 -5 10 -10v-640c0 -25 -15 -40 -40 -40h-140c-25 0 -40 15 -40 40v130c0 5 5 10 10 10h70c5 0 10 -5 10 -10v-70c0 -5 5 -10 10 -10h20c5 0 10 5 10 10v140h-90c-25 0 -40 15 -40 40z
M160 90v270h-30c-5 0 -10 -5 -10 -10v-250c0 -5 5 -10 10 -10h30z" />
    <glyph glyph-name="h" unicode="h" 
d="M250 410v-400c0 -5 -5 -10 -10 -10h-70c-5 0 -10 5 -10 10v340c0 5 -5 10 -10 10h-30v-350c0 -5 -5 -10 -10 -10h-70c-5 0 -10 5 -10 10v680c0 5 5 10 10 10h70c5 0 10 -5 10 -10v-240h90c25 0 40 -15 40 -40z" />
    <glyph glyph-name="i" unicode="i" horiz-adv-x="150" 
d="M40 450h70c5 0 10 -5 10 -10v-430c0 -5 -5 -10 -10 -10h-70c-5 0 -10 5 -10 10v430c0 5 5 10 10 10zM40 610h70c5 0 10 -5 10 -10v-70c0 -5 -5 -10 -10 -10h-70c-5 0 -10 5 -10 10v70c0 5 5 10 10 10z" />
    <glyph glyph-name="j" unicode="j" horiz-adv-x="150" 
d="M40 450h70c5 0 10 -5 10 -10v-640c0 -25 -15 -40 -40 -40h-140c-25 0 -40 15 -40 40v140c0 5 5 10 10 10h70c5 0 10 -5 10 -10v-80c0 -5 5 -10 10 -10h20c5 0 10 5 10 10v580c0 5 5 10 10 10zM40 610h70c5 0 10 -5 10 -10v-70c0 -5 -5 -10 -10 -10h-70c-5 0 -10 5 -10 10
v70c0 5 5 10 10 10z" />
    <glyph glyph-name="k" unicode="k" 
d="M250 250v-240c0 -5 -5 -10 -10 -10h-70c-5 0 -10 5 -10 10v230c0 5 -5 10 -10 10h-30v-240c0 -5 -5 -10 -10 -10h-70c-5 0 -10 5 -10 10v680c0 5 5 10 10 10h70c5 0 10 -5 10 -10v-350h30c5 0 10 5 10 10v90c0 5 5 10 10 10h70c5 0 10 -5 10 -10v-95
c0 -25 -20 -45 -45 -45v-5c25 0 45 -20 45 -45z" />
    <glyph glyph-name="l" unicode="l" horiz-adv-x="180" 
d="M30 40v650c0 5 5 10 10 10h70c5 0 10 -5 10 -10v-590c0 -5 5 -10 10 -10h40c5 0 10 -5 10 -10v-70c0 -5 -5 -10 -10 -10h-100c-25 0 -40 15 -40 40z" />
    <glyph glyph-name="m" unicode="m" horiz-adv-x="410" 
d="M380 410v-400c0 -5 -5 -10 -10 -10h-70c-5 0 -10 5 -10 10v340c0 5 -5 10 -10 10h-30v-350c0 -5 -5 -10 -10 -10h-70c-5 0 -10 5 -10 10v340c0 5 -5 10 -10 10h-30v-350c0 -5 -5 -10 -10 -10h-70c-5 0 -10 5 -10 10v430c0 5 5 10 10 10h70c5 0 10 -5 10 -10v-15h5
s5 25 35 25h55c30 0 35 -25 35 -25h5s5 25 35 25h50c25 0 40 -15 40 -40z" />
    <glyph glyph-name="n" unicode="n" 
d="M250 410v-400c0 -5 -5 -10 -10 -10h-70c-5 0 -10 5 -10 10v340c0 5 -5 10 -10 10h-30v-350c0 -5 -5 -10 -10 -10h-70c-5 0 -10 5 -10 10v430c0 5 5 10 10 10h70c5 0 10 -5 10 -10v-15h5s5 25 35 25h50c25 0 40 -15 40 -40z" />
    <glyph glyph-name="o" unicode="o" 
d="M250 410v-370c0 -25 -15 -40 -40 -40h-140c-25 0 -40 15 -40 40v370c0 25 15 40 40 40h140c25 0 40 -15 40 -40zM150 360h-20c-5 0 -10 -5 -10 -10v-250c0 -5 5 -10 10 -10h20c5 0 10 5 10 10v250c0 5 -5 10 -10 10z" />
    <glyph glyph-name="p" unicode="p" 
d="M250 40c0 -25 -15 -40 -40 -40h-90v-230c0 -5 -5 -10 -10 -10h-70c-5 0 -10 5 -10 10v670c0 5 5 10 10 10h70c5 0 10 -5 10 -10v-15h5s5 25 35 25h50c25 0 40 -15 40 -40v-370zM120 360v-270h30c5 0 10 5 10 10v250c0 5 -5 10 -10 10h-30z" />
    <glyph glyph-name="q" unicode="q" 
d="M30 40v370c0 25 15 40 40 40h50c30 0 35 -25 35 -25h5v15c0 5 5 10 10 10h70c5 0 10 -5 10 -10v-670c0 -5 -5 -10 -10 -10h-70c-5 0 -10 5 -10 10v230h-90c-25 0 -40 15 -40 40zM160 90v270h-30c-5 0 -10 -5 -10 -10v-250c0 -5 5 -10 10 -10h30z" />
    <glyph glyph-name="r" unicode="r" horiz-adv-x="250" 
d="M250 410v-70c0 -5 -5 -10 -10 -10h-70c-5 0 -10 5 -10 10v10c0 5 -5 10 -10 10h-30v-350c0 -5 -5 -10 -10 -10h-70c-5 0 -10 5 -10 10v430c0 5 5 10 10 10h70c5 0 10 -5 10 -10v-15h5s5 25 35 25h50c25 0 40 -15 40 -40z" />
    <glyph glyph-name="s" unicode="s" horiz-adv-x="260" 
d="M240 140v-100c0 -25 -15 -40 -40 -40h-140c-25 0 -40 15 -40 40v110c0 5 5 10 10 10h70c5 0 10 -5 10 -10v-50c0 -5 5 -10 10 -10h20c5 0 10 5 10 10v30l-115 150c-7 10 -15 20 -15 40v90c0 25 15 40 40 40h140c25 0 40 -15 40 -40v-110c0 -5 -5 -10 -10 -10h-70
c-5 0 -10 5 -10 10v50c0 5 -5 10 -10 10h-20c-5 0 -10 -5 -10 -10v-20l115 -150c7 -10 15 -20 15 -40z" />
    <glyph glyph-name="t" unicode="t" horiz-adv-x="250" 
d="M90 700h70c5 0 10 -5 10 -10v-240h60c5 0 10 -5 10 -10v-70c0 -5 -5 -10 -10 -10h-60v-350c0 -5 -5 -10 -10 -10h-70c-5 0 -10 5 -10 10v350h-60c-5 0 -10 5 -10 10v70c0 5 5 10 10 10h60v240c0 5 5 10 10 10z" />
    <glyph glyph-name="u" unicode="u" 
d="M30 40v400c0 5 5 10 10 10h70c5 0 10 -5 10 -10v-340c0 -5 5 -10 10 -10h30v350c0 5 5 10 10 10h70c5 0 10 -5 10 -10v-430c0 -5 -5 -10 -10 -10h-70c-5 0 -10 5 -10 10v15h-5s-5 -25 -35 -25h-50c-25 0 -40 15 -40 40z" />
    <glyph glyph-name="v" unicode="v" horiz-adv-x="250" 
d="M180 0h-110c-5 0 -10 5 -10 10l-50 430c0 5 5 10 10 10h70c5 0 10 -5 10 -10l25 -290l25 290c0 5 5 10 10 10h70c5 0 10 -5 10 -10l-50 -430c0 -5 -5 -10 -10 -10z" />
    <glyph glyph-name="w" unicode="w" horiz-adv-x="392" 
d="M156 310h80c5 0 9 -5 10 -10l20 -170l25 310c0 5 5 10 10 10h70c5 0 11 -5 10 -10l-50 -430c-1 -5 -5 -10 -10 -10h-95c-5 0 -9 5 -10 10l-20 170l-20 -170c-1 -5 -5 -10 -10 -10h-95c-5 0 -9 5 -10 10l-50 430c-1 5 5 10 10 10h70c5 0 10 -5 10 -10l25 -310l20 170
c1 5 5 10 10 10z" />
    <glyph glyph-name="x" unicode="x" horiz-adv-x="250" 
d="M90 440l35 -105l35 105c2 5 5 10 10 10h70c5 0 10 -5 10 -10l-80 -215l80 -215c0 -5 -5 -10 -10 -10h-70c-5 0 -8 5 -10 10l-35 105l-35 -105c-2 -5 -5 -10 -10 -10h-70c-5 0 -10 5 -10 10l80 215l-80 215c0 5 5 10 10 10h70c5 0 8 -5 10 -10z" />
    <glyph glyph-name="z" unicode="z" horiz-adv-x="230" 
d="M20 450h200c5 0 10 -5 10 -10l-115 -350h95c5 0 10 -5 10 -10v-70c0 -5 -5 -10 -10 -10h-200c-5 0 -10 5 -10 10l115 350h-95c-5 0 -10 5 -10 10v70c0 5 5 10 10 10z" />
    <glyph glyph-name="afii10066" unicode="&#x431;" 
d="M160 650v40c0 5 5 10 10 10h70c5 0 10 -5 10 -10v-100c0 -25 -15 -40 -40 -40h-80c-5 0 -10 -5 -10 -10v-115h5s5 25 35 25h50c25 0 40 -15 40 -40v-370c0 -25 -15 -40 -40 -40h-140c-25 0 -40 15 -40 40v560c0 25 15 40 40 40h80c5 0 10 5 10 10zM120 360v-260
c0 -5 5 -10 10 -10h20c5 0 10 5 10 10v250c0 5 -5 10 -10 10h-30z" />
    <glyph glyph-name="afii10067" unicode="&#x432;" 
d="M40 0c-5 0 -10 5 -10 10v430c0 5 5 10 10 10h170c25 0 40 -15 40 -40v-135c0 -25 -20 -45 -45 -45v-5c25 0 45 -20 45 -45v-140c0 -25 -15 -40 -40 -40h-170zM150 180h-30v-90h30c5 0 10 5 10 10v70c0 5 -5 10 -10 10zM150 360h-30v-90h30c5 0 10 5 10 10v70
c0 5 -5 10 -10 10z" />
    <glyph glyph-name="afii10068" unicode="&#x433;" horiz-adv-x="230" 
d="M40 450h180c5 0 10 -5 10 -10v-70c0 -5 -5 -10 -10 -10h-100v-350c0 -5 -5 -10 -10 -10h-70c-5 0 -10 5 -10 10v430c0 5 5 10 10 10z" />
    <glyph glyph-name="afii10069" unicode="&#x434;" horiz-adv-x="305" 
d="M205 0h-115v-40c0 -5 -5 -10 -10 -10h-70c-5 0 -10 5 -10 10v120c0 5 5 10 10 10h25l25 350c0 5 5 10 10 10h180c5 0 10 -5 10 -10v-350h25c5 0 10 -5 10 -10v-120c0 -5 -5 -10 -10 -10h-70c-5 0 -10 5 -10 10v40zM145 360l-21 -270h46v270h-25z" />
    <glyph glyph-name="afii10072" unicode="&#x436;" horiz-adv-x="410" 
d="M30 10v180c0 25 20 45 45 45v5c-25 0 -45 20 -45 45v155c0 5 5 10 10 10h70c5 0 10 -5 10 -10v-150c0 -5 5 -10 10 -10h30v160c0 5 5 10 10 10h70c5 0 10 -5 10 -10v-160h30c5 0 10 5 10 10v150c0 5 5 10 10 10h70c5 0 10 -5 10 -10v-155c0 -25 -20 -45 -45 -45v-5
c25 0 45 -20 45 -45v-180c0 -5 -5 -10 -10 -10h-70c-5 0 -10 5 -10 10v170c0 5 -5 10 -10 10h-30v-180c0 -5 -5 -10 -10 -10h-70c-5 0 -10 5 -10 10v180h-30c-5 0 -10 -5 -10 -10v-170c0 -5 -5 -10 -10 -10h-70c-5 0 -10 5 -10 10z" />
    <glyph glyph-name="afii10073" unicode="&#x437;" horiz-adv-x="270" 
d="M140 180h-50c-5 0 -10 5 -10 10v70c0 5 5 10 10 10h50c5 0 10 5 10 10v70c0 5 -5 10 -10 10h-20c-5 0 -10 -5 -10 -10v-30c0 -5 -5 -10 -10 -10h-70c-5 0 -10 5 -10 10v90c0 25 15 40 40 40h140c25 0 40 -15 40 -40v-135c0 -25 -20 -45 -45 -45v-5c25 0 45 -20 45 -45
v-140c0 -25 -15 -40 -40 -40h-140c-25 0 -40 15 -40 40v90c0 5 5 10 10 10h70c5 0 10 -5 10 -10v-30c0 -5 5 -10 10 -10h20c5 0 10 5 10 10v70c0 5 -5 10 -10 10z" />
    <glyph glyph-name="afii10074" unicode="&#x438;" 
d="M170 450h70c5 0 10 -5 10 -10v-430c0 -5 -5 -10 -10 -10h-70c-5 0 -10 5 -10 10v180l-40 -90v-90c0 -5 -5 -10 -10 -10h-70c-5 0 -10 5 -10 10v430c0 5 5 10 10 10h70c5 0 10 -5 10 -10v-180l40 90v90c0 5 5 10 10 10z" />
    <glyph glyph-name="afii10075" unicode="&#x439;" 
d="M170 450h70c5 0 10 -5 10 -10v-430c0 -5 -5 -10 -10 -10h-70c-5 0 -10 5 -10 10v180l-40 -90v-90c0 -5 -5 -10 -10 -10h-70c-5 0 -10 5 -10 10v430c0 5 5 10 10 10h70c5 0 10 -5 10 -10v-180l40 90v90c0 5 5 10 10 10zM160 555v25c0 5 5 10 10 10h45c5 0 10 -5 10 -10
v-40c0 -25 -15 -40 -40 -40h-90c-25 0 -40 15 -40 40v40c0 5 5 10 10 10h45c5 0 10 -5 10 -10v-25h40z" />
    <glyph glyph-name="afii10076" unicode="&#x43a;" 
d="M250 190v-180c0 -5 -5 -10 -10 -10h-70c-5 0 -10 5 -10 10v170c0 5 -5 10 -10 10h-30v-180c0 -5 -5 -10 -10 -10h-70c-5 0 -10 5 -10 10v430c0 5 5 10 10 10h70c5 0 10 -5 10 -10v-160h30c5 0 10 5 10 10v150c0 5 5 10 10 10h70c5 0 10 -5 10 -10v-155
c0 -25 -20 -45 -45 -45v-5c25 0 45 -20 45 -45z" />
    <glyph glyph-name="afii10077" unicode="&#x43b;" horiz-adv-x="290" 
d="M35 100l25 340c0 5 5 10 10 10h180c5 0 10 -5 10 -10v-430c0 -5 -5 -10 -10 -10h-70c-5 0 -10 5 -10 10v350h-25l-25 -320c-2 -25 -15 -40 -40 -40h-70c-5 0 -10 5 -10 10v70c0 5 5 10 10 10h15c5 0 10 5 10 10z" />
    <glyph glyph-name="afii10071" unicode="&#x451;" horiz-adv-x="270" 
d="M250 80v-70c0 -5 -5 -10 -10 -10h-170c-25 0 -40 15 -40 40v370c0 25 15 40 40 40h140c25 0 40 -15 40 -40v-190c0 -25 -15 -40 -40 -40h-90v-80c0 -5 5 -10 10 -10h110c5 0 10 -5 10 -10zM120 350v-80h30c5 0 10 5 10 10v70c0 5 -5 10 -10 10h-20c-5 0 -10 -5 -10 -10z
M40 610h70c5 0 10 -5 10 -10v-70c0 -5 -5 -10 -10 -10h-70c-5 0 -10 5 -10 10v70c0 5 5 10 10 10zM170 610h70c5 0 10 -5 10 -10v-70c0 -5 -5 -10 -10 -10h-70c-5 0 -10 5 -10 10v70c0 5 5 10 10 10z" />
    <glyph glyph-name="afii10078" unicode="&#x43c;" horiz-adv-x="360" 
d="M165 120c-10 0 -14 5 -15 10l-30 105v-225c0 -5 -5 -10 -10 -10h-70c-5 0 -10 5 -10 10v430c0 5 5 10 10 10h75c10 0 14 -5 15 -10l50 -180l50 180c1 5 5 10 15 10h75c5 0 10 -5 10 -10v-430c0 -5 -5 -10 -10 -10h-70c-5 0 -10 5 -10 10v225l-30 -105
c-1 -5 -5 -10 -15 -10h-30z" />
    <glyph glyph-name="afii10079" unicode="&#x43d;" 
d="M170 450h70c5 0 10 -5 10 -10v-430c0 -5 -5 -10 -10 -10h-70c-5 0 -10 5 -10 10v170h-40v-170c0 -5 -5 -10 -10 -10h-70c-5 0 -10 5 -10 10v430c0 5 5 10 10 10h70c5 0 10 -5 10 -10v-170h40v170c0 5 5 10 10 10z" />
    <glyph glyph-name="afii10081" unicode="&#x43f;" 
d="M40 450h200c5 0 10 -5 10 -10v-430c0 -5 -5 -10 -10 -10h-70c-5 0 -10 5 -10 10v350h-40v-350c0 -5 -5 -10 -10 -10h-70c-5 0 -10 5 -10 10v430c0 5 5 10 10 10z" />
    <glyph glyph-name="afii10084" unicode="&#x442;" horiz-adv-x="240" 
d="M20 450h200c5 0 10 -5 10 -10v-70c0 -5 -5 -10 -10 -10h-55v-350c0 -5 -5 -10 -10 -10h-70c-5 0 -10 5 -10 10v350h-55c-5 0 -10 5 -10 10v70c0 5 5 10 10 10z" />
    <glyph glyph-name="afii10086" unicode="&#x444;" horiz-adv-x="390" 
d="M360 410v-370c0 -25 -15 -40 -40 -40h-80v-230c0 -5 -5 -10 -10 -10h-70c-5 0 -10 5 -10 10v230h-80c-25 0 -40 15 -40 40v370c0 25 15 40 40 40h80v240c0 5 5 10 10 10h70c5 0 10 -5 10 -10v-240h80c25 0 40 -15 40 -40zM150 90v270h-20c-5 0 -10 -5 -10 -10v-250
c0 -5 5 -10 10 -10h20zM240 360v-270h20c5 0 10 5 10 10v250c0 5 -5 10 -10 10h-20z" />
    <glyph glyph-name="afii10088" unicode="&#x446;" horiz-adv-x="295" 
d="M195 0h-155c-5 0 -10 5 -10 10v430c0 5 5 10 10 10h70c5 0 10 -5 10 -10v-350h40v350c0 5 5 10 10 10h70c5 0 10 -5 10 -10v-350h25c5 0 10 -5 10 -10v-120c0 -5 -5 -10 -10 -10h-70c-5 0 -10 5 -10 10v40z" />
    <glyph glyph-name="afii10089" unicode="&#x447;" horiz-adv-x="270" 
d="M150 170h-90c-25 0 -40 15 -40 40v230c0 5 5 10 10 10h70c5 0 10 -5 10 -10v-170c0 -5 5 -10 10 -10h30v180c0 5 5 10 10 10h70c5 0 10 -5 10 -10v-430c0 -5 -5 -10 -10 -10h-70c-5 0 -10 5 -10 10v160z" />
    <glyph glyph-name="afii10090" unicode="&#x448;" horiz-adv-x="410" 
d="M370 0h-330c-5 0 -10 5 -10 10v430c0 5 5 10 10 10h70c5 0 10 -5 10 -10v-350h40v350c0 5 5 10 10 10h70c5 0 10 -5 10 -10v-350h40v350c0 5 5 10 10 10h70c5 0 10 -5 10 -10v-430c0 -5 -5 -10 -10 -10z" />
    <glyph glyph-name="afii10091" unicode="&#x449;" horiz-adv-x="425" 
d="M380 440v-350h25c5 0 10 -5 10 -10v-120c0 -5 -5 -10 -10 -10h-70c-5 0 -10 5 -10 10v40h-285c-5 0 -10 5 -10 10v430c0 5 5 10 10 10h70c5 0 10 -5 10 -10v-350h40v350c0 5 5 10 10 10h70c5 0 10 -5 10 -10v-350h40v350c0 5 5 10 10 10h70c5 0 10 -5 10 -10z" />
    <glyph glyph-name="afii10092" unicode="&#x44a;" horiz-adv-x="300" 
d="M10 450h130c5 0 10 -5 10 -10v-150h90c25 0 40 -15 40 -40v-210c0 -25 -15 -40 -40 -40h-170c-5 0 -10 5 -10 10v350h-50c-5 0 -10 5 -10 10v70c0 5 5 10 10 10zM150 200v-110h30c5 0 10 5 10 10v90c0 5 -5 10 -10 10h-30z" />
    <glyph glyph-name="afii10093" unicode="&#x44b;" horiz-adv-x="410" 
d="M250 250v-210c0 -25 -15 -40 -40 -40h-170c-5 0 -10 5 -10 10v430c0 5 5 10 10 10h70c5 0 10 -5 10 -10v-150h90c25 0 40 -15 40 -40zM120 200v-110h30c5 0 10 5 10 10v90c0 5 -5 10 -10 10h-30zM380 440v-430c0 -5 -5 -10 -10 -10h-70c-5 0 -10 5 -10 10v430
c0 5 5 10 10 10h70c5 0 10 -5 10 -10z" />
    <glyph glyph-name="afii10094" unicode="&#x44c;" horiz-adv-x="270" 
d="M250 250v-210c0 -25 -15 -40 -40 -40h-170c-5 0 -10 5 -10 10v430c0 5 5 10 10 10h70c5 0 10 -5 10 -10v-150h90c25 0 40 -15 40 -40zM120 200v-110h30c5 0 10 5 10 10v90c0 5 -5 10 -10 10h-30z" />
    <glyph glyph-name="afii10095" unicode="&#x44d;" horiz-adv-x="270" 
d="M90 270h60v80c0 5 -5 10 -10 10h-20c-5 0 -10 -5 -10 -10v-30c0 -5 -5 -10 -10 -10h-70c-5 0 -10 5 -10 10v90c0 25 15 40 40 40h140c25 0 40 -15 40 -40v-370c0 -25 -15 -40 -40 -40h-140c-25 0 -40 15 -40 40v90c0 5 5 10 10 10h70c5 0 10 -5 10 -10v-30
c0 -5 5 -10 10 -10h20c5 0 10 5 10 10v80h-60c-5 0 -10 5 -10 10v70c0 5 5 10 10 10z" />
    <glyph glyph-name="afii10096" unicode="&#x44e;" horiz-adv-x="400" 
d="M370 410v-370c0 -25 -15 -40 -40 -40h-130c-25 0 -40 15 -40 40v140h-40v-170c0 -5 -5 -10 -10 -10h-70c-5 0 -10 5 -10 10v430c0 5 5 10 10 10h70c5 0 10 -5 10 -10v-170h40v140c0 25 15 40 40 40h130c25 0 40 -15 40 -40zM270 360h-10c-5 0 -10 -5 -10 -10v-250
c0 -5 5 -10 10 -10h10c5 0 10 5 10 10v250c0 5 -5 10 -10 10z" />
    <glyph glyph-name="afii10097" unicode="&#x44f;" 
d="M30 410c0 25 15 40 40 40h170c5 0 10 -5 10 -10v-430c0 -5 -5 -10 -10 -10h-70c-5 0 -10 5 -10 10v170h-30c-5 0 -10 -5 -10 -10v-160c0 -5 -5 -10 -10 -10h-70c-5 0 -10 5 -10 10v170c0 25 20 45 45 45v5c-25 0 -45 20 -45 45v135zM130 270h30v90h-30
c-5 0 -10 -5 -10 -9v-71c0 -5 5 -10 10 -10z" />
    <glyph glyph-name="exclam" unicode="!" horiz-adv-x="180" 
d="M125 0h-70c-5 0 -10 5 -10 10v70c0 5 5 10 10 10h70c5 0 10 -5 10 -10v-70c0 -5 -5 -10 -10 -10zM140 690v-490c0 -5 -5 -10 -10 -10h-80c-5 0 -10 5 -10 10v490c0 5 5 10 10 10h80c5 0 10 -5 10 -10z" />
    <glyph glyph-name="period" unicode="." horiz-adv-x="150" 
d="M110 0h-70c-5 0 -10 5 -10 10v70c0 5 5 10 10 10h70c5 0 10 -5 10 -10v-70c0 -5 -5 -10 -10 -10z" />
    <glyph glyph-name="colon" unicode=":" horiz-adv-x="150" 
d="M110 0h-70c-5 0 -10 5 -10 10v70c0 5 5 10 10 10h70c5 0 10 -5 10 -10v-70c0 -5 -5 -10 -10 -10zM110 360h-70c-5 0 -10 5 -10 10v70c0 5 5 10 10 10h70c5 0 10 -5 10 -10v-70c0 -5 -5 -10 -10 -10z" />
    <glyph glyph-name="semicolon" unicode=";" horiz-adv-x="150" 
d="M110 360h-70c-5 0 -10 5 -10 10v70c0 5 5 10 10 10h70c5 0 10 -5 10 -10v-70c0 -5 -5 -10 -10 -10zM110 -50h-10c-5 0 -10 5 -10 10v40h-50c-5 0 -10 5 -10 10v70c0 5 5 10 10 10h70c5 0 10 -5 10 -10v-120c0 -5 -5 -10 -10 -10z" />
    <glyph glyph-name="question" unicode="?" 
d="M80 200v30c0 30 15 70 15 70l55 190v100c0 5 -5 10 -10 10v0c-5 0 -10 -5 -10 -10v-90c0 -5 -5 -10 -10 -10h-80c-5 0 -10 5 -10 10v150c0 30 20 50 50 50h120c30 0 50 -20 50 -50v-140c0 -30 -15 -70 -15 -70l-55 -190v-50c0 -5 -5 -10 -10 -10h-80c-5 0 -10 5 -10 10z
M165 0h-70c-5 0 -10 5 -10 10v70c0 5 5 10 10 10h70c5 0 10 -5 10 -10v-70c0 -5 -5 -10 -10 -10z" />
    <glyph glyph-name="less" unicode="&#x3c;" horiz-adv-x="295" 
d="M30 280c0 10 5 16 10 20l215 140s10 5 10 -10v-60c0 -10 -5 -16 -10 -20l-110 -70l110 -70c5 -4 10 -10 10 -20v-60c0 -15 -10 -10 -10 -10l-215 140c-5 4 -10 10 -10 20z" />
    <glyph glyph-name="equal" unicode="=" horiz-adv-x="300" 
d="M270 250v-70c0 -5 -5 -10 -10 -10h-220c-5 0 -10 5 -10 10v70c0 5 5 10 10 10h220c5 0 10 -5 10 -10zM270 390v-70c0 -5 -5 -10 -10 -10h-220c-5 0 -10 5 -10 10v70c0 5 5 10 10 10h220c5 0 10 -5 10 -10z" />
    <glyph glyph-name="comma" unicode="," horiz-adv-x="150" 
d="M110 -50h-10c-5 0 -10 5 -10 10v40h-50c-5 0 -10 5 -10 10v70c0 5 5 10 10 10h70c5 0 10 -5 10 -10v-120c0 -5 -5 -10 -10 -10z" />
    <glyph glyph-name="hyphen" unicode="-" horiz-adv-x="300" 
d="M270 320v-70c0 -5 -5 -10 -10 -10h-220c-5 0 -10 5 -10 10v70c0 5 5 10 10 10h220c5 0 10 -5 10 -10z" />
    <glyph glyph-name="plus" unicode="+" horiz-adv-x="310" 
d="M120 420h70c5 0 10 -5 10 -10v-80h70c5 0 10 -5 10 -10v-70c0 -5 -5 -10 -10 -10h-70v-80c0 -5 -5 -10 -10 -10h-70c-5 0 -10 5 -10 10v80h-70c-5 0 -10 5 -10 10v70c0 5 5 10 10 10h70v80c0 5 5 10 10 10z" />
    <glyph glyph-name="asciicircum" unicode="^" horiz-adv-x="322" 
d="M161 700c10 0 16 -5 20 -10l140 -215s5 -10 -10 -10h-60c-10 0 -16 5 -20 10l-70 110l-70 -110c-4 -5 -10 -10 -20 -10h-60c-15 0 -10 10 -10 10l140 215c4 5 10 10 20 10z" />
    <glyph glyph-name="ellipsis" unicode="&#x2026;" horiz-adv-x="470" 
d="M110 0h-70c-5 0 -10 5 -10 10v70c0 5 5 10 10 10h70c5 0 10 -5 10 -10v-70c0 -5 -5 -10 -10 -10zM270 0h-70c-5 0 -10 5 -10 10v70c0 5 5 10 10 10h70c5 0 10 -5 10 -10v-70c0 -5 -5 -10 -10 -10zM430 0h-70c-5 0 -10 5 -10 10v70c0 5 5 10 10 10h70c5 0 10 -5 10 -10
v-70c0 -5 -5 -10 -10 -10z" />
    <glyph glyph-name="endash" unicode="&#x2013;" horiz-adv-x="320" 
d="M290 320v-60c0 -5 -5 -10 -10 -10h-240c-5 0 -10 5 -10 10v60c0 5 5 10 10 10h240c5 0 10 -5 10 -10z" />
    <glyph glyph-name="emdash" unicode="&#x2014;" horiz-adv-x="430" 
d="M400 320v-60c0 -5 -5 -10 -10 -10h-350c-5 0 -10 5 -10 10v60c0 5 5 10 10 10h350c5 0 10 -5 10 -10z" />
    <glyph glyph-name="parenleft" unicode="(" horiz-adv-x="240" 
d="M210 -60h-120c-25 0 -40 15 -40 40v630c0 25 15 40 40 40h120c5 0 10 -5 10 -10v-80c0 -5 -5 -10 -10 -10h-50c-5 0 -10 -5 -10 -10v-490c0 -5 5 -10 10 -10h50c5 0 10 -5 10 -10v-80c0 -5 -5 -10 -10 -10z" />
    <glyph glyph-name="parenright" unicode=")" horiz-adv-x="240" 
d="M150 -60h-120c-5 0 -10 5 -10 10v80c0 5 5 10 10 10h50c5 0 10 5 10 10v490c0 5 -5 10 -10 10h-50c-5 0 -10 5 -10 10v80c0 5 5 10 10 10h120c25 0 40 -15 40 -40v-630c0 -25 -15 -40 -40 -40z" />
    <glyph glyph-name="asterisk" unicode="*" horiz-adv-x="284" 
d="M117 700h50c5 0 11 -5 10 -10l-10 -75l60 35c10 5 13 0 15 -5l20 -50c4 -10 0 -14 -5 -15l-75 -15l55 -55c5 -5 5 -10 0 -15l-40 -30c-6 -5 -11 -5 -15 0l-40 60l-40 -60c-4 -5 -9 -5 -15 0l-40 30c-5 5 -5 10 0 15l55 55l-75 15c-5 1 -9 5 -5 15l20 50c2 5 5 10 15 5
l60 -35l-10 75c-1 5 5 10 10 10z" />
    <glyph glyph-name="quotedbl" unicode="&#x22;" horiz-adv-x="300" 
d="M115 530h-50c-5 0 -9 5 -10 10l-15 150c0 5 5 10 10 10h80c5 0 10 -5 10 -10l-15 -150c-1 -5 -5 -10 -10 -10zM235 530h-50c-5 0 -9 5 -10 10l-15 150c0 5 5 10 10 10h80c5 0 10 -5 10 -10l-15 -150c-1 -5 -5 -10 -10 -10z" />
    <glyph glyph-name="bracketleft" unicode="[" horiz-adv-x="250" 
d="M70 650h150c5 0 10 -5 10 -10v-80c0 -5 -5 -10 -10 -10h-60v-510h60c5 0 10 -5 10 -10v-80c0 -5 -5 -10 -10 -10h-150c-5 0 -10 5 -10 10v690c0 5 5 10 10 10z" />
    <glyph glyph-name="bracketright" unicode="]" horiz-adv-x="250" 
d="M180 -60h-150c-5 0 -10 5 -10 10v80c0 5 5 10 10 10h60v510h-60c-5 0 -10 5 -10 10v80c0 5 5 10 10 10h150c5 0 10 -5 10 -10v-690c0 -5 -5 -10 -10 -10z" />
    <glyph glyph-name="grave" unicode="`" horiz-adv-x="237" 
d="M126 605l-95 85s-5 10 10 10h75c10 0 15 -4 20 -10l70 -85s5 -10 -10 -10h-50c-10 0 -15 5 -20 10z" />
    <glyph glyph-name="braceleft" unicode="{" horiz-adv-x="260" 
d="M170 245v-195c0 -5 5 -10 10 -10h50c5 0 10 -5 10 -10v-80c0 -5 -5 -10 -10 -10h-120c-25 0 -40 15 -40 40v255c0 5 -5 10 -10 10h-20c-5 0 -10 5 -10 10v80c0 5 5 10 10 10h20c5 0 10 5 10 10v255c0 25 15 40 40 40h120c5 0 10 -5 10 -10v-80c0 -5 -5 -10 -10 -10h-50
c-5 0 -10 -5 -10 -10v-190c0 -30 -20 -50 -50 -50v-5c30 0 50 -20 50 -50z" />
    <glyph glyph-name="braceright" unicode="}" horiz-adv-x="260" 
d="M90 50v195c0 30 20 50 50 50v5c-30 0 -50 20 -50 50v190c0 5 -5 10 -10 10h-50c-5 0 -10 5 -10 10v80c0 5 5 10 10 10h120c25 0 40 -15 40 -40v-255c0 -5 5 -10 10 -10h20c5 0 10 -5 10 -10v-80c0 -5 -5 -10 -10 -10h-20c-5 0 -10 -5 -10 -10v-255c0 -25 -15 -40 -40 -40
h-120c-5 0 -10 5 -10 10v80c0 5 5 10 10 10h50c5 0 10 5 10 10z" />
    <glyph glyph-name="quotedblbase" unicode="&#x201e;" 
d="M110 -50h-10c-5 0 -10 5 -10 10v40h-50c-5 0 -10 5 -10 10v70c0 5 5 10 10 10h70c5 0 10 -5 10 -10v-120c0 -5 -5 -10 -10 -10zM240 -50h-10c-5 0 -10 5 -10 10v40h-50c-5 0 -10 5 -10 10v70c0 5 5 10 10 10h70c5 0 10 -5 10 -10v-120c0 -5 -5 -10 -10 -10z" />
    <glyph glyph-name="quotedblright" unicode="&#x201d;" 
d="M110 560h-10c-5 0 -10 5 -10 10v40h-50c-5 0 -10 5 -10 10v70c0 5 5 10 10 10h70c5 0 10 -5 10 -10v-120c0 -5 -5 -10 -10 -10zM240 560h-10c-5 0 -10 5 -10 10v40h-50c-5 0 -10 5 -10 10v70c0 5 5 10 10 10h70c5 0 10 -5 10 -10v-120c0 -5 -5 -10 -10 -10z" />
    <glyph glyph-name="quotedblleft" unicode="&#x201c;" 
d="M170 700h10c5 0 10 -5 10 -10v-40h50c5 0 10 -5 10 -10v-70c0 -5 -5 -10 -10 -10h-70c-5 0 -10 5 -10 10v120c0 5 5 10 10 10zM40 700h10c5 0 10 -5 10 -10v-40h50c5 0 10 -5 10 -10v-70c0 -5 -5 -10 -10 -10h-70c-5 0 -10 5 -10 10v120c0 5 5 10 10 10z" />
    <glyph glyph-name="guillemotleft" unicode="&#xab;" horiz-adv-x="477" 
d="M144 285l100 -100c3 -3 3 -7 0 -10l-50 -55c-3 -3 -7 -3 -10 0l-150 155c-5 5 -5 15 0 20l150 155c3 3 7 3 10 0l50 -55c3 -3 3 -7 0 -10zM344 285l100 -100c3 -3 3 -7 0 -10l-50 -55c-3 -3 -7 -3 -10 0l-150 155c-5 5 -5 15 0 20l150 155c3 3 7 3 10 0l50 -55
c3 -3 3 -7 0 -10z" />
    <glyph glyph-name="guillemotright" unicode="&#xbb;" horiz-adv-x="477" 
d="M233 185l100 100l-100 100c-3 3 -3 7 0 10l50 55c3 3 7 3 10 0l150 -155c5 -5 5 -15 0 -20l-150 -155c-3 -3 -7 -3 -10 0l-50 55c-3 3 -3 7 0 10zM33 185l100 100l-100 100c-3 3 -3 7 0 10l50 55c3 3 7 3 10 0l150 -155c5 -5 5 -15 0 -20l-150 -155c-3 -3 -7 -3 -10 0
l-50 55c-3 3 -3 7 0 10z" />
    <glyph glyph-name="at" unicode="@" horiz-adv-x="590" 
d="M160 90h240c5 0 10 -5 10 -10v-80c0 -5 -5 -10 -10 -10h-290c-30 0 -50 20 -50 50v620c0 30 20 50 50 50h380c30 0 50 -20 50 -50v-485c0 -30 -20 -50 -50 -50h-135c-30 0 -35 25 -35 25h-5s-5 -25 -35 -25h-50c-25 0 -40 15 -40 40v370c0 25 15 40 40 40h50
c30 0 35 -25 35 -25h5v15c0 5 5 10 10 10h70c5 0 10 -5 10 -10v-350h30c5 0 10 5 10 10v375c0 5 -5 10 -10 10h-280c-5 0 -10 -5 -10 -10v-500c0 -5 5 -10 10 -10zM280 475v-250c0 -5 5 -10 10 -10h30v270h-30c-5 0 -10 -5 -10 -10z" />
    <glyph glyph-name="dollar" unicode="$" horiz-adv-x="320" 
d="M180 770v-70h60c30 0 50 -20 50 -50v-190c0 -5 -5 -10 -10 -10h-90c-5 0 -10 5 -10 10v130c0 5 -5 10 -10 10h-20c-5 0 -10 -5 -10 -10v-115l135 -175c7 -10 15 -20 15 -40v-210c0 -30 -20 -50 -50 -50h-60v-70c0 -5 -5 -10 -10 -10h-20c-5 0 -10 5 -10 10v70h-60
c-30 0 -50 20 -50 50v190c0 5 5 10 10 10h90c5 0 10 -5 10 -10v-130c0 -5 5 -10 10 -10h20c5 0 10 5 10 10v135l-135 175c-7 10 -15 20 -15 40v190c0 30 20 50 50 50h60v70c0 5 5 10 10 10h20c5 0 10 -5 10 -10z" />
    <glyph glyph-name="Euro" unicode="&#x20ac;" horiz-adv-x="380" 
d="M330 320v-20c0 -5 -5 -10 -10 -10h-130v-180c0 -5 5 -10 10 -10h20c5 0 10 5 10 10v130c0 5 5 10 10 10h90c5 0 10 -5 10 -10v-190c0 -30 -20 -50 -50 -50h-160c-30 0 -50 20 -50 50v240h-50c-5 0 -10 5 -10 10v20c0 5 5 10 10 10h50v40h-50c-5 0 -10 5 -10 10v20
c0 5 5 10 10 10h50v240c0 30 20 50 50 50h160c30 0 50 -20 50 -50v-190c0 -5 -5 -10 -10 -10h-90c-5 0 -10 5 -10 10v130c0 5 -5 10 -10 10h-20c-5 0 -10 -5 -10 -10v-180h130c5 0 10 -5 10 -10v-20c0 -5 -5 -10 -10 -10h-130v-40h130c5 0 10 -5 10 -10z" />
    <glyph glyph-name="copyright" unicode="&#xa9;" horiz-adv-x="580" 
d="M100 710h380c30 0 50 -20 50 -50v-620c0 -30 -20 -50 -50 -50h-380c-30 0 -50 20 -50 50v620c0 30 20 50 50 50zM440 100v500c0 5 -5 10 -10 10h-280c-5 0 -10 -5 -10 -10v-500c0 -5 5 -10 10 -10h280c5 0 10 5 10 10zM400 535v-130c0 -5 -5 -10 -10 -10h-70
c-5 0 -10 5 -10 10v70c0 5 -5 10 -10 10h-20c-5 0 -10 -5 -10 -10v-250c0 -5 5 -10 10 -10h20c5 0 10 5 10 10v70c0 5 5 10 10 10h70c5 0 10 -5 10 -10v-130c0 -25 -15 -40 -40 -40h-140c-25 0 -40 15 -40 40v370c0 25 15 40 40 40h140c25 0 40 -15 40 -40z" />
    <glyph glyph-name="registered" unicode="&#xae;" horiz-adv-x="580" 
d="M100 710h380c30 0 50 -20 50 -50v-620c0 -30 -20 -50 -50 -50h-380c-30 0 -50 20 -50 50v620c0 30 20 50 50 50zM440 100v500c0 5 -5 10 -10 10h-280c-5 0 -10 -5 -10 -10v-500c0 -5 5 -10 10 -10h280c5 0 10 5 10 10zM400 535v-135c0 -25 -20 -45 -45 -45v-5
c25 0 45 -20 45 -45v-170c0 -5 -5 -10 -10 -10h-70c-5 0 -10 5 -10 10v160c0 5 -5 10 -10 10h-30v-170c0 -5 -5 -10 -10 -10h-70c-5 0 -10 5 -10 10v430c0 5 5 10 10 10h170c25 0 40 -15 40 -40zM270 395h30c5 0 10 5 10 10v71c0 4 -5 9 -10 9h-30v-90z" />
    <glyph glyph-name="uni20B4" unicode="&#x20b4;" horiz-adv-x="360" 
d="M195 290l-35 -45v-135c0 -5 5 -10 10 -10h20c5 0 10 5 10 10v130c0 5 5 10 10 10h90c5 0 10 -5 10 -10v-190c0 -30 -20 -50 -50 -50h-160c-30 0 -50 20 -50 50v210c0 20 10 30 10 30h-30c-5 0 -10 5 -10 10v20c0 5 5 10 10 10h55l35 40h-90c-5 0 -10 5 -10 10v20
c0 5 5 10 10 10h120l50 65v115c0 5 -5 10 -10 10h-20c-5 0 -10 -5 -10 -10v-130c0 -5 -5 -10 -10 -10h-90c-5 0 -10 5 -10 10v190c0 30 20 50 50 50h160c30 0 50 -20 50 -50v-190c0 -30 -25 -50 -25 -50h45c5 0 10 -5 10 -10v-20c0 -5 -5 -10 -10 -10h-75l-30 -40h105
c5 0 10 -5 10 -10v-20c0 -5 -5 -10 -10 -10h-135z" />
    <glyph glyph-name="numbersign" unicode="#" horiz-adv-x="470" 
d="M410 470l-30 -120h70c5 0 10 -5 10 -10l-15 -60c-1 -5 -5 -10 -10 -10h-75l-15 -60h70c5 0 10 -5 10 -10l-15 -60c-1 -5 -5 -10 -10 -10h-75l-30 -120c-1 -5 -5 -10 -10 -10h-71c-9 0 -10 5 -9 10l30 120h-55l-30 -120c-1 -5 -5 -10 -10 -10h-71c-9 0 -10 5 -9 10l30 120
h-70c-5 0 -10 5 -10 10l15 60c1 5 5 10 10 10h75l15 60h-70c-5 0 -10 5 -10 10l15 60c1 5 5 10 10 10h75l30 120c1 5 5 10 10 10h71c9 0 10 -5 9 -10l-30 -120h55l30 120c1 5 5 10 10 10h71c9 0 10 -5 9 -10zM215 270l-15 -60h55l15 60h-55z" />
    <glyph glyph-name="percent" unicode="%" horiz-adv-x="590" 
d="M40 450v210c0 25 15 40 40 40h130c25 0 40 -15 40 -40v-210c0 -25 -15 -40 -40 -40h-130c-25 0 -40 15 -40 40zM160 510v90c0 5 -5 10 -10 10h-10c-5 0 -10 -5 -10 -10v-90c0 -5 5 -10 10 -10h10c5 0 10 5 10 10zM545 690l-395 -680c-3 -5 -10 -10 -15 -10h-85
c-5 0 -8 5 -5 10l395 680c3 5 10 10 15 10h85c5 0 8 -5 5 -10zM340 40v210c0 25 15 40 40 40h130c25 0 40 -15 40 -40v-210c0 -25 -15 -40 -40 -40h-130c-25 0 -40 15 -40 40zM460 100v90c0 5 -5 10 -10 10h-10c-5 0 -10 -5 -10 -10v-90c0 -5 5 -10 10 -10h10
c5 0 10 5 10 10z" />
    <glyph glyph-name="ampersand" unicode="&#x26;" horiz-adv-x="350" 
d="M190 110v200c0 5 -5 10 -10 10h-10c-5 0 -10 -5 -10 -10v-200c0 -5 5 -10 10 -10h10c5 0 10 5 10 10zM170 420h160c5 0 10 -5 10 -10v-80c0 -5 -5 -10 -10 -10h-30v-270c0 -30 -20 -50 -50 -50h-150c-30 0 -50 20 -50 50v270c0 30 20 50 50 50v5c-30 0 -50 20 -50 50v225
c0 30 20 50 50 50h150c30 0 50 -20 50 -50v-150c0 -5 -5 -10 -10 -10h-90c-5 0 -10 5 -10 10v90c0 5 -5 10 -10 10h-10c-5 0 -10 -5 -10 -10v-160c0 -5 5 -10 10 -10z" />
    <glyph glyph-name="section" unicode="&#xa7;" horiz-adv-x="340" 
d="M300 360v-120c0 -40 -35 -45 -35 -45l10 -15c6 -10 15 -20 15 -40v-90c0 -30 -20 -50 -50 -50h-140c-30 0 -50 20 -50 50v100c0 5 5 10 10 10h80c5 0 10 -5 10 -10v-40c0 -5 5 -10 10 -10h20c5 0 10 5 10 10v15l-135 175c-7 10 -15 20 -15 40v120c0 40 35 45 35 45
l-10 15c-6 10 -15 20 -15 40v90c0 30 20 50 50 50h140c30 0 50 -20 50 -50v-100c0 -5 -5 -10 -10 -10h-80c-5 0 -10 5 -10 10v40c0 5 -5 10 -10 10h-20c-5 0 -10 -5 -10 -10v-15l135 -175c7 -10 15 -20 15 -40zM200 345l-50 65c-5 0 -10 -5 -10 -10v-45l50 -65
c5 0 10 5 10 10v45z" />
    <glyph glyph-name="afii61352" unicode="&#x2116;" horiz-adv-x="570" 
d="M190 10v210l-40 100v-310c0 -5 -5 -10 -10 -10h-90c-5 0 -10 5 -10 10v680c0 5 5 10 10 10h90c5 0 10 -5 10 -10v-170l40 -100v270c0 5 5 10 10 10h90c5 0 10 -5 10 -10v-680c0 -5 -5 -10 -10 -10h-90c-5 0 -10 5 -10 10zM340 170v210c0 25 15 40 40 40h130
c25 0 40 -15 40 -40v-210c0 -25 -15 -40 -40 -40h-130c-25 0 -40 15 -40 40zM460 230v90c0 5 -5 10 -10 10h-10c-5 0 -10 -5 -10 -10v-90c0 -5 5 -10 10 -10h10c5 0 10 5 10 10zM550 80v-70c0 -5 -5 -10 -10 -10h-190c-5 0 -10 5 -10 10v70c0 5 5 10 10 10h190
c5 0 10 -5 10 -10z" />
    <glyph glyph-name="exclamdown" unicode="&#xa1;" horiz-adv-x="180" 
d="M55 450h70c5 0 10 -5 10 -10v-70c0 -5 -5 -10 -10 -10h-70c-5 0 -10 5 -10 10v70c0 5 5 10 10 10zM140 250v-480c0 -5 -5 -10 -10 -10h-80c-5 0 -10 5 -10 10v480c0 5 5 10 10 10h80c5 0 10 -5 10 -10z" />
    <glyph glyph-name="dieresis" unicode="&#xa8;" 
d="M40 700h70c5 0 10 -5 10 -10v-70c0 -5 -5 -10 -10 -10h-70c-5 0 -10 5 -10 10v70c0 5 5 10 10 10zM170 700h70c5 0 10 -5 10 -10v-70c0 -5 -5 -10 -10 -10h-70c-5 0 -10 5 -10 10v70c0 5 5 10 10 10z" />
    <glyph glyph-name="sterling" unicode="&#xa3;" horiz-adv-x="330" 
d="M300 90v-80c0 -5 -5 -10 -10 -10h-220h-1h-29c-5 0 -10 5 -10 10v80c0 5 5 10 10 10h20v180h-20c-5 0 -10 5 -10 10v80c0 5 5 10 10 10h20v270c0 30 20 50 50 50h140c30 0 50 -20 50 -50v-130c0 -5 -5 -10 -10 -10h-90c-5 0 -10 5 -10 10v70c0 5 -5 10 -10 10
s-10 -5 -10 -10v-210h90c5 0 10 -5 10 -10v-80c0 -5 -5 -10 -10 -10h-90v-180h120c5 0 10 -5 10 -10z" />
    <glyph glyph-name="yen" unicode="&#xa5;" horiz-adv-x="340" 
d="M10 290v20c0 5 5 10 10 10h90l-15 50h-75c-5 0 -10 5 -10 10v20c0 5 5 10 10 10h65l-75 280c0 5 5 10 10 10h85c5 0 8 -5 10 -10l55 -220l55 220c2 5 5 10 10 10h85c5 0 10 -5 10 -10l-75 -280h65c5 0 10 -5 10 -10v-20c0 -5 -5 -10 -10 -10h-75l-15 -50h90
c5 0 10 -5 10 -10v-20c0 -5 -5 -10 -10 -10h-95v-270c0 -5 -5 -10 -10 -10h-90c-5 0 -10 5 -10 10v270h-95c-5 0 -10 5 -10 10z" />
    <glyph glyph-name="asciitilde" unicode="~" horiz-adv-x="330" 
d="M70 330h130c5 0 10 5 10 10v10c0 5 5 10 10 10h70c5 0 10 -5 10 -10v-70c0 -25 -15 -40 -40 -40h-130c-5 0 -10 -5 -10 -10v-10c0 -5 -5 -10 -10 -10h-70c-5 0 -10 5 -10 10v70c0 25 15 40 40 40z" />
    <glyph glyph-name="logicalnot" unicode="&#xac;" horiz-adv-x="330" 
d="M300 360v-150c0 -5 -5 -10 -10 -10h-70c-5 0 -10 5 -10 10v70h-170c-5 0 -10 5 -10 10v70c0 5 5 10 10 10h250c5 0 10 -5 10 -10z" />
    <glyph glyph-name="uni00AD" unicode="&#xad;" horiz-adv-x="300" 
d="M270 320v-70c0 -5 -5 -10 -10 -10h-220c-5 0 -10 5 -10 10v70c0 5 5 10 10 10h220c5 0 10 -5 10 -10z" />
    <glyph glyph-name="brokenbar" unicode="&#xa6;" horiz-adv-x="230" 
d="M170 110v-350c0 -5 -5 -10 -10 -10h-90c-5 0 -10 5 -10 10v350c0 5 5 10 10 10h90c5 0 10 -5 10 -10zM170 700v-350c0 -5 -5 -10 -10 -10h-90c-5 0 -10 5 -10 10v350c0 5 5 10 10 10h90c5 0 10 -5 10 -10z" />
    <glyph glyph-name="ordmasculine" unicode="&#xba;" horiz-adv-x="290" 
d="M40 450v210c0 25 15 40 40 40h130c25 0 40 -15 40 -40v-210c0 -25 -15 -40 -40 -40h-130c-25 0 -40 15 -40 40zM160 510v90c0 5 -5 10 -10 10h-10c-5 0 -10 -5 -10 -10v-90c0 -5 5 -10 10 -10h10c5 0 10 5 10 10z" />
    <glyph glyph-name="onehalf" unicode="&#xbd;" horiz-adv-x="600" 
d="M535 690l-395 -680c-3 -5 -10 -10 -15 -10h-85c-5 0 -8 5 -5 10l395 680c3 5 10 10 15 10h85c5 0 8 -5 5 -10zM40 700h140c5 0 10 -5 10 -10v-270c0 -5 -5 -10 -10 -10h-70c-5 0 -10 5 -10 10v190h-60c-5 0 -10 5 -10 10v70c0 5 5 10 10 10zM550 0h-190
c-5 0 -10 5 -10 10v80c0 20 10 33 30 45l90 55v10c0 5 -5 10 -10 10h-10c-5 0 -10 -5 -10 -10s-5 -10 -10 -10h-70c-5 0 -10 4 -10 10v50c0 25 15 40 40 40h130c25 0 40 -15 40 -40v-60c0 -25 -10 -33 -30 -45l-90 -55c-1 -5 2 -10 10 -10h100c5 0 10 -5 10 -10v-60
c0 -5 -5 -10 -10 -10z" />
    <glyph glyph-name="onequarter" unicode="&#xbc;" horiz-adv-x="600" 
d="M535 690l-395 -680c-3 -5 -10 -10 -15 -10h-85c-5 0 -8 5 -5 10l395 680c3 5 10 10 15 10h85c5 0 8 -5 5 -10zM40 700h140c5 0 10 -5 10 -10v-270c0 -5 -5 -10 -10 -10h-70c-5 0 -10 5 -10 10v190h-60c-5 0 -10 5 -10 10v70c0 5 5 10 10 10zM480 290h70c5 0 10 -5 10 -10
v-270c0 -5 -5 -10 -10 -10h-70c-5 0 -10 5 -10 10v80h-110c-5 0 -10 5 -10 10v180c0 5 5 10 10 10h70c5 0 10 -5 10 -10v-100h30v100c0 5 5 10 10 10z" />
    <glyph glyph-name="threequarters" unicode="&#xbe;" horiz-adv-x="640" 
d="M575 690l-395 -680c-3 -5 -10 -10 -15 -10h-85c-5 0 -8 5 -5 10l395 680c3 5 10 10 15 10h85c5 0 8 -5 5 -10zM520 290h70c5 0 10 -5 10 -10v-270c0 -5 -5 -10 -10 -10h-70c-5 0 -10 5 -10 10v80h-110c-5 0 -10 5 -10 10v180c0 5 5 10 10 10h70c5 0 10 -5 10 -10v-100h30
v100c0 5 5 10 10 10zM70 540v35c0 5 6 12 10 15l80 40h-110c-5 0 -10 5 -10 10v50c0 5 5 10 10 10h190c5 0 10 -5 10 -10v-50c0 -25 -10 -35 -30 -45l-30 -15h20c25 0 40 -15 40 -40v-90c0 -25 -15 -40 -40 -40h-130c-25 0 -40 15 -40 40v50c0 6 5 10 10 10h70
c5 0 10 -5 10 -10s5 -10 10 -10h10c5 0 10 5 10 10v20c0 5 -5 10 -10 10h-70c-5 0 -10 5 -10 10z" />
    <glyph glyph-name="onesuperior" unicode="&#xb9;" horiz-adv-x="220" 
d="M30 700h140c5 0 10 -5 10 -10v-270c0 -5 -5 -10 -10 -10h-70c-5 0 -10 5 -10 10v190h-60c-5 0 -10 5 -10 10v70c0 5 5 10 10 10z" />
    <glyph glyph-name="plusminus" unicode="&#xb1;" horiz-adv-x="310" 
d="M120 400h70c5 0 10 -5 10 -10v-80h70c5 0 10 -5 10 -10v-70c0 -5 -5 -10 -10 -10h-70v-80c0 -5 -5 -10 -10 -10h-70c-5 0 -10 5 -10 10v80h-70c-5 0 -10 5 -10 10v70c0 5 5 10 10 10h70v80c0 5 5 10 10 10zM40 90h230c5 0 10 -5 10 -10v-70c0 -5 -5 -10 -10 -10h-230
c-5 0 -10 5 -10 10v70c0 5 5 10 10 10z" />
    <glyph glyph-name="acute" unicode="&#xb4;" horiz-adv-x="237" 
d="M206 690l-95 -85c-5 -5 -10 -10 -20 -10h-50c-15 0 -10 10 -10 10l70 85c5 6 10 10 20 10h75c15 0 10 -10 10 -10z" />
    <glyph glyph-name="mu" unicode="&#xb5;" 
d="M30 -230v670c0 5 5 10 10 10h70c5 0 10 -5 10 -10v-340c0 -5 5 -10 10 -10h30v350c0 5 5 10 10 10h70c5 0 10 -5 10 -10v-430c0 -5 -5 -10 -10 -10h-70c-5 0 -10 5 -10 10v15h-5s-5 -25 -35 -25v-230c0 -5 -5 -10 -10 -10h-70c-5 0 -10 5 -10 10z" />
    <glyph glyph-name="paragraph" unicode="&#xb6;" horiz-adv-x="390" 
d="M370 440v-20c0 -5 -5 -10 -10 -10h-40v-640c0 -5 -5 -10 -10 -10h-20c-5 0 -10 5 -10 10v640h-90v-640c0 -5 -5 -10 -10 -10h-20c-5 0 -10 5 -10 10v420h-70c-25 0 -40 15 -40 40v180c0 25 15 40 40 40h280c5 0 10 -5 10 -10z" />
    <glyph glyph-name="periodcentered" unicode="&#xb7;" horiz-adv-x="150" 
d="M110 305h-70c-5 0 -10 5 -10 10v70c0 5 5 10 10 10h70c5 0 10 -5 10 -10v-70c0 -5 -5 -10 -10 -10z" />
    <glyph glyph-name="AE" unicode="&#xc6;" horiz-adv-x="470" 
d="M150 320v-310c0 -5 -5 -10 -10 -10h-90c-5 0 -10 5 -10 10v640c0 30 20 50 50 50h360c5 0 10 -5 10 -10v-80c0 -5 -5 -10 -10 -10h-130v-180h110c5 0 10 -5 10 -10v-80c0 -5 -5 -10 -10 -10h-110v-220h130c5 0 10 -5 10 -10v-80c0 -5 -5 -10 -10 -10h-230
c-5 0 -10 5 -10 10v310h-60zM150 590v-170h60v180h-50c-5 0 -10 -5 -10 -10z" />
    <glyph glyph-name="multiply" unicode="&#xd7;" horiz-adv-x="356" 
d="M243 285l80 -80c5 -5 0 -10 0 -10l-55 -55c-5 -5 -10 0 -10 0l-80 80l-80 -80s-5 -5 -10 0l-55 55s-5 5 0 10l80 80l-80 80c-5 5 0 10 0 10l55 55c5 5 10 0 10 0l80 -80l80 80s5 5 10 0l55 -55s5 -5 0 -10z" />
    <glyph glyph-name="Oslash" unicode="&#xd8;" horiz-adv-x="400" 
d="M10 290l60 35v325c0 30 20 50 50 50h160c30 0 50 -20 50 -50v-170l60 35c5 3 10 0 10 -5v-85c0 -5 -5 -12 -10 -15l-60 -35v-325c0 -30 -20 -50 -50 -50h-160c-30 0 -50 20 -50 50v170l-60 -35c-5 -3 -10 0 -10 5v85c0 5 5 12 10 15zM180 590v-200l40 25v175
c0 5 -5 10 -10 10h-20c-5 0 -10 -5 -10 -10zM220 110v200l-40 -25v-175c0 -5 5 -10 10 -10h20c5 0 10 5 10 10z" />
    <glyph glyph-name="Thorn" unicode="&#xde;" horiz-adv-x="330" 
d="M40 10v680c0 5 5 10 10 10h90c5 0 10 -5 10 -10v-140h100c30 0 50 -20 50 -50v-290c0 -30 -20 -50 -50 -50h-100v-150c0 -5 -5 -10 -10 -10h-90c-5 0 -10 5 -10 10zM190 270v170c0 5 -5 10 -10 10h-30v-190h30c5 0 10 5 10 10z" />
    <glyph glyph-name="germandbls" unicode="&#xdf;" 
d="M150 320h-30v-230h30c5 0 10 5 10 10v210c0 5 -5 10 -10 10zM150 610h-20c-5 0 -10 -5 -10 -10v-190h30c5 0 10 5 10 10v180c0 5 -5 10 -10 10zM120 25v-105c0 -5 -5 -10 -10 -10h-70c-5 0 -10 5 -10 10v740c0 25 15 40 40 40h140c25 0 40 -15 40 -40v-245
c0 -25 -20 -45 -45 -45v-5c25 0 45 -20 45 -45v-280c0 -25 -15 -40 -40 -40h-50c-30 0 -35 25 -35 25h-5z" />
    <glyph glyph-name="ae" unicode="&#xe6;" horiz-adv-x="400" 
d="M245 450h95c25 0 40 -15 40 -40v-190c0 -25 -15 -40 -40 -40h-90v-80c0 -5 5 -10 10 -10h110c5 0 10 -5 10 -10v-70c0 -5 -5 -10 -10 -10h-125c-30 0 -35 25 -35 25h-5s-5 -25 -35 -25h-100c-25 0 -40 15 -40 40v190c0 25 15 40 40 40h90v81c-1 4 -6 9 -10 9h-20
c-5 0 -10 -5 -10 -10v-30c0 -5 -5 -10 -10 -10h-70c-5 0 -10 5 -10 10v90c0 25 15 40 40 40h100c30 0 35 -25 35 -25h5s5 25 35 25zM160 90v90h-30c-5 0 -10 -5 -10 -10v-70c0 -5 5 -10 10 -10h30zM250 350v-80h30c5 0 10 5 10 10v70c0 5 -5 10 -10 10h-20
c-5 0 -10 -5 -10 -10z" />
    <glyph glyph-name="eth" unicode="&#xf0;" horiz-adv-x="272" 
d="M50 555l65 50l-25 85c-2 5 0 10 10 10h65c10 0 14 -5 15 -10l10 -35l45 35c5 4 10 1 15 -5l40 -55c3 -5 1 -10 -5 -15l-70 -50l25 -85c0 1 10 -35 10 -60v-380c0 -25 -15 -40 -40 -40h-140c-25 0 -40 15 -40 40v370c0 25 15 40 40 40h90l-20 60l-40 -30
c-5 -4 -10 -1 -15 5l-40 55c-3 5 -1 11 5 15zM150 360h-20c-5 0 -10 -5 -10 -10v-250c0 -5 5 -10 10 -10h20c5 0 10 5 10 10v250c0 5 -5 10 -10 10z" />
    <glyph glyph-name="divide" unicode="&#xf7;" horiz-adv-x="310" 
d="M40 330h230c5 0 10 -5 10 -10v-70c0 -5 -5 -10 -10 -10h-230c-5 0 -10 5 -10 10v70c0 5 5 10 10 10zM190 90h-70c-5 0 -10 5 -10 10v70c0 5 5 10 10 10h70c5 0 10 -5 10 -10v-70c0 -5 -5 -10 -10 -10zM190 390h-70c-5 0 -10 5 -10 10v70c0 5 5 10 10 10h70
c5 0 10 -5 10 -10v-70c0 -5 -5 -10 -10 -10z" />
    <glyph glyph-name="oslash" unicode="&#xf8;" horiz-adv-x="320" 
d="M270 410v-80l40 25c5 3 10 0 10 -5v-65c0 -5 -5 -12 -10 -15l-40 -25v-205c0 -25 -15 -40 -40 -40h-140c-25 0 -40 15 -40 40v80l-40 -25c-5 -3 -10 0 -10 5v65c0 5 5 12 10 15l40 25v205c0 25 15 40 40 40h140c25 0 40 -15 40 -40zM170 90c5 0 10 5 10 10v95l-40 -25
v-70c0 -5 5 -10 10 -10h20zM170 360h-20c-5 0 -10 -5 -10 -10v-95l40 25v70c0 5 -5 10 -10 10z" />
    <glyph glyph-name="thorn" unicode="&#xfe;" 
d="M120 360v-270h30c5 0 10 5 10 10v250c0 5 -5 10 -10 10h-30zM120 25v-255c0 -5 -5 -10 -10 -10h-70c-5 0 -10 5 -10 10v920c0 5 5 10 10 10h70c5 0 10 -5 10 -10v-265h5s5 25 35 25h50c25 0 40 -15 40 -40v-370c0 -25 -15 -40 -40 -40h-50c-30 0 -35 25 -35 25h-5z" />
    <glyph glyph-name="dcroat" unicode="&#x111;" horiz-adv-x="300" 
d="M80 600h80v90c0 5 5 10 10 10h70c5 0 10 -5 10 -10v-90h40c5 0 10 -5 10 -10v-70c0 -5 -5 -10 -10 -10h-40v-500c0 -5 -5 -10 -10 -10h-170c-25 0 -40 15 -40 40v370c0 25 15 40 40 40h90v60h-80c-5 0 -10 5 -10 10v70c0 5 5 10 10 10zM160 90v270h-30
c-5 0 -10 -5 -10 -10v-250c0 -5 5 -10 10 -10h30z" />
    <glyph glyph-name="Lslash" unicode="&#x141;" horiz-adv-x="327" 
d="M7 305l70 50v335c0 5 5 10 10 10h90c5 0 10 -5 10 -10v-255l31 25c5 4 10 1 15 -5l40 -55c3 -5 1 -10 -5 -15l-81 -60v-225h130c5 0 10 -5 10 -10v-80c0 -5 -5 -10 -10 -10h-230c-5 0 -10 5 -10 10v235l-20 -15c-5 -4 -10 -1 -15 5l-40 55c-3 5 -1 10 5 15z" />
    <glyph glyph-name="lslash" unicode="&#x142;" horiz-adv-x="235" 
d="M-13 325l80 55v310c0 5 5 10 10 10h70c5 0 10 -5 10 -10v-245l31 25c5 4 10 1 15 -5l40 -55c3 -5 1 -10 -5 -15l-81 -60v-235c0 -5 5 -10 10 -10h40c5 0 10 -5 10 -10v-70c0 -5 -5 -10 -10 -10h-100c-25 0 -40 15 -40 40v230l-30 -20c-5 -4 -10 -1 -15 5l-40 55
c-3 5 -1 11 5 15z" />
    <glyph glyph-name="OE" unicode="&#x152;" horiz-adv-x="460" 
d="M100 700h340c5 0 10 -5 10 -10v-80c0 -5 -5 -10 -10 -10h-130v-180h110c5 0 10 -5 10 -10v-80c0 -5 -5 -10 -10 -10h-110v-220h130c5 0 10 -5 10 -10v-80c0 -5 -5 -10 -10 -10h-340c-30 0 -50 20 -50 50v600c0 30 20 50 50 50zM160 110c0 -5 5 -10 10 -10h30v500h-30
c-5 0 -10 -5 -10 -10v-480z" />
    <glyph glyph-name="oe" unicode="&#x153;" horiz-adv-x="400" 
d="M30 40v370c0 25 15 40 40 40h100c30 0 35 -25 35 -25h5s5 25 35 25h95c25 0 40 -15 40 -40v-190c0 -25 -15 -40 -40 -40h-90v-80c0 -5 5 -10 10 -10h110c5 0 10 -5 10 -10v-70c0 -5 -5 -10 -10 -10h-125c-30 0 -35 25 -35 25h-5s-5 -25 -35 -25h-100c-25 0 -40 15 -40 40
zM120 350v-250c0 -5 5 -10 10 -10h20c5 0 10 5 10 10v250c-1 4 -6 10 -10 10h-20c-5 0 -10 -5 -10 -10zM250 350v-80h30c5 0 10 5 10 10v70c0 5 -5 10 -10 10h-20c-5 0 -10 -5 -10 -10z" />
    <glyph glyph-name="florin" unicode="&#x192;" horiz-adv-x="290" 
d="M55 100l45 240h-40c-5 0 -10 5 -10 10v70c0 6 6 10 10 10h55l40 230c4 25 20 40 45 40h100c5 0 10 -5 10 -10v-70c0 -5 -5 -10 -10 -10h-55c-5 0 -9 -5 -10 -10l-30 -170h70c5 0 10 -5 10 -10v-70c0 -5 -5 -10 -10 -10h-85l-55 -300c-5 -25 -20 -40 -45 -40h-100
c-5 0 -10 5 -10 10v70c0 5 5 10 10 10h55c5 0 9 5 10 10z" />
    <glyph glyph-name="circumflex" unicode="&#x2c6;" horiz-adv-x="302" 
d="M151 700c10 0 16 -5 20 -10l100 -125s5 -10 -10 -10h-60c-10 0 -16 5 -20 10l-30 40l-30 -40c-4 -5 -10 -10 -20 -10h-60c-15 0 -10 10 -10 10l100 125c4 5 10 10 20 10z" />
    <glyph glyph-name="caron" unicode="&#x2c7;" horiz-adv-x="302" 
d="M151 555c-10 0 -16 5 -20 10l-100 125s-5 10 10 10h60c10 0 16 -5 20 -10l30 -40l30 40c4 5 10 10 20 10h60c15 0 10 -10 10 -10l-100 -125c-4 -5 -10 -10 -20 -10z" />
    <glyph glyph-name="breve" unicode="&#x2d8;" horiz-adv-x="260" 
d="M155 665v25c0 5 5 10 10 10h55c5 0 10 -5 10 -10v-50c0 -25 -15 -40 -40 -40h-120c-25 0 -40 15 -40 40v50c0 5 5 10 10 10h55c5 0 10 -5 10 -10v-25h50z" />
    <glyph glyph-name="dotaccent" unicode="&#x2d9;" horiz-adv-x="150" 
d="M40 700h70c5 0 10 -5 10 -10v-70c0 -5 -5 -10 -10 -10h-70c-5 0 -10 5 -10 10v70c0 5 5 10 10 10z" />
    <glyph glyph-name="hungarumlaut" unicode="&#x2dd;" horiz-adv-x="327" 
d="M186 690l-95 -85c-5 -5 -10 -10 -20 -10h-30c-15 0 -10 10 -10 10l70 85c5 6 10 10 20 10h55c15 0 10 -10 10 -10zM296 690l-95 -85c-5 -5 -10 -10 -20 -10h-30c-15 0 -10 10 -10 10l70 85c5 6 10 10 20 10h55c15 0 10 -10 10 -10z" />
    <glyph glyph-name="afii10051" unicode="&#x402;" horiz-adv-x="360" 
d="M330 360v-420c0 -25 -15 -40 -40 -40h-80c-5 0 -10 5 -10 10v80c0 5 5 10 10 10s10 5 10 10v290c0 5 -5 10 -10 10h-30v-300c0 -5 -5 -10 -10 -10h-90c-5 0 -10 5 -10 10v590h-60c-5 0 -10 5 -10 10v80c0 5 5 10 10 10h230c5 0 10 -5 10 -10v-80c0 -5 -5 -10 -10 -10h-60
v-190h100c30 0 50 -20 50 -50z" />
    <glyph glyph-name="afii10058" unicode="&#x409;" horiz-adv-x="490" 
d="M40 110l45 580c0 5 5 10 10 10h210c5 0 10 -5 10 -10v-260h95c30 0 50 -20 50 -50v-330c0 -30 -20 -50 -50 -50h-195c-5 0 -10 5 -10 10v590h-20l-40 -550c-2 -30 -20 -50 -50 -50h-85c-5 0 -10 5 -10 10v80c0 5 5 10 10 10h20c5 0 10 5 10 10zM350 110v210
c0 5 -5 10 -10 10h-25v-230h25c5 0 10 5 10 10z" />
    <glyph glyph-name="afii10059" unicode="&#x40a;" horiz-adv-x="490" 
d="M310 430h100c30 0 50 -20 50 -50v-330c0 -30 -20 -50 -50 -50h-200c-5 0 -10 5 -10 10v320h-40v-320c0 -5 -5 -10 -10 -10h-90c-5 0 -10 5 -10 10v680c0 5 5 10 10 10h90c5 0 10 -5 10 -10v-260h40v260c0 5 5 10 10 10h90c5 0 10 -5 10 -10v-260zM350 110v210
c0 5 -5 10 -10 10h-30v-230h30c5 0 10 5 10 10z" />
    <glyph glyph-name="afii10060" unicode="&#x40b;" horiz-adv-x="360" 
d="M250 690v-80c0 -5 -5 -10 -10 -10h-60v-190h100c30 0 50 -20 50 -50v-350c0 -5 -5 -10 -10 -10h-90c-5 0 -10 5 -10 10v290c0 5 -5 10 -10 10h-30v-300c0 -5 -5 -10 -10 -10h-90c-5 0 -10 5 -10 10v590h-60c-5 0 -10 5 -10 10v80c0 5 5 10 10 10h230c5 0 10 -5 10 -10z
" />
    <glyph glyph-name="afii10145" unicode="&#x40f;" horiz-adv-x="360" 
d="M235 0v-50c0 -5 -5 -10 -10 -10h-90c-5 0 -10 5 -10 10v50h-65c-5 0 -10 5 -10 10v680c0 5 5 10 10 10h90c5 0 10 -5 10 -10v-590h40v590c0 5 5 10 10 10h90c5 0 10 -5 10 -10v-680c0 -5 -5 -10 -10 -10h-65z" />
    <glyph glyph-name="afii10099" unicode="&#x452;" horiz-adv-x="320" 
d="M70 580v110c0 5 5 10 10 10h70c5 0 10 -5 10 -10v-110h60c5 0 10 -5 10 -10v-70c0 -5 -5 -10 -10 -10h-60v-40h90c25 0 40 -15 40 -40v-470c0 -25 -15 -40 -40 -40h-60c-5 0 -10 5 -10 10v70c0 5 5 10 10 10s10 5 10 10v350c0 5 -5 10 -10 10h-30v-350
c0 -5 -5 -10 -10 -10h-70c-5 0 -10 5 -10 10v480h-60c-5 0 -10 5 -10 10v70c0 5 5 10 10 10h60z" />
    <glyph glyph-name="afii10106" unicode="&#x459;" horiz-adv-x="410" 
d="M390 250v-210c0 -25 -15 -40 -40 -40h-170c-5 0 -10 5 -10 10v350h-25l-25 -320c-2 -25 -15 -40 -40 -40h-70c-5 0 -10 5 -10 10v70c0 5 5 10 10 10h15c5 0 10 5 10 10l25 340c0 5 5 10 10 10h180c5 0 10 -5 10 -10v-150h90c25 0 40 -15 40 -40zM260 200v-110h30
c5 0 10 5 10 10v90c0 5 -5 10 -10 10h-30z" />
    <glyph glyph-name="afii10108" unicode="&#x45b;" horiz-adv-x="320" 
d="M70 580v110c0 5 5 10 10 10h70c5 0 10 -5 10 -10v-110h60c5 0 10 -5 10 -10v-70c0 -5 -5 -10 -10 -10h-60v-40h90c25 0 40 -15 40 -40v-400c0 -5 -5 -10 -10 -10h-70c-5 0 -10 5 -10 10v340c0 5 -5 10 -10 10h-30v-350c0 -5 -5 -10 -10 -10h-70c-5 0 -10 5 -10 10v480
h-60c-5 0 -10 5 -10 10v70c0 5 5 10 10 10h60z" />
    <glyph glyph-name="afii10193" unicode="&#x45f;" 
d="M240 0h-55v-40c0 -5 -5 -10 -10 -10h-70c-5 0 -10 5 -10 10v40h-55c-5 0 -10 5 -10 10v430c0 5 5 10 10 10h70c5 0 10 -5 10 -10v-350h40v350c0 5 5 10 10 10h70c5 0 10 -5 10 -10v-430c0 -5 -5 -10 -10 -10z" />
    <glyph glyph-name="afii10107" unicode="&#x45a;" horiz-adv-x="400" 
d="M380 240v-200c0 -25 -15 -40 -40 -40h-170c-5 0 -10 5 -10 10v180h-40v-180c0 -5 -5 -10 -10 -10h-70c-5 0 -10 5 -10 10v430c0 5 5 10 10 10h70c5 0 10 -5 10 -10v-160h40v160c0 5 5 10 10 10h70c5 0 10 -5 10 -10v-160h90c25 0 40 -15 40 -40zM250 190v-100h30
c5 0 10 5 10 10v80c0 5 -5 10 -10 10h-30z" />
    <glyph glyph-name="afii10050" unicode="&#x490;" 
d="M150 600v-590c0 -5 -5 -10 -10 -10h-90c-5 0 -10 5 -10 10v680c0 5 5 10 10 10h120v100c0 5 5 10 10 10h90c5 0 10 -5 10 -10v-190c0 -5 -5 -10 -10 -10h-120z" />
    <glyph glyph-name="afii10098" unicode="&#x491;" horiz-adv-x="230" 
d="M40 450h100v80c0 5 5 10 10 10h70c5 0 10 -5 10 -10v-160c0 -5 -5 -10 -10 -10h-100v-350c0 -5 -5 -10 -10 -10h-70c-5 0 -10 5 -10 10v430c0 5 5 10 10 10z" />
    <glyph glyph-name="dagger" unicode="&#x2020;" horiz-adv-x="450" 
d="M280 340v-330c0 -5 -5 -10 -10 -10h-90c-5 0 -10 5 -10 10v330h-120c-5 0 -10 5 -10 10v90c0 5 5 10 10 10h120v240c0 5 5 10 10 10h90c5 0 10 -5 10 -10v-240h120c5 0 10 -5 10 -10v-90c0 -5 -5 -10 -10 -10h-120z" />
    <glyph glyph-name="daggerdbl" unicode="&#x2021;" horiz-adv-x="450" 
d="M410 520v-90c0 -5 -5 -10 -10 -10h-120v-140h120c5 0 10 -5 10 -10v-90c0 -5 -5 -10 -10 -10h-120v-160c0 -5 -5 -10 -10 -10h-90c-5 0 -10 5 -10 10v160h-120c-5 0 -10 5 -10 10v90c0 5 5 10 10 10h120v140h-120c-5 0 -10 5 -10 10v90c0 5 5 10 10 10h120v160
c0 5 5 10 10 10h90c5 0 10 -5 10 -10v-160h120c5 0 10 -5 10 -10z" />
    <glyph glyph-name="bullet" unicode="&#x2022;" horiz-adv-x="320" 
d="M90 260v60c0 25 15 40 40 40h60c25 0 40 -15 40 -40v-60c0 -25 -15 -40 -40 -40h-60c-25 0 -40 15 -40 40z" />
    <glyph glyph-name="guilsinglright" unicode="&#x203a;" horiz-adv-x="277" 
d="M33 185l100 100l-100 100c-3 3 -3 7 0 10l50 55c3 3 7 3 10 0l150 -155c5 -5 5 -15 0 -20l-150 -155c-3 -3 -7 -3 -10 0l-50 55c-3 3 -3 7 0 10z" />
    <glyph glyph-name="uni20BD" unicode="&#x20bd;" horiz-adv-x="350" 
d="M270 250v-50c0 -5 -5 -10 -10 -10h-90v-180c0 -5 -5 -10 -10 -10h-90c-5 0 -10 5 -10 10v180h-30c-5 0 -10 5 -10 10v50c0 5 5 10 10 10h30v50h-30c-5 0 -10 5 -10 10v50c0 5 5 10 10 10h30v310c0 5 5 10 10 10h200c30 0 50 -20 50 -50v-290c0 -30 -20 -50 -50 -50h-100
v-50h90c5 0 10 -5 10 -10zM210 390v200c0 5 -5 10 -10 10h-30v-220h30c5 0 10 5 10 10z" />
    <glyph glyph-name="trademark" unicode="&#x2122;" horiz-adv-x="540" 
d="M20 700h170c5 0 10 -5 10 -10v-60c0 -5 -5 -10 -10 -10h-45v-260c0 -5 -5 -10 -10 -10h-60c-5 0 -10 5 -10 10v260h-45c-5 0 -10 5 -10 10v60c0 5 5 10 10 10zM355 410c-10 0 -14 5 -15 10l-30 105v-165c0 -5 -5 -10 -10 -10h-60c-5 0 -10 5 -10 10v330c0 5 5 10 10 10
h65c10 0 14 -5 15 -10l50 -180l50 180c1 5 5 10 15 10h65c5 0 10 -5 10 -10v-330c0 -5 -5 -10 -10 -10h-60c-5 0 -10 5 -10 10v165l-30 -105c-1 -5 -5 -10 -15 -10h-30z" />
    <glyph glyph-name="afii10019" unicode="&#x412;" horiz-adv-x="340" 
d="M300 320v-270c0 -30 -20 -50 -50 -50h-200c-5 0 -10 5 -10 10v680c0 5 5 10 10 10h200c30 0 50 -20 50 -50v-225c0 -30 -20 -50 -50 -50v-5c30 0 50 -20 50 -50zM150 320v-220h30c5 0 10 5 10 9v201c0 5 -5 10 -10 10h-30zM190 430v160c0 5 -5 10 -10 10h-30v-180h30
c5 0 10 5 10 10z" />
    <glyph glyph-name="afii10022" unicode="&#x415;" horiz-adv-x="300" 
d="M270 410v-80c0 -5 -5 -10 -10 -10h-110v-220h130c5 0 10 -5 10 -10v-80c0 -5 -5 -10 -10 -10h-230c-5 0 -10 5 -10 10v680c0 5 5 10 10 10h230c5 0 10 -5 10 -10v-80c0 -5 -5 -10 -10 -10h-130v-180h110c5 0 10 -5 10 -10z" />
    <glyph glyph-name="afii10030" unicode="&#x41c;" horiz-adv-x="450" 
d="M245 230h-40c-10 0 -14 5 -15 10l-40 140v-370c0 -5 -5 -10 -10 -10h-90c-5 0 -10 5 -10 10v680c0 5 5 9 10 10h85c10 0 14 -5 15 -10l75 -265l75 265c1 5 5 10 15 10h85c5 0 10 -5 10 -10v-680c0 -5 -5 -10 -10 -10h-90c-5 0 -10 5 -10 10v370l-40 -140
c-1 -5 -5 -10 -15 -10z" />
    <glyph glyph-name="afii10031" unicode="&#x41d;" horiz-adv-x="340" 
d="M190 10v310h-40v-310c0 -5 -5 -10 -10 -10h-90c-5 0 -10 5 -10 10v680c0 5 5 10 10 10h90c5 0 10 -5 10 -10v-270h40v270c0 5 5 10 10 10h90c5 0 10 -5 10 -10v-680c0 -5 -5 -10 -10 -10h-90c-5 0 -10 5 -10 10z" />
    <glyph glyph-name="afii10034" unicode="&#x420;" horiz-adv-x="330" 
d="M250 310h-100v-300c0 -5 -5 -10 -10 -10h-90c-5 0 -10 5 -10 10v680c0 5 5 10 10 10h200c30 0 50 -20 50 -50v-290c0 -30 -20 -50 -50 -50zM190 420v170c0 5 -5 10 -10 10h-30v-190h30c5 0 10 5 10 10z" />
    <glyph glyph-name="afii10035" unicode="&#x421;" horiz-adv-x="330" 
d="M200 450c-5 0 -10 5 -10 10v130c0 5 -5 10 -10 10h-20c-5 0 -10 -5 -10 -10v-480c0 -5 5 -10 10 -10h20c5 0 10 5 10 10v130c0 5 5 10 10 10h90c5 0 10 -5 10 -10v-190c0 -30 -20 -50 -50 -50h-160c-30 0 -50 20 -50 50v600c0 30 20 50 50 50h160c30 0 50 -20 50 -50
v-190c0 -5 -5 -10 -10 -10h-90z" />
    <glyph glyph-name="afii10036" unicode="&#x422;" horiz-adv-x="270" 
d="M260 690v-80c0 -5 -5 -10 -10 -10h-60v-590c0 -5 -5 -10 -10 -10h-90c-5 0 -10 5 -10 10v590h-60c-5 0 -10 5 -10 10v80c0 5 5 10 10 10h230c5 0 10 -5 10 -10z" />
    <glyph glyph-name="afii10039" unicode="&#x425;" horiz-adv-x="310" 
d="M0 10l105 340l-105 340c0 5 5 10 10 10h85c5 0 8 -5 10 -10l50 -170l50 170c2 5 5 10 10 10h85c5 0 10 -5 10 -10l-105 -340l105 -340c0 -5 -5 -10 -10 -10h-85c-5 0 -8 5 -10 10l-50 170l-50 -170c-2 -5 -5 -10 -10 -10h-85c-5 0 -10 5 -10 10z" />
    <glyph glyph-name="afii10065" unicode="&#x430;" 
d="M30 320v90c0 25 15 40 40 40h140c25 0 40 -15 40 -40v-400c0 -5 -5 -10 -10 -10h-70c-5 0 -10 5 -10 10v15h-5s-5 -25 -35 -25h-50c-25 0 -40 15 -40 40v180c0 25 15 40 40 40h50c30 0 35 -25 35 -25h5v115c0 5 -5 10 -10 10h-20c-5 0 -10 -5 -10 -10v-30
c0 -5 -5 -10 -10 -10h-70c-5 0 -10 5 -10 10zM160 90v80h-30c-5 0 -10 -5 -10 -10v-60c0 -5 5 -10 10 -10h30z" />
    <glyph glyph-name="afii10083" unicode="&#x441;" 
d="M250 410v-130c0 -5 -5 -10 -10 -10h-70c-5 0 -10 5 -10 10v70c0 5 -5 10 -10 10h-20c-5 0 -10 -5 -10 -10v-250c0 -5 5 -10 10 -10h20c5 0 10 5 10 10v70c0 5 5 10 10 10h70c5 0 10 -5 10 -10v-130c0 -25 -15 -40 -40 -40h-140c-25 0 -40 15 -40 40v370c0 25 15 40 40 40
h140c25 0 40 -15 40 -40z" />
    <glyph glyph-name="afii10070" unicode="&#x435;" horiz-adv-x="270" 
d="M250 80v-70c0 -5 -5 -10 -10 -10h-170c-25 0 -40 15 -40 40v370c0 25 15 40 40 40h140c25 0 40 -15 40 -40v-190c0 -25 -15 -40 -40 -40h-90v-80c0 -5 5 -10 10 -10h110c5 0 10 -5 10 -10zM120 350v-80h30c5 0 10 5 10 10v70c0 5 -5 10 -10 10h-20c-5 0 -10 -5 -10 -10z
" />
    <glyph glyph-name="afii10080" unicode="&#x43e;" 
d="M250 410v-370c0 -25 -15 -40 -40 -40h-140c-25 0 -40 15 -40 40v370c0 25 15 40 40 40h140c25 0 40 -15 40 -40zM150 360h-20c-5 0 -10 -5 -10 -10v-250c0 -5 5 -10 10 -10h20c5 0 10 5 10 10v250c0 5 -5 10 -10 10z" />
    <glyph glyph-name="afii10082" unicode="&#x440;" 
d="M250 40c0 -25 -15 -40 -40 -40h-90v-230c0 -5 -5 -10 -10 -10h-70c-5 0 -10 5 -10 10v670c0 5 5 10 10 10h70c5 0 10 -5 10 -10v-15h5s5 25 35 25h50c25 0 40 -15 40 -40v-370zM120 360v-270h30c5 0 10 5 10 10v250c0 5 -5 10 -10 10h-30z" />
    <glyph glyph-name="afii10087" unicode="&#x445;" horiz-adv-x="250" 
d="M90 440l35 -105l35 105c2 5 5 10 10 10h70c5 0 10 -5 10 -10l-80 -215l80 -215c0 -5 -5 -10 -10 -10h-70c-5 0 -8 5 -10 10l-35 105l-35 -105c-2 -5 -5 -10 -10 -10h-70c-5 0 -10 5 -10 10l80 215l-80 215c0 5 5 10 10 10h70c5 0 8 -5 10 -10z" />
    <glyph glyph-name="cent" unicode="&#xa2;" 
d="M160 520v-70h50c25 0 40 -15 40 -40v-130c0 -5 -5 -10 -10 -10h-70c-5 0 -10 5 -10 10v70c0 5 -5 10 -10 10h-20c-5 0 -10 -5 -10 -10v-250c0 -5 5 -10 10 -10h20c5 0 10 5 10 10v70c0 5 5 10 10 10h70c5 0 10 -5 10 -10v-130c0 -25 -15 -40 -40 -40h-50v-70
c0 -5 -5 -10 -10 -10h-20c-5 0 -10 5 -10 10v70h-50c-25 0 -40 15 -40 40v370c0 25 15 40 40 40h50v70c0 5 5 10 10 10h20c5 0 10 -5 10 -10z" />
    <glyph glyph-name="afii10053" unicode="&#x404;" horiz-adv-x="330" 
d="M290 490h-90c-5 0 -10 5 -10 10v90c0 5 -5 10 -10 10h-20c-5 0 -10 -5 -10 -10v-180h80c5 0 10 -5 10 -10v-80c0 -5 -5 -10 -10 -10h-80v-200c0 -5 5 -10 10 -10h20c5 0 10 5 10 10v90c0 5 5 10 10 10h90c5 0 10 -5 10 -10v-150c0 -30 -20 -50 -50 -50h-160
c-30 0 -50 20 -50 50v600c0 30 20 50 50 50h160c30 0 50 -20 50 -50v-150c0 -5 -5 -10 -10 -10z" />
    <glyph glyph-name="afii10101" unicode="&#x454;" horiz-adv-x="270" 
d="M120 270h60c5 0 10 -5 10 -10v-70c0 -5 -5 -10 -10 -10h-60v-80c0 -5 5 -10 10 -10h20c5 0 10 5 10 10v30c0 5 5 10 10 10h70c5 0 10 -5 10 -10v-90c0 -25 -15 -40 -40 -40h-140c-25 0 -40 15 -40 40v370c0 25 15 40 40 40h140c25 0 40 -15 40 -40v-90
c0 -5 -5 -10 -10 -10h-70c-5 0 -10 5 -10 10v30c0 5 -5 10 -10 10h-20c-5 0 -10 -5 -10 -10v-80z" />
    <glyph glyph-name="quoteleft" unicode="&#x2018;" horiz-adv-x="150" 
d="M40 700h10c5 0 10 -5 10 -10v-40h50c5 0 10 -5 10 -10v-70c0 -5 -5 -10 -10 -10h-70c-5 0 -10 5 -10 10v120c0 5 5 10 10 10z" />
    <glyph glyph-name="quoteright" unicode="&#x2019;" horiz-adv-x="150" 
d="M110 560h-10c-5 0 -10 5 -10 10v40h-50c-5 0 -10 5 -10 10v70c0 5 5 10 10 10h70c5 0 10 -5 10 -10v-120c0 -5 -5 -10 -10 -10z" />
    <glyph glyph-name="afii57929" unicode="&#x2bc;" horiz-adv-x="150" 
d="M110 560h-10c-5 0 -10 5 -10 10v40h-50c-5 0 -10 5 -10 10v70c0 5 5 10 10 10h70c5 0 10 -5 10 -10v-120c0 -5 -5 -10 -10 -10z" />
    <glyph glyph-name="commaaccent" unicode="&#xf6c3;" horiz-adv-x="150" 
d="M110 -210h-10c-5 0 -10 5 -10 10v40h-50c-5 0 -10 5 -10 10v70c0 5 5 10 10 10h70c5 0 10 -5 10 -10v-120c0 -5 -5 -10 -10 -10z" />
    <glyph glyph-name="tilde" unicode="&#x2dc;" horiz-adv-x="270" 
d="M30 580v50c0 25 15 40 40 40h80c5 0 10 5 10 10v10c0 5 5 10 10 10h60c5 0 10 -5 10 -10v-50c0 -25 -15 -40 -40 -40h-80c-5 0 -10 -5 -10 -10v-10c0 -5 -5 -10 -10 -10h-60c-5 0 -10 5 -10 10z" />
    <glyph glyph-name="ring" unicode="&#x2da;" horiz-adv-x="230" 
d="M30 580v80c0 25 15 40 40 40h90c25 0 40 -15 40 -40v-80c0 -25 -15 -40 -40 -40h-90c-25 0 -40 15 -40 40zM135 595v50h-40v-50h40z" />
    <glyph glyph-name="cyrbreve" unicode="&#xf6d4;" horiz-adv-x="230" 
d="M135 555v25c0 5 5 10 10 10h45c5 0 10 -5 10 -10v-40c0 -25 -15 -40 -40 -40h-90c-25 0 -40 15 -40 40v40c0 5 5 10 10 10h45c5 0 10 -5 10 -10v-25h40z" />
    <glyph glyph-name="cyrBreve" unicode="&#xf6d1;" horiz-adv-x="260" 
d="M155 815v25c0 5 5 10 10 10h55c5 0 10 -5 10 -10v-50c0 -25 -15 -40 -40 -40h-120c-25 0 -40 15 -40 40v50c0 5 5 10 10 10h55c5 0 10 -5 10 -10v-25h50z" />
    <glyph glyph-name="macron" unicode="&#xaf;" horiz-adv-x="260" 
d="M220 620h-180c-5 0 -10 5 -10 10v60c0 5 5 10 10 10h180c5 0 10 -5 10 -10v-60c0 -5 -5 -10 -10 -10z" />
    <glyph glyph-name="cedilla" unicode="&#xb8;" horiz-adv-x="210" 
d="M115 -35h25c25 0 40 -15 40 -40v-65c0 -25 -15 -40 -40 -40h-70c-25 0 -40 15 -40 40v30c0 5 5 10 10 10h35c5 0 10 -5 10 -10v-15h40v45h-45c-5 0 -10 5 -10 10v70h45v-35z" />
    <glyph glyph-name="ogonek" unicode="&#x2db;" horiz-adv-x="200" 
d="M170 0l-60 -60c-10 -10 -20 -20 -20 -30v-10c0 -5 5 -10 10 -10h50c5 0 10 -5 10 -10v-40c0 -5 -5 -10 -10 -10h-80c-25 0 -40 15 -40 40v40c0 25 10 34 30 50l50 40h60z" />
    <glyph glyph-name="afii10052" unicode="&#x403;" horiz-adv-x="287" 
d="M150 600v-590c0 -5 -5 -10 -10 -10h-90c-5 0 -10 5 -10 10v680c0 5 5 10 10 10h220c5 0 10 -5 10 -10v-80c0 -5 -5 -10 -10 -10h-120zM296 865l-95 -85c-5 -5 -10 -10 -20 -10h-50c-15 0 -10 10 -10 10l70 85c5 6 10 10 20 10h75c15 0 10 -10 10 -10z" />
    <glyph glyph-name="afii10100" unicode="&#x453;" horiz-adv-x="234" 
d="M40 450h180c5 0 10 -5 10 -10v-70c0 -5 -5 -10 -10 -10h-100v-350c0 -5 -5 -10 -10 -10h-70c-5 0 -10 5 -10 10v430c0 5 5 10 10 10zM273 605l-95 -85c-5 -5 -10 -10 -20 -10h-50c-15 0 -10 10 -10 10l70 85c5 6 10 10 20 10h75c15 0 10 -10 10 -10z" />
    <glyph glyph-name="afii10061" unicode="&#x40c;" horiz-adv-x="337" 
d="M180 320h-30v-310c0 -5 -5 -10 -10 -10h-90c-5 0 -10 5 -10 10v680c0 5 5 10 10 10h90c5 0 10 -5 10 -10v-270h30c5 0 10 5 10 10v260c0 5 5 10 10 10h90c5 0 10 -5 10 -10v-265c0 -30 -20 -50 -50 -50v-5c30 0 50 -20 50 -50v-310c0 -5 -5 -10 -10 -10h-90
c-5 0 -10 5 -10 10v300c0 5 -5 10 -10 10zM306 855l-95 -85c-5 -5 -10 -10 -20 -10h-50c-15 0 -10 10 -10 10l70 85c5 6 10 10 20 10h75c15 0 10 -10 10 -10z" />
    <glyph glyph-name="afii10109" unicode="&#x45c;" horiz-adv-x="282" 
d="M250 190v-180c0 -5 -5 -10 -10 -10h-70c-5 0 -10 5 -10 10v170c0 5 -5 10 -10 10h-30v-180c0 -5 -5 -10 -10 -10h-70c-5 0 -10 5 -10 10v430c0 5 5 10 10 10h70c5 0 10 -5 10 -10v-160h30c5 0 10 5 10 10v150c0 5 5 10 10 10h70c5 0 10 -5 10 -10v-155
c0 -25 -20 -45 -45 -45v-5c25 0 45 -20 45 -45zM281 605l-95 -85c-5 -5 -10 -10 -20 -10h-50c-15 0 -10 10 -10 10l70 85c5 6 10 10 20 10h75c15 0 10 -10 10 -10z" />
    <glyph glyph-name="afii10062" unicode="&#x40e;" horiz-adv-x="340" 
d="M180 100c5 0 10 5 10 10v190h-100c-30 0 -50 20 -50 50v340c0 5 5 10 10 10h90c5 0 10 -5 10 -10v-280c0 -5 5 -10 10 -10h30v290c0 5 5 10 10 10h90c5 0 10 -5 10 -10v-640c0 -30 -20 -50 -50 -50h-160c-30 0 -50 20 -50 50v160c0 5 5 10 10 10h90c5 0 10 -5 10 -10
v-100c0 -5 5 -10 10 -10h20zM195 835v25c0 5 5 10 10 10h55c5 0 10 -5 10 -10v-50c0 -25 -15 -40 -40 -40h-120c-25 0 -40 15 -40 40v50c0 5 5 10 10 10h55c5 0 10 -5 10 -10v-25h50z" />
    <glyph glyph-name="afii10110" unicode="&#x45e;" 
d="M120 440v-340c0 -5 5 -10 10 -10h30v350c0 5 5 10 10 10h70c5 0 10 -5 10 -10v-640c0 -25 -15 -40 -40 -40h-140c-25 0 -40 15 -40 40v130c0 5 5 10 10 10h70c5 0 10 -5 10 -10v-70c0 -5 5 -10 10 -10h20c5 0 10 5 10 10v140h-90c-25 0 -40 15 -40 40v400c0 5 5 10 10 10
h70c5 0 10 -5 10 -10zM165 585v25c0 5 5 10 10 10h55c5 0 10 -5 10 -10v-50c0 -25 -15 -40 -40 -40h-120c-25 0 -40 15 -40 40v50c0 5 5 10 10 10h55c5 0 10 -5 10 -10v-25h50z" />
    <glyph glyph-name="afii10057" unicode="&#x408;" horiz-adv-x="330" 
d="M290 690v-640c0 -30 -20 -50 -50 -50h-160c-30 0 -50 20 -50 50v190c0 5 5 10 10 10h90c5 0 10 -5 10 -10v-130c0 -5 5 -10 10 -10h20c5 0 10 5 10 10v580c0 5 5 10 10 10h90c5 0 10 -5 10 -10z" />
    <glyph glyph-name="afii10104" unicode="&#x457;" horiz-adv-x="150" 
d="M40 450h70c5 0 10 -5 10 -10v-430c0 -5 -5 -10 -10 -10h-70c-5 0 -10 5 -10 10v430c0 5 5 10 10 10zM-25 610h70c5 0 10 -5 10 -10v-70c0 -5 -5 -10 -10 -10h-70c-5 0 -10 5 -10 10v70c0 5 5 10 10 10zM105 610h70c5 0 10 -5 10 -10v-70c0 -5 -5 -10 -10 -10h-70
c-5 0 -10 5 -10 10v70c0 5 5 10 10 10z" />
    <glyph glyph-name="afii10056" unicode="&#x407;" horiz-adv-x="190" 
d="M150 690v-680c0 -5 -5 -10 -10 -10h-90c-5 0 -10 5 -10 10v680c0 5 5 10 10 10h90c5 0 10 -5 10 -10zM-5 860h70c5 0 10 -5 10 -10v-70c0 -5 -5 -10 -10 -10h-70c-5 0 -10 5 -10 10v70c0 5 5 10 10 10zM125 860h70c5 0 10 -5 10 -10v-70c0 -5 -5 -10 -10 -10h-70
c-5 0 -10 5 -10 10v70c0 5 5 10 10 10z" />
    <glyph glyph-name="Agrave" unicode="&#xc0;" horiz-adv-x="337" 
d="M147 320v-310c0 -5 -5 -10 -10 -10h-90c-5 0 -10 5 -10 10v640c0 30 20 50 50 50h160c30 0 50 -20 50 -50v-640c0 -5 -5 -10 -10 -10h-90c-5 0 -10 5 -10 10v310h-40zM187 420v170c0 5 -5 10 -10 10h-20c-5 0 -10 -5 -10 -10v-170h40zM126 770l-95 85s-5 10 10 10h75
c10 0 15 -4 20 -10l70 -85s5 -10 -10 -10h-50c-10 0 -15 5 -20 10z" />
    <glyph glyph-name="Aacute" unicode="&#xc1;" horiz-adv-x="347" 
d="M150 320v-310c0 -5 -5 -10 -10 -10h-90c-5 0 -10 5 -10 10v640c0 30 20 50 50 50h160c30 0 50 -20 50 -50v-640c0 -5 -5 -10 -10 -10h-90c-5 0 -10 5 -10 10v310h-40zM190 420v170c0 5 -5 10 -10 10h-20c-5 0 -10 -5 -10 -10v-170h40zM316 845l-95 -85
c-5 -5 -10 -10 -20 -10h-50c-15 0 -10 10 -10 10l70 85c5 6 10 10 20 10h75c15 0 10 -10 10 -10z" />
    <glyph glyph-name="Abreve" unicode="&#x102;" horiz-adv-x="340" 
d="M150 320v-310c0 -5 -5 -10 -10 -10h-90c-5 0 -10 5 -10 10v640c0 30 20 50 50 50h160c30 0 50 -20 50 -50v-640c0 -5 -5 -10 -10 -10h-90c-5 0 -10 5 -10 10v310h-40zM190 420v170c0 5 -5 10 -10 10h-20c-5 0 -10 -5 -10 -10v-170h40zM195 835v25c0 5 5 10 10 10h55
c5 0 10 -5 10 -10v-50c0 -25 -15 -40 -40 -40h-120c-25 0 -40 15 -40 40v50c0 5 5 10 10 10h55c5 0 10 -5 10 -10v-25h50z" />
    <glyph glyph-name="Acircumflex" unicode="&#xc2;" horiz-adv-x="340" 
d="M150 320v-310c0 -5 -5 -10 -10 -10h-90c-5 0 -10 5 -10 10v640c0 30 20 50 50 50h160c30 0 50 -20 50 -50v-640c0 -5 -5 -10 -10 -10h-90c-5 0 -10 5 -10 10v310h-40zM190 420v170c0 5 -5 10 -10 10h-20c-5 0 -10 -5 -10 -10v-170h40zM170 905c10 0 16 -5 20 -10
l100 -125s5 -10 -10 -10h-60c-10 0 -16 5 -20 10l-30 40l-30 -40c-4 -5 -10 -10 -20 -10h-60c-15 0 -10 10 -10 10l100 125c4 5 10 10 20 10z" />
    <glyph glyph-name="Adieresis" unicode="&#xc4;" horiz-adv-x="340" 
d="M150 320v-310c0 -5 -5 -10 -10 -10h-90c-5 0 -10 5 -10 10v640c0 30 20 50 50 50h160c30 0 50 -20 50 -50v-640c0 -5 -5 -10 -10 -10h-90c-5 0 -10 5 -10 10v310h-40zM190 420v170c0 5 -5 10 -10 10h-20c-5 0 -10 -5 -10 -10v-170h40zM70 860h70c5 0 10 -5 10 -10v-70
c0 -5 -5 -10 -10 -10h-70c-5 0 -10 5 -10 10v70c0 5 5 10 10 10zM200 860h70c5 0 10 -5 10 -10v-70c0 -5 -5 -10 -10 -10h-70c-5 0 -10 5 -10 10v70c0 5 5 10 10 10z" />
    <glyph glyph-name="Amacron" unicode="&#x100;" horiz-adv-x="340" 
d="M150 320v-310c0 -5 -5 -10 -10 -10h-90c-5 0 -10 5 -10 10v640c0 30 20 50 50 50h160c30 0 50 -20 50 -50v-640c0 -5 -5 -10 -10 -10h-90c-5 0 -10 5 -10 10v310h-40zM190 420v170c0 5 -5 10 -10 10h-20c-5 0 -10 -5 -10 -10v-170h40zM260 770h-180c-5 0 -10 5 -10 10v60
c0 5 5 10 10 10h180c5 0 10 -5 10 -10v-60c0 -5 -5 -10 -10 -10z" />
    <glyph glyph-name="Aogonek" unicode="&#x104;" horiz-adv-x="340" 
d="M290 0l-60 -60c-10 -10 -20 -20 -20 -30v-10c0 -5 5 -10 10 -10h50c5 0 10 -5 10 -10v-40c0 -5 -5 -10 -10 -10h-80c-25 0 -40 15 -40 40v40c0 25 10 34 30 50l50 40h-30c-5 0 -10 5 -10 10v310h-40v-310c0 -5 -5 -10 -10 -10h-90c-5 0 -10 5 -10 10v640
c0 30 20 50 50 50h160c30 0 50 -20 50 -50v-635c0 -5 -6 -11 -10 -15zM190 420v170c0 5 -5 10 -10 10h-20c-5 0 -10 -5 -10 -10v-170h40z" />
    <glyph glyph-name="Aring" unicode="&#xc5;" horiz-adv-x="340" 
d="M150 320v-310c0 -5 -5 -10 -10 -10h-90c-5 0 -10 5 -10 10v640c0 30 20 50 50 50h160c30 0 50 -20 50 -50v-640c0 -5 -5 -10 -10 -10h-90c-5 0 -10 5 -10 10v310h-40zM190 420v170c0 5 -5 10 -10 10h-20c-5 0 -10 -5 -10 -10v-170h40zM85 800v80c0 25 15 40 40 40h90
c25 0 40 -15 40 -40v-80c0 -25 -15 -40 -40 -40h-90c-25 0 -40 15 -40 40zM190 815v50h-40v-50h40z" />
    <glyph glyph-name="Atilde" unicode="&#xc3;" horiz-adv-x="340" 
d="M150 320v-310c0 -5 -5 -10 -10 -10h-90c-5 0 -10 5 -10 10v640c0 30 20 50 50 50h160c30 0 50 -20 50 -50v-640c0 -5 -5 -10 -10 -10h-90c-5 0 -10 5 -10 10v310h-40zM190 420v170c0 5 -5 10 -10 10h-20c-5 0 -10 -5 -10 -10v-170h40zM65 760v50c0 25 15 40 40 40h80
c5 0 10 5 10 10v10c0 5 5 10 10 10h60c5 0 10 -5 10 -10v-50c0 -25 -15 -40 -40 -40h-80c-5 0 -10 -5 -10 -10v-10c0 -5 -5 -10 -10 -10h-60c-5 0 -10 5 -10 10z" />
    <glyph glyph-name="Cacute" unicode="&#x106;" horiz-adv-x="333" 
d="M200 450c-5 0 -10 5 -10 10v130c0 5 -5 10 -10 10h-20c-5 0 -10 -5 -10 -10v-480c0 -5 5 -10 10 -10h20c5 0 10 5 10 10v130c0 5 5 10 10 10h90c5 0 10 -5 10 -10v-190c0 -30 -20 -50 -50 -50h-160c-30 0 -50 20 -50 50v600c0 30 20 50 50 50h160c30 0 50 -20 50 -50
v-190c0 -5 -5 -10 -10 -10h-90zM312 855l-95 -85c-5 -5 -10 -10 -20 -10h-50c-15 0 -10 10 -10 10l70 85c5 6 10 10 20 10h75c15 0 10 -10 10 -10z" />
    <glyph glyph-name="Ccaron" unicode="&#x10c;" horiz-adv-x="330" 
d="M200 450c-5 0 -10 5 -10 10v130c0 5 -5 10 -10 10h-20c-5 0 -10 -5 -10 -10v-480c0 -5 5 -10 10 -10h20c5 0 10 5 10 10v130c0 5 5 10 10 10h90c5 0 10 -5 10 -10v-190c0 -30 -20 -50 -50 -50h-160c-30 0 -50 20 -50 50v600c0 30 20 50 50 50h160c30 0 50 -20 50 -50
v-190c0 -5 -5 -10 -10 -10h-90zM165 750c-10 0 -16 5 -20 10l-100 125s-5 10 10 10h60c10 0 16 -5 20 -10l30 -40l30 40c4 5 10 10 20 10h60c15 0 10 -10 10 -10l-100 -125c-4 -5 -10 -10 -20 -10z" />
    <glyph glyph-name="Ccedilla" unicode="&#xc7;" horiz-adv-x="330" 
d="M185 -35h25c25 0 40 -15 40 -40v-65c0 -25 -15 -40 -40 -40h-70c-25 0 -40 15 -40 40v30c0 5 5 10 10 10h35c5 0 10 -5 10 -10v-15h40v45h-45c-5 0 -10 5 -10 10v70h-50c-30 0 -50 20 -50 50v600c0 30 20 50 50 50h160c30 0 50 -20 50 -50v-190c0 -5 -5 -10 -10 -10h-90
c-5 0 -10 5 -10 10v130c0 5 -5 10 -10 10h-20c-5 0 -10 -5 -10 -10v-480c0 -5 5 -10 10 -10h20c5 0 10 5 10 10v130c0 5 5 10 10 10h90c5 0 10 -5 10 -10v-190c0 -30 -20 -50 -50 -50h-65v-35z" />
    <glyph glyph-name="Ccircumflex" unicode="&#x108;" horiz-adv-x="330" 
d="M200 450c-5 0 -10 5 -10 10v130c0 5 -5 10 -10 10h-20c-5 0 -10 -5 -10 -10v-480c0 -5 5 -10 10 -10h20c5 0 10 5 10 10v130c0 5 5 10 10 10h90c5 0 10 -5 10 -10v-190c0 -30 -20 -50 -50 -50h-160c-30 0 -50 20 -50 50v600c0 30 20 50 50 50h160c30 0 50 -20 50 -50
v-190c0 -5 -5 -10 -10 -10h-90zM170 905c10 0 16 -5 20 -10l100 -125s5 -10 -10 -10h-60c-10 0 -16 5 -20 10l-30 40l-30 -40c-4 -5 -10 -10 -20 -10h-60c-15 0 -10 10 -10 10l100 125c4 5 10 10 20 10z" />
    <glyph glyph-name="Dcaron" unicode="&#x10e;" horiz-adv-x="340" 
d="M250 0h-200c-5 0 -10 5 -10 10v680c0 5 5 10 10 10h200c30 0 50 -20 50 -50v-600c0 -30 -20 -50 -50 -50zM190 110v480c0 5 -5 10 -10 10h-30v-500h30c5 0 10 5 10 10zM170 750c-10 0 -16 5 -20 10l-100 125s-5 10 10 10h60c10 0 16 -5 20 -10l30 -40l30 40
c4 5 10 10 20 10h60c15 0 10 -10 10 -10l-100 -125c-4 -5 -10 -10 -20 -10z" />
    <glyph glyph-name="Egrave" unicode="&#xc8;" horiz-adv-x="297" 
d="M267 410v-80c0 -5 -5 -10 -10 -10h-110v-220h130c5 0 10 -5 10 -10v-80c0 -5 -5 -10 -10 -10h-230c-5 0 -10 5 -10 10v680c0 5 5 10 10 10h230c5 0 10 -5 10 -10v-80c0 -5 -5 -10 -10 -10h-130v-180h110c5 0 10 -5 10 -10zM126 770l-95 85s-5 10 10 10h75
c10 0 15 -4 20 -10l70 -85s5 -10 -10 -10h-50c-10 0 -15 5 -20 10z" />
    <glyph glyph-name="Eacute" unicode="&#xc9;" horiz-adv-x="297" 
d="M270 410v-80c0 -5 -5 -10 -10 -10h-110v-220h130c5 0 10 -5 10 -10v-80c0 -5 -5 -10 -10 -10h-230c-5 0 -10 5 -10 10v680c0 5 5 10 10 10h230c5 0 10 -5 10 -10v-80c0 -5 -5 -10 -10 -10h-130v-180h110c5 0 10 -5 10 -10zM316 855l-95 -85c-5 -5 -10 -10 -20 -10h-50
c-15 0 -10 10 -10 10l70 85c5 6 10 10 20 10h75c15 0 10 -10 10 -10z" />
    <glyph glyph-name="Ecaron" unicode="&#x11a;" horiz-adv-x="300" 
d="M270 410v-80c0 -5 -5 -10 -10 -10h-110v-220h130c5 0 10 -5 10 -10v-80c0 -5 -5 -10 -10 -10h-230c-5 0 -10 5 -10 10v680c0 5 5 10 10 10h230c5 0 10 -5 10 -10v-80c0 -5 -5 -10 -10 -10h-130v-180h110c5 0 10 -5 10 -10zM165 750c-10 0 -16 5 -20 10l-100 125
s-5 10 10 10h60c10 0 16 -5 20 -10l30 -40l30 40c4 5 10 10 20 10h60c15 0 10 -10 10 -10l-100 -125c-4 -5 -10 -10 -20 -10z" />
    <glyph glyph-name="Ecircumflex" unicode="&#xca;" horiz-adv-x="300" 
d="M270 410v-80c0 -5 -5 -10 -10 -10h-110v-220h130c5 0 10 -5 10 -10v-80c0 -5 -5 -10 -10 -10h-230c-5 0 -10 5 -10 10v680c0 5 5 10 10 10h230c5 0 10 -5 10 -10v-80c0 -5 -5 -10 -10 -10h-130v-180h110c5 0 10 -5 10 -10zM165 905c10 0 16 -5 20 -10l100 -125
s5 -10 -10 -10h-60c-10 0 -16 5 -20 10l-30 40l-30 -40c-4 -5 -10 -10 -20 -10h-60c-15 0 -10 10 -10 10l100 125c4 5 10 10 20 10z" />
    <glyph glyph-name="Edieresis" unicode="&#xcb;" horiz-adv-x="300" 
d="M270 410v-80c0 -5 -5 -10 -10 -10h-110v-220h130c5 0 10 -5 10 -10v-80c0 -5 -5 -10 -10 -10h-230c-5 0 -10 5 -10 10v680c0 5 5 10 10 10h230c5 0 10 -5 10 -10v-80c0 -5 -5 -10 -10 -10h-130v-180h110c5 0 10 -5 10 -10zM65 860h70c5 0 10 -5 10 -10v-70
c0 -5 -5 -10 -10 -10h-70c-5 0 -10 5 -10 10v70c0 5 5 10 10 10zM195 860h70c5 0 10 -5 10 -10v-70c0 -5 -5 -10 -10 -10h-70c-5 0 -10 5 -10 10v70c0 5 5 10 10 10z" />
    <glyph glyph-name="Edotaccent" unicode="&#x116;" horiz-adv-x="300" 
d="M270 410v-80c0 -5 -5 -10 -10 -10h-110v-220h130c5 0 10 -5 10 -10v-80c0 -5 -5 -10 -10 -10h-230c-5 0 -10 5 -10 10v680c0 5 5 10 10 10h230c5 0 10 -5 10 -10v-80c0 -5 -5 -10 -10 -10h-130v-180h110c5 0 10 -5 10 -10zM130 860h70c5 0 10 -5 10 -10v-70
c0 -5 -5 -10 -10 -10h-70c-5 0 -10 5 -10 10v70c0 5 5 10 10 10z" />
    <glyph glyph-name="Emacron" unicode="&#x112;" horiz-adv-x="300" 
d="M270 410v-80c0 -5 -5 -10 -10 -10h-110v-220h130c5 0 10 -5 10 -10v-80c0 -5 -5 -10 -10 -10h-230c-5 0 -10 5 -10 10v680c0 5 5 10 10 10h230c5 0 10 -5 10 -10v-80c0 -5 -5 -10 -10 -10h-130v-180h110c5 0 10 -5 10 -10zM260 770h-180c-5 0 -10 5 -10 10v60
c0 5 5 10 10 10h180c5 0 10 -5 10 -10v-60c0 -5 -5 -10 -10 -10z" />
    <glyph glyph-name="Eogonek" unicode="&#x118;" horiz-adv-x="300" 
d="M270 410v-80c0 -5 -5 -10 -10 -10h-110v-220h130c5 0 10 -5 10 -10v-75c0 -5 -5 -10 -10 -15l-60 -60c-10 -10 -20 -20 -20 -30v-10c0 -5 5 -10 10 -10h50c5 0 10 -5 10 -10v-40c0 -5 -5 -10 -10 -10h-80c-25 0 -40 15 -40 40v40c0 25 10 34 30 50l50 40h-170
c-5 0 -10 5 -10 10v680c0 5 5 10 10 10h230c5 0 10 -5 10 -10v-80c0 -5 -5 -10 -10 -10h-130v-180h110c5 0 10 -5 10 -10z" />
    <glyph glyph-name="Gbreve" unicode="&#x11e;" horiz-adv-x="340" 
d="M200 450c-5 0 -10 5 -10 10v130c0 5 -5 10 -10 10h-20c-5 0 -10 -5 -10 -10v-480c0 -5 5 -10 10 -10h20c5 0 10 5 10 10v170h-10c-5 0 -10 5 -10 10v80c0 5 5 10 10 10h110c5 0 10 -5 10 -10v-320c0 -30 -20 -50 -50 -50h-160c-30 0 -50 20 -50 50v600c0 30 20 50 50 50
h160c30 0 50 -20 50 -50v-190c0 -5 -5 -10 -10 -10h-90zM195 835v25c0 5 5 10 10 10h55c5 0 10 -5 10 -10v-50c0 -25 -15 -40 -40 -40h-120c-25 0 -40 15 -40 40v50c0 5 5 10 10 10h55c5 0 10 -5 10 -10v-25h50z" />
    <glyph glyph-name="Gcommaaccent" unicode="&#x122;" horiz-adv-x="340" 
d="M200 450c-5 0 -10 5 -10 10v130c0 5 -5 10 -10 10h-20c-5 0 -10 -5 -10 -10v-480c0 -5 5 -10 10 -10h20c5 0 10 5 10 10v170h-10c-5 0 -10 5 -10 10v80c0 5 5 10 10 10h110c5 0 10 -5 10 -10v-320c0 -30 -20 -50 -50 -50h-160c-30 0 -50 20 -50 50v600c0 30 20 50 50 50
h160c30 0 50 -20 50 -50v-190c0 -5 -5 -10 -10 -10h-90zM205 -200h-10c-5 0 -10 5 -10 10v40h-50c-5 0 -10 5 -10 10v70c0 5 5 10 10 10h70c5 0 10 -5 10 -10v-120c0 -5 -5 -10 -10 -10z" />
    <glyph glyph-name="Kcommaaccent" unicode="&#x136;" horiz-adv-x="340" 
d="M180 320h-30v-310c0 -5 -5 -10 -10 -10h-90c-5 0 -10 5 -10 10v680c0 5 5 10 10 10h90c5 0 10 -5 10 -10v-270h30c5 0 10 5 10 10v260c0 5 5 10 10 10h90c5 0 10 -5 10 -10v-265c0 -30 -20 -50 -50 -50v-5c30 0 50 -20 50 -50v-310c0 -5 -5 -10 -10 -10h-90
c-5 0 -10 5 -10 10v300c0 5 -5 10 -10 10zM205 -200h-10c-5 0 -10 5 -10 10v40h-50c-5 0 -10 5 -10 10v70c0 5 5 10 10 10h70c5 0 10 -5 10 -10v-120c0 -5 -5 -10 -10 -10z" />
    <glyph glyph-name="Lacute" unicode="&#x139;" horiz-adv-x="290" 
d="M150 690v-590h130c5 0 10 -5 10 -10v-80c0 -5 -5 -10 -10 -10h-230c-5 0 -10 5 -10 10v680c0 5 5 10 10 10h90c5 0 10 -5 10 -10zM236 865l-95 -85c-5 -5 -10 -10 -20 -10h-50c-15 0 -10 10 -10 10l70 85c5 6 10 10 20 10h75c15 0 10 -10 10 -10z" />
    <glyph glyph-name="Lcaron" unicode="&#x13d;" horiz-adv-x="290" 
d="M150 690v-590h130c5 0 10 -5 10 -10v-80c0 -5 -5 -10 -10 -10h-230c-5 0 -10 5 -10 10v680c0 5 5 10 10 10h90c5 0 10 -5 10 -10zM270 560h-10c-5 0 -10 5 -10 10v40h-50c-5 0 -10 5 -10 10v70c0 5 5 10 10 10h70c5 0 10 -5 10 -10v-120c0 -5 -5 -10 -10 -10z" />
    <glyph glyph-name="Lcommaaccent" unicode="&#x13b;" horiz-adv-x="290" 
d="M150 690v-590h130c5 0 10 -5 10 -10v-80c0 -5 -5 -10 -10 -10h-230c-5 0 -10 5 -10 10v680c0 5 5 10 10 10h90c5 0 10 -5 10 -10zM200 -200h-10c-5 0 -10 5 -10 10v40h-50c-5 0 -10 5 -10 10v70c0 5 5 10 10 10h70c5 0 10 -5 10 -10v-120c0 -5 -5 -10 -10 -10z" />
    <glyph glyph-name="agrave" unicode="&#xe0;" horiz-adv-x="277" 
d="M27 320v90c0 25 15 40 40 40h140c25 0 40 -15 40 -40v-400c0 -5 -5 -10 -10 -10h-70c-5 0 -10 5 -10 10v15h-5s-5 -25 -35 -25h-50c-25 0 -40 15 -40 40v180c0 25 15 40 40 40h50c30 0 35 -25 35 -25h5v115c0 5 -5 10 -10 10h-20c-5 0 -10 -5 -10 -10v-30
c0 -5 -5 -10 -10 -10h-70c-5 0 -10 5 -10 10zM157 90v80h-30c-5 0 -10 -5 -10 -10v-60c0 -5 5 -10 10 -10h30zM106 520l-95 85s-5 10 10 10h75c10 0 15 -4 20 -10l70 -85s5 -10 -10 -10h-50c-10 0 -15 5 -20 10z" />
    <glyph glyph-name="aacute" unicode="&#xe1;" 
d="M30 320v90c0 25 15 40 40 40h140c25 0 40 -15 40 -40v-400c0 -5 -5 -10 -10 -10h-70c-5 0 -10 5 -10 10v15h-5s-5 -25 -35 -25h-50c-25 0 -40 15 -40 40v180c0 25 15 40 40 40h50c30 0 35 -25 35 -25h5v115c0 5 -5 10 -10 10h-20c-5 0 -10 -5 -10 -10v-30
c0 -5 -5 -10 -10 -10h-70c-5 0 -10 5 -10 10zM160 90v80h-30c-5 0 -10 -5 -10 -10v-60c0 -5 5 -10 10 -10h30zM227 690l-95 -85c-5 -5 -10 -10 -20 -10h-50c-15 0 -10 10 -10 10l70 85c5 6 10 10 20 10h75c15 0 10 -10 10 -10z" />
    <glyph glyph-name="abreve" unicode="&#x103;" 
d="M30 320v90c0 25 15 40 40 40h140c25 0 40 -15 40 -40v-400c0 -5 -5 -10 -10 -10h-70c-5 0 -10 5 -10 10v15h-5s-5 -25 -35 -25h-50c-25 0 -40 15 -40 40v180c0 25 15 40 40 40h50c30 0 35 -25 35 -25h5v115c0 5 -5 10 -10 10h-20c-5 0 -10 -5 -10 -10v-30
c0 -5 -5 -10 -10 -10h-70c-5 0 -10 5 -10 10zM160 90v80h-30c-5 0 -10 -5 -10 -10v-60c0 -5 5 -10 10 -10h30zM165 585v25c0 5 5 10 10 10h55c5 0 10 -5 10 -10v-50c0 -25 -15 -40 -40 -40h-120c-25 0 -40 15 -40 40v50c0 5 5 10 10 10h55c5 0 10 -5 10 -10v-25h50z" />
    <glyph glyph-name="acircumflex" unicode="&#xe2;" horiz-adv-x="282" 
d="M31 320v90c0 25 15 40 40 40h140c25 0 40 -15 40 -40v-400c0 -5 -5 -10 -10 -10h-70c-5 0 -10 5 -10 10v15h-5s-5 -25 -35 -25h-50c-25 0 -40 15 -40 40v180c0 25 15 40 40 40h50c30 0 35 -25 35 -25h5v115c0 5 -5 10 -10 10h-20c-5 0 -10 -5 -10 -10v-30
c0 -5 -5 -10 -10 -10h-70c-5 0 -10 5 -10 10zM161 90v80h-30c-5 0 -10 -5 -10 -10v-60c0 -5 5 -10 10 -10h30zM141 665c10 0 16 -5 20 -10l100 -125s5 -10 -10 -10h-60c-10 0 -16 5 -20 10l-30 40l-30 -40c-4 -5 -10 -10 -20 -10h-60c-15 0 -10 10 -10 10l100 125
c4 5 10 10 20 10z" />
    <glyph glyph-name="adieresis" unicode="&#xe4;" 
d="M30 320v90c0 25 15 40 40 40h140c25 0 40 -15 40 -40v-400c0 -5 -5 -10 -10 -10h-70c-5 0 -10 5 -10 10v15h-5s-5 -25 -35 -25h-50c-25 0 -40 15 -40 40v180c0 25 15 40 40 40h50c30 0 35 -25 35 -25h5v115c0 5 -5 10 -10 10h-20c-5 0 -10 -5 -10 -10v-30
c0 -5 -5 -10 -10 -10h-70c-5 0 -10 5 -10 10zM160 90v80h-30c-5 0 -10 -5 -10 -10v-60c0 -5 5 -10 10 -10h30zM40 610h70c5 0 10 -5 10 -10v-70c0 -5 -5 -10 -10 -10h-70c-5 0 -10 5 -10 10v70c0 5 5 10 10 10zM170 610h70c5 0 10 -5 10 -10v-70c0 -5 -5 -10 -10 -10h-70
c-5 0 -10 5 -10 10v70c0 5 5 10 10 10z" />
    <glyph glyph-name="amacron" unicode="&#x101;" 
d="M30 320v90c0 25 15 40 40 40h140c25 0 40 -15 40 -40v-400c0 -5 -5 -10 -10 -10h-70c-5 0 -10 5 -10 10v15h-5s-5 -25 -35 -25h-50c-25 0 -40 15 -40 40v180c0 25 15 40 40 40h50c30 0 35 -25 35 -25h5v115c0 5 -5 10 -10 10h-20c-5 0 -10 -5 -10 -10v-30
c0 -5 -5 -10 -10 -10h-70c-5 0 -10 5 -10 10zM160 90v80h-30c-5 0 -10 -5 -10 -10v-60c0 -5 5 -10 10 -10h30zM230 520h-180c-5 0 -10 5 -10 10v60c0 5 5 10 10 10h180c5 0 10 -5 10 -10v-60c0 -5 -5 -10 -10 -10z" />
    <glyph glyph-name="aogonek" unicode="&#x105;" 
d="M30 320v90c0 25 15 40 40 40h140c25 0 40 -15 40 -40v-395c0 -5 -5 -10 -10 -15l-60 -60c-10 -10 -20 -20 -20 -30v-10c0 -5 5 -10 10 -10h50c5 0 10 -5 10 -10v-40c0 -5 -5 -10 -10 -10h-80c-25 0 -40 15 -40 40v40c0 25 10 34 30 50l50 40h-10c-5 0 -10 5 -10 10v15h-5
s-5 -25 -35 -25h-50c-25 0 -40 15 -40 40v180c0 25 15 40 40 40h50c30 0 35 -25 35 -25h5v115c0 5 -5 10 -10 10h-20c-5 0 -10 -5 -10 -10v-30c0 -5 -5 -10 -10 -10h-70c-5 0 -10 5 -10 10zM160 90v80h-30c-5 0 -10 -5 -10 -10v-60c0 -5 5 -10 10 -10h30z" />
    <glyph glyph-name="aring" unicode="&#xe5;" 
d="M30 320v90c0 25 15 40 40 40h140c25 0 40 -15 40 -40v-400c0 -5 -5 -10 -10 -10h-70c-5 0 -10 5 -10 10v15h-5s-5 -25 -35 -25h-50c-25 0 -40 15 -40 40v180c0 25 15 40 40 40h50c30 0 35 -25 35 -25h5v115c0 5 -5 10 -10 10h-20c-5 0 -10 -5 -10 -10v-30
c0 -5 -5 -10 -10 -10h-70c-5 0 -10 5 -10 10zM160 90v80h-30c-5 0 -10 -5 -10 -10v-60c0 -5 5 -10 10 -10h30zM55 570v80c0 25 15 40 40 40h90c25 0 40 -15 40 -40v-80c0 -25 -15 -40 -40 -40h-90c-25 0 -40 15 -40 40zM160 585v50h-40v-50h40z" />
    <glyph glyph-name="atilde" unicode="&#xe3;" 
d="M30 320v90c0 25 15 40 40 40h140c25 0 40 -15 40 -40v-400c0 -5 -5 -10 -10 -10h-70c-5 0 -10 5 -10 10v15h-5s-5 -25 -35 -25h-50c-25 0 -40 15 -40 40v180c0 25 15 40 40 40h50c30 0 35 -25 35 -25h5v115c0 5 -5 10 -10 10h-20c-5 0 -10 -5 -10 -10v-30
c0 -5 -5 -10 -10 -10h-70c-5 0 -10 5 -10 10zM160 90v80h-30c-5 0 -10 -5 -10 -10v-60c0 -5 5 -10 10 -10h30zM35 510v50c0 25 15 40 40 40h80c5 0 10 5 10 10v10c0 5 5 10 10 10h60c5 0 10 -5 10 -10v-50c0 -25 -15 -40 -40 -40h-80c-5 0 -10 -5 -10 -10v-10
c0 -5 -5 -10 -10 -10h-60c-5 0 -10 5 -10 10z" />
    <glyph glyph-name="cacute" unicode="&#x107;" horiz-adv-x="277" 
d="M250 410v-130c0 -5 -5 -10 -10 -10h-70c-5 0 -10 5 -10 10v70c0 5 -5 10 -10 10h-20c-5 0 -10 -5 -10 -10v-250c0 -5 5 -10 10 -10h20c5 0 10 5 10 10v70c0 5 5 10 10 10h70c5 0 10 -5 10 -10v-130c0 -25 -15 -40 -40 -40h-140c-25 0 -40 15 -40 40v370c0 25 15 40 40 40
h140c25 0 40 -15 40 -40zM276 605l-95 -85c-5 -5 -10 -10 -20 -10h-50c-15 0 -10 10 -10 10l70 85c5 6 10 10 20 10h75c15 0 10 -10 10 -10z" />
    <glyph glyph-name="ccaron" unicode="&#x10d;" horiz-adv-x="282" 
d="M251 410v-130c0 -5 -5 -10 -10 -10h-70c-5 0 -10 5 -10 10v70c0 5 -5 10 -10 10h-20c-5 0 -10 -5 -10 -10v-250c0 -5 5 -10 10 -10h20c5 0 10 5 10 10v70c0 5 5 10 10 10h70c5 0 10 -5 10 -10v-130c0 -25 -15 -40 -40 -40h-140c-25 0 -40 15 -40 40v370c0 25 15 40 40 40
h140c25 0 40 -15 40 -40zM141 500c-10 0 -16 5 -20 10l-100 125s-5 10 10 10h60c10 0 16 -5 20 -10l30 -40l30 40c4 5 10 10 20 10h60c15 0 10 -10 10 -10l-100 -125c-4 -5 -10 -10 -20 -10z" />
    <glyph glyph-name="ccedilla" unicode="&#xe7;" 
d="M155 -35h25c25 0 40 -15 40 -40v-65c0 -25 -15 -40 -40 -40h-70c-25 0 -40 15 -40 40v30c0 5 5 10 10 10h35c5 0 10 -5 10 -10v-15h40v45h-45c-5 0 -10 5 -10 10v70h-40c-25 0 -40 15 -40 40v370c0 25 15 40 40 40h140c25 0 40 -15 40 -40v-130c0 -5 -5 -10 -10 -10h-70
c-5 0 -10 5 -10 10v70c0 5 -5 10 -10 10h-20c-5 0 -10 -5 -10 -10v-250c0 -5 5 -10 10 -10h20c5 0 10 5 10 10v70c0 5 5 10 10 10h70c5 0 10 -5 10 -10v-130c0 -25 -15 -40 -40 -40h-55v-35z" />
    <glyph glyph-name="ccircumflex" unicode="&#x109;" horiz-adv-x="282" 
d="M251 410v-130c0 -5 -5 -10 -10 -10h-70c-5 0 -10 5 -10 10v70c0 5 -5 10 -10 10h-20c-5 0 -10 -5 -10 -10v-250c0 -5 5 -10 10 -10h20c5 0 10 5 10 10v70c0 5 5 10 10 10h70c5 0 10 -5 10 -10v-130c0 -25 -15 -40 -40 -40h-140c-25 0 -40 15 -40 40v370c0 25 15 40 40 40
h140c25 0 40 -15 40 -40zM141 665c10 0 16 -5 20 -10l100 -125s5 -10 -10 -10h-60c-10 0 -16 5 -20 10l-30 40l-30 -40c-4 -5 -10 -10 -20 -10h-60c-15 0 -10 10 -10 10l100 125c4 5 10 10 20 10z" />
    <glyph glyph-name="dcaron" unicode="&#x10f;" horiz-adv-x="340" 
d="M30 40v370c0 25 15 40 40 40h90v240c0 5 5 10 10 10h70c5 0 10 -5 10 -10v-680c0 -5 -5 -10 -10 -10h-170c-25 0 -40 15 -40 40zM160 90v270h-30c-5 0 -10 -5 -10 -10v-250c0 -5 5 -10 10 -10h30zM370 560h-10c-5 0 -10 5 -10 10v40h-50c-5 0 -10 5 -10 10v70
c0 5 5 10 10 10h70c5 0 10 -5 10 -10v-120c0 -5 -5 -10 -10 -10z" />
    <glyph glyph-name="egrave" unicode="&#xe8;" horiz-adv-x="267" 
d="M247 80v-70c0 -5 -5 -10 -10 -10h-170c-25 0 -40 15 -40 40v370c0 25 15 40 40 40h140c25 0 40 -15 40 -40v-190c0 -25 -15 -40 -40 -40h-90v-80c0 -5 5 -10 10 -10h110c5 0 10 -5 10 -10zM117 350v-80h30c5 0 10 5 10 10v70c0 5 -5 10 -10 10h-20c-5 0 -10 -5 -10 -10z
M96 520l-95 85s-5 10 10 10h75c10 0 15 -4 20 -10l70 -85s5 -10 -10 -10h-50c-10 0 -15 5 -20 10z" />
    <glyph glyph-name="eacute" unicode="&#xe9;" horiz-adv-x="272" 
d="M250 80v-70c0 -5 -5 -10 -10 -10h-170c-25 0 -40 15 -40 40v370c0 25 15 40 40 40h140c25 0 40 -15 40 -40v-190c0 -25 -15 -40 -40 -40h-90v-80c0 -5 5 -10 10 -10h110c5 0 10 -5 10 -10zM120 350v-80h30c5 0 10 5 10 10v70c0 5 -5 10 -10 10h-20c-5 0 -10 -5 -10 -10z
M281 605l-95 -85c-5 -5 -10 -10 -20 -10h-50c-15 0 -10 10 -10 10l70 85c5 6 10 10 20 10h75c15 0 10 -10 10 -10z" />
    <glyph glyph-name="ecaron" unicode="&#x11b;" horiz-adv-x="272" 
d="M251 80v-70c0 -5 -5 -10 -10 -10h-170c-25 0 -40 15 -40 40v370c0 25 15 40 40 40h140c25 0 40 -15 40 -40v-190c0 -25 -15 -40 -40 -40h-90v-80c0 -5 5 -10 10 -10h110c5 0 10 -5 10 -10zM121 350v-80h30c5 0 10 5 10 10v70c0 5 -5 10 -10 10h-20c-5 0 -10 -5 -10 -10z
M136 500c-10 0 -16 5 -20 10l-100 125s-5 10 10 10h60c10 0 16 -5 20 -10l30 -40l30 40c4 5 10 10 20 10h60c15 0 10 -10 10 -10l-100 -125c-4 -5 -10 -10 -20 -10z" />
    <glyph glyph-name="ecircumflex" unicode="&#xea;" horiz-adv-x="272" 
d="M251 80v-70c0 -5 -5 -10 -10 -10h-170c-25 0 -40 15 -40 40v370c0 25 15 40 40 40h140c25 0 40 -15 40 -40v-190c0 -25 -15 -40 -40 -40h-90v-80c0 -5 5 -10 10 -10h110c5 0 10 -5 10 -10zM121 350v-80h30c5 0 10 5 10 10v70c0 5 -5 10 -10 10h-20c-5 0 -10 -5 -10 -10z
M141 665c10 0 16 -5 20 -10l100 -125s5 -10 -10 -10h-60c-10 0 -16 5 -20 10l-30 40l-30 -40c-4 -5 -10 -10 -20 -10h-60c-15 0 -10 10 -10 10l100 125c4 5 10 10 20 10z" />
    <glyph glyph-name="edieresis" unicode="&#xeb;" horiz-adv-x="270" 
d="M250 80v-70c0 -5 -5 -10 -10 -10h-170c-25 0 -40 15 -40 40v370c0 25 15 40 40 40h140c25 0 40 -15 40 -40v-190c0 -25 -15 -40 -40 -40h-90v-80c0 -5 5 -10 10 -10h110c5 0 10 -5 10 -10zM120 350v-80h30c5 0 10 5 10 10v70c0 5 -5 10 -10 10h-20c-5 0 -10 -5 -10 -10z
M40 610h70c5 0 10 -5 10 -10v-70c0 -5 -5 -10 -10 -10h-70c-5 0 -10 5 -10 10v70c0 5 5 10 10 10zM170 610h70c5 0 10 -5 10 -10v-70c0 -5 -5 -10 -10 -10h-70c-5 0 -10 5 -10 10v70c0 5 5 10 10 10z" />
    <glyph glyph-name="edotaccent" unicode="&#x117;" horiz-adv-x="270" 
d="M250 80v-70c0 -5 -5 -10 -10 -10h-170c-25 0 -40 15 -40 40v370c0 25 15 40 40 40h140c25 0 40 -15 40 -40v-190c0 -25 -15 -40 -40 -40h-90v-80c0 -5 5 -10 10 -10h110c5 0 10 -5 10 -10zM120 350v-80h30c5 0 10 5 10 10v70c0 5 -5 10 -10 10h-20c-5 0 -10 -5 -10 -10z
M105 610h70c5 0 10 -5 10 -10v-70c0 -5 -5 -10 -10 -10h-70c-5 0 -10 5 -10 10v70c0 5 5 10 10 10z" />
    <glyph glyph-name="emacron" unicode="&#x113;" horiz-adv-x="270" 
d="M250 80v-70c0 -5 -5 -10 -10 -10h-170c-25 0 -40 15 -40 40v370c0 25 15 40 40 40h140c25 0 40 -15 40 -40v-190c0 -25 -15 -40 -40 -40h-90v-80c0 -5 5 -10 10 -10h110c5 0 10 -5 10 -10zM120 350v-80h30c5 0 10 5 10 10v70c0 5 -5 10 -10 10h-20c-5 0 -10 -5 -10 -10z
M230 520h-180c-5 0 -10 5 -10 10v60c0 5 5 10 10 10h180c5 0 10 -5 10 -10v-60c0 -5 -5 -10 -10 -10z" />
    <glyph glyph-name="eogonek" unicode="&#x119;" horiz-adv-x="270" 
d="M250 80v-65c0 -5 -5 -10 -10 -15l-60 -60c-10 -10 -20 -20 -20 -30v-10c0 -5 5 -10 10 -10h50c5 0 10 -5 10 -10v-40c0 -5 -5 -10 -10 -10h-80c-25 0 -40 15 -40 40v40c0 25 10 34 30 50l50 40h-110c-25 0 -40 15 -40 40v370c0 25 15 40 40 40h140c25 0 40 -15 40 -40
v-190c0 -25 -15 -40 -40 -40h-90v-80c0 -5 5 -10 10 -10h110c5 0 10 -5 10 -10zM120 350v-80h30c5 0 10 5 10 10v70c0 5 -5 10 -10 10h-20c-5 0 -10 -5 -10 -10z" />
    <glyph glyph-name="gbreve" unicode="&#x11f;" 
d="M30 40v370c0 25 15 40 40 40h50c30 0 35 -25 35 -25h5v15c0 5 5 10 10 10h70c5 0 10 -5 10 -10v-640c0 -25 -15 -40 -40 -40h-140c-25 0 -40 15 -40 40v130c0 5 5 10 10 10h70c5 0 10 -5 10 -10v-70c0 -5 5 -10 10 -10h20c5 0 10 5 10 10v140h-90c-25 0 -40 15 -40 40z
M160 90v270h-30c-5 0 -10 -5 -10 -10v-250c0 -5 5 -10 10 -10h30zM165 585v25c0 5 5 10 10 10h55c5 0 10 -5 10 -10v-50c0 -25 -15 -40 -40 -40h-120c-25 0 -40 15 -40 40v50c0 5 5 10 10 10h55c5 0 10 -5 10 -10v-25h50z" />
    <glyph glyph-name="kcommaaccent" unicode="&#x137;" 
d="M250 250v-240c0 -5 -5 -10 -10 -10h-70c-5 0 -10 5 -10 10v230c0 5 -5 10 -10 10h-30v-240c0 -5 -5 -10 -10 -10h-70c-5 0 -10 5 -10 10v680c0 5 5 10 10 10h70c5 0 10 -5 10 -10v-350h30c5 0 10 5 10 10v90c0 5 5 10 10 10h70c5 0 10 -5 10 -10v-95
c0 -25 -20 -45 -45 -45v-5c25 0 45 -20 45 -45zM175 -200h-10c-5 0 -10 5 -10 10v40h-50c-5 0 -10 5 -10 10v70c0 5 5 10 10 10h70c5 0 10 -5 10 -10v-120c0 -5 -5 -10 -10 -10z" />
    <glyph glyph-name="gcommaaccent" unicode="&#x123;" 
d="M105 660h10c5 0 10 -5 10 -10v-40h50c5 0 10 -5 10 -10v-70c0 -5 -5 -10 -10 -10h-70c-5 0 -10 5 -10 10v120c0 5 5 10 10 10zM30 40v370c0 25 15 40 40 40h50c30 0 35 -25 35 -25h5v15c0 5 5 10 10 10h70c5 0 10 -5 10 -10v-640c0 -25 -15 -40 -40 -40h-140
c-25 0 -40 15 -40 40v130c0 5 5 10 10 10h70c5 0 10 -5 10 -10v-70c0 -5 5 -10 10 -10h20c5 0 10 5 10 10v140h-90c-25 0 -40 15 -40 40zM160 90v270h-30c-5 0 -10 -5 -10 -10v-250c0 -5 5 -10 10 -10h30z" />
    <glyph glyph-name="lacute" unicode="&#x13a;" horiz-adv-x="187" 
d="M30 40v650c0 5 5 10 10 10h70c5 0 10 -5 10 -10v-590c0 -5 5 -10 10 -10h40c5 0 10 -5 10 -10v-70c0 -5 -5 -10 -10 -10h-100c-25 0 -40 15 -40 40zM216 855l-95 -85c-5 -5 -10 -10 -20 -10h-50c-15 0 -10 10 -10 10l70 85c5 6 10 10 20 10h75c15 0 10 -10 10 -10z" />
    <glyph glyph-name="lcaron" unicode="&#x13e;" horiz-adv-x="210" 
d="M30 40v650c0 5 5 10 10 10h70c5 0 10 -5 10 -10v-590c0 -5 5 -10 10 -10h40c5 0 10 -5 10 -10v-70c0 -5 -5 -10 -10 -10h-100c-25 0 -40 15 -40 40zM240 560h-10c-5 0 -10 5 -10 10v40h-50c-5 0 -10 5 -10 10v70c0 5 5 10 10 10h70c5 0 10 -5 10 -10v-120
c0 -5 -5 -10 -10 -10z" />
    <glyph glyph-name="lcommaaccent" unicode="&#x13c;" horiz-adv-x="180" 
d="M30 40v650c0 5 5 10 10 10h70c5 0 10 -5 10 -10v-590c0 -5 5 -10 10 -10h40c5 0 10 -5 10 -10v-70c0 -5 -5 -10 -10 -10h-100c-25 0 -40 15 -40 40zM140 -200h-10c-5 0 -10 5 -10 10v40h-50c-5 0 -10 5 -10 10v70c0 5 5 10 10 10h70c5 0 10 -5 10 -10v-120
c0 -5 -5 -10 -10 -10z" />
    <glyph glyph-name="Igrave" unicode="&#xcc;" horiz-adv-x="197" 
d="M157 690v-680c0 -5 -5 -10 -10 -10h-90c-5 0 -10 5 -10 10v680c0 5 5 10 10 10h90c5 0 10 -5 10 -10zM56 770l-95 85s-5 10 10 10h75c10 0 15 -4 20 -10l70 -85s5 -10 -10 -10h-50c-10 0 -15 5 -20 10z" />
    <glyph glyph-name="Iacute" unicode="&#xcd;" horiz-adv-x="197" 
d="M150 690v-680c0 -5 -5 -10 -10 -10h-90c-5 0 -10 5 -10 10v680c0 5 5 10 10 10h90c5 0 10 -5 10 -10zM236 855l-95 -85c-5 -5 -10 -10 -20 -10h-50c-15 0 -10 10 -10 10l70 85c5 6 10 10 20 10h75c15 0 10 -10 10 -10z" />
    <glyph glyph-name="Icircumflex" unicode="&#xce;" horiz-adv-x="202" 
d="M156 690v-680c0 -5 -5 -10 -10 -10h-90c-5 0 -10 5 -10 10v680c0 5 5 10 10 10h90c5 0 10 -5 10 -10zM101 905c10 0 16 -5 20 -10l100 -125s5 -10 -10 -10h-60c-10 0 -16 5 -20 10l-30 40l-30 -40c-4 -5 -10 -10 -20 -10h-60c-15 0 -10 10 -10 10l100 125
c4 5 10 10 20 10z" />
    <glyph glyph-name="Idieresis" unicode="&#xcf;" horiz-adv-x="190" 
d="M150 690v-680c0 -5 -5 -10 -10 -10h-90c-5 0 -10 5 -10 10v680c0 5 5 10 10 10h90c5 0 10 -5 10 -10zM-5 860h70c5 0 10 -5 10 -10v-70c0 -5 -5 -10 -10 -10h-70c-5 0 -10 5 -10 10v70c0 5 5 10 10 10zM125 860h70c5 0 10 -5 10 -10v-70c0 -5 -5 -10 -10 -10h-70
c-5 0 -10 5 -10 10v70c0 5 5 10 10 10z" />
    <glyph glyph-name="Idotaccent" unicode="&#x130;" horiz-adv-x="190" 
d="M150 690v-680c0 -5 -5 -10 -10 -10h-90c-5 0 -10 5 -10 10v680c0 5 5 10 10 10h90c5 0 10 -5 10 -10zM60 860h70c5 0 10 -5 10 -10v-70c0 -5 -5 -10 -10 -10h-70c-5 0 -10 5 -10 10v70c0 5 5 10 10 10z" />
    <glyph glyph-name="Imacron" unicode="&#x12a;" horiz-adv-x="190" 
d="M150 690v-680c0 -5 -5 -10 -10 -10h-90c-5 0 -10 5 -10 10v680c0 5 5 10 10 10h90c5 0 10 -5 10 -10zM185 770h-180c-5 0 -10 5 -10 10v60c0 5 5 10 10 10h180c5 0 10 -5 10 -10v-60c0 -5 -5 -10 -10 -10z" />
    <glyph glyph-name="Iogonek" unicode="&#x12e;" horiz-adv-x="190" 
d="M150 690v-675c0 -5 -5 -10 -10 -15l-60 -60c-10 -10 -20 -20 -20 -30v-10c0 -5 5 -10 10 -10h50c5 0 10 -5 10 -10v-40c0 -5 -5 -10 -10 -10h-80c-25 0 -40 15 -40 40v40c0 25 10 34 30 50l50 40h-30c-5 0 -10 5 -10 10v680c0 5 5 10 10 10h90c5 0 10 -5 10 -10z" />
    <glyph glyph-name="Nacute" unicode="&#x143;" horiz-adv-x="337" 
d="M190 10v210l-40 100v-310c0 -5 -5 -10 -10 -10h-90c-5 0 -10 5 -10 10v680c0 5 5 10 10 10h90c5 0 10 -5 10 -10v-170l40 -100v270c0 5 5 10 10 10h90c5 0 10 -5 10 -10v-680c0 -5 -5 -10 -10 -10h-90c-5 0 -10 5 -10 10zM306 855l-95 -85c-5 -5 -10 -10 -20 -10h-50
c-15 0 -10 10 -10 10l70 85c5 6 10 10 20 10h75c15 0 10 -10 10 -10z" />
    <glyph glyph-name="Ncaron" unicode="&#x147;" horiz-adv-x="340" 
d="M190 10v210l-40 100v-310c0 -5 -5 -10 -10 -10h-90c-5 0 -10 5 -10 10v680c0 5 5 10 10 10h90c5 0 10 -5 10 -10v-170l40 -100v270c0 5 5 10 10 10h90c5 0 10 -5 10 -10v-680c0 -5 -5 -10 -10 -10h-90c-5 0 -10 5 -10 10zM170 750c-10 0 -16 5 -20 10l-100 125
s-5 10 10 10h60c10 0 16 -5 20 -10l30 -40l30 40c4 5 10 10 20 10h60c15 0 10 -10 10 -10l-100 -125c-4 -5 -10 -10 -20 -10z" />
    <glyph glyph-name="Ncommaaccent" unicode="&#x145;" horiz-adv-x="340" 
d="M190 10v210l-40 100v-310c0 -5 -5 -10 -10 -10h-90c-5 0 -10 5 -10 10v680c0 5 5 10 10 10h90c5 0 10 -5 10 -10v-170l40 -100v270c0 5 5 10 10 10h90c5 0 10 -5 10 -10v-680c0 -5 -5 -10 -10 -10h-90c-5 0 -10 5 -10 10zM205 -200h-10c-5 0 -10 5 -10 10v40h-50
c-5 0 -10 5 -10 10v70c0 5 5 10 10 10h70c5 0 10 -5 10 -10v-120c0 -5 -5 -10 -10 -10z" />
    <glyph glyph-name="Ntilde" unicode="&#xd1;" horiz-adv-x="340" 
d="M190 10v210l-40 100v-310c0 -5 -5 -10 -10 -10h-90c-5 0 -10 5 -10 10v680c0 5 5 10 10 10h90c5 0 10 -5 10 -10v-170l40 -100v270c0 5 5 10 10 10h90c5 0 10 -5 10 -10v-680c0 -5 -5 -10 -10 -10h-90c-5 0 -10 5 -10 10zM65 770v50c0 25 15 40 40 40h80c5 0 10 5 10 10
v10c0 5 5 10 10 10h60c5 0 10 -5 10 -10v-50c0 -25 -15 -40 -40 -40h-80c-5 0 -10 -5 -10 -10v-10c0 -5 -5 -10 -10 -10h-60c-5 0 -10 5 -10 10z" />
    <glyph glyph-name="Ograve" unicode="&#xd2;" horiz-adv-x="342" 
d="M92 700h160c30 0 50 -20 50 -50v-600c0 -30 -20 -50 -50 -50h-160c-30 0 -50 20 -50 50v600c0 30 20 50 50 50zM192 110v480c0 5 -5 10 -10 10h-20c-5 0 -10 -5 -10 -10v-480c0 -5 5 -10 10 -10h20c5 0 10 5 10 10zM126 770l-95 85s-5 10 10 10h75c10 0 15 -4 20 -10
l70 -85s5 -10 -10 -10h-50c-10 0 -15 5 -20 10z" />
    <glyph glyph-name="Oacute" unicode="&#xd3;" horiz-adv-x="340" 
d="M90 700h160c30 0 50 -20 50 -50v-600c0 -30 -20 -50 -50 -50h-160c-30 0 -50 20 -50 50v600c0 30 20 50 50 50zM190 110v480c0 5 -5 10 -10 10h-20c-5 0 -10 -5 -10 -10v-480c0 -5 5 -10 10 -10h20c5 0 10 5 10 10zM309 855l-95 -85c-5 -5 -10 -10 -20 -10h-50
c-15 0 -10 10 -10 10l70 85c5 6 10 10 20 10h75c15 0 10 -10 10 -10z" />
    <glyph glyph-name="Ocircumflex" unicode="&#xd4;" horiz-adv-x="340" 
d="M90 700h160c30 0 50 -20 50 -50v-600c0 -30 -20 -50 -50 -50h-160c-30 0 -50 20 -50 50v600c0 30 20 50 50 50zM190 110v480c0 5 -5 10 -10 10h-20c-5 0 -10 -5 -10 -10v-480c0 -5 5 -10 10 -10h20c5 0 10 5 10 10zM170 905c10 0 16 -5 20 -10l100 -125s5 -10 -10 -10
h-60c-10 0 -16 5 -20 10l-30 40l-30 -40c-4 -5 -10 -10 -20 -10h-60c-15 0 -10 10 -10 10l100 125c4 5 10 10 20 10z" />
    <glyph glyph-name="Odieresis" unicode="&#xd6;" horiz-adv-x="340" 
d="M90 700h160c30 0 50 -20 50 -50v-600c0 -30 -20 -50 -50 -50h-160c-30 0 -50 20 -50 50v600c0 30 20 50 50 50zM190 110v480c0 5 -5 10 -10 10h-20c-5 0 -10 -5 -10 -10v-480c0 -5 5 -10 10 -10h20c5 0 10 5 10 10zM70 860h70c5 0 10 -5 10 -10v-70c0 -5 -5 -10 -10 -10
h-70c-5 0 -10 5 -10 10v70c0 5 5 10 10 10zM200 860h70c5 0 10 -5 10 -10v-70c0 -5 -5 -10 -10 -10h-70c-5 0 -10 5 -10 10v70c0 5 5 10 10 10z" />
    <glyph glyph-name="Ohungarumlaut" unicode="&#x150;" horiz-adv-x="339" 
d="M90 700h160c30 0 50 -20 50 -50v-600c0 -30 -20 -50 -50 -50h-160c-30 0 -50 20 -50 50v600c0 30 20 50 50 50zM190 110v480c0 5 -5 10 -10 10h-20c-5 0 -10 -5 -10 -10v-480c0 -5 5 -10 10 -10h20c5 0 10 5 10 10zM248 855l-95 -85c-5 -5 -10 -10 -20 -10h-30
c-15 0 -10 10 -10 10l70 85c5 6 10 10 20 10h55c15 0 10 -10 10 -10zM358 855l-95 -85c-5 -5 -10 -10 -20 -10h-30c-15 0 -10 10 -10 10l70 85c5 6 10 10 20 10h55c15 0 10 -10 10 -10z" />
    <glyph glyph-name="Omacron" unicode="&#x14c;" horiz-adv-x="340" 
d="M90 700h160c30 0 50 -20 50 -50v-600c0 -30 -20 -50 -50 -50h-160c-30 0 -50 20 -50 50v600c0 30 20 50 50 50zM190 110v480c0 5 -5 10 -10 10h-20c-5 0 -10 -5 -10 -10v-480c0 -5 5 -10 10 -10h20c5 0 10 5 10 10zM260 770h-180c-5 0 -10 5 -10 10v60c0 5 5 10 10 10
h180c5 0 10 -5 10 -10v-60c0 -5 -5 -10 -10 -10z" />
    <glyph glyph-name="Otilde" unicode="&#xd5;" horiz-adv-x="340" 
d="M90 700h160c30 0 50 -20 50 -50v-600c0 -30 -20 -50 -50 -50h-160c-30 0 -50 20 -50 50v600c0 30 20 50 50 50zM190 110v480c0 5 -5 10 -10 10h-20c-5 0 -10 -5 -10 -10v-480c0 -5 5 -10 10 -10h20c5 0 10 5 10 10zM65 770v50c0 25 15 40 40 40h80c5 0 10 5 10 10v10
c0 5 5 10 10 10h60c5 0 10 -5 10 -10v-50c0 -25 -15 -40 -40 -40h-80c-5 0 -10 -5 -10 -10v-10c0 -5 -5 -10 -10 -10h-60c-5 0 -10 5 -10 10z" />
    <glyph glyph-name="Racute" unicode="&#x154;" horiz-adv-x="337" 
d="M190 420v170c0 5 -5 10 -10 10h-30v-190h30c5 0 10 5 10 10zM300 310v-300c0 -5 -5 -10 -10 -10h-90c-5 0 -10 5 -10 10v290c0 5 -5 10 -10 10h-30v-300c0 -5 -5 -10 -10 -10h-90c-5 0 -10 5 -10 10v680c0 5 5 10 10 10h200c30 0 50 -20 50 -50v-235
c0 -30 -20 -50 -50 -50v-5c30 0 50 -20 50 -50zM306 855l-95 -85c-5 -5 -10 -10 -20 -10h-50c-15 0 -10 10 -10 10l70 85c5 6 10 10 20 10h75c15 0 10 -10 10 -10z" />
    <glyph glyph-name="Rcaron" unicode="&#x158;" horiz-adv-x="340" 
d="M190 420v170c0 5 -5 10 -10 10h-30v-190h30c5 0 10 5 10 10zM300 310v-300c0 -5 -5 -10 -10 -10h-90c-5 0 -10 5 -10 10v290c0 5 -5 10 -10 10h-30v-300c0 -5 -5 -10 -10 -10h-90c-5 0 -10 5 -10 10v680c0 5 5 10 10 10h200c30 0 50 -20 50 -50v-235
c0 -30 -20 -50 -50 -50v-5c30 0 50 -20 50 -50zM170 750c-10 0 -16 5 -20 10l-100 125s-5 10 10 10h60c10 0 16 -5 20 -10l30 -40l30 40c4 5 10 10 20 10h60c15 0 10 -10 10 -10l-100 -125c-4 -5 -10 -10 -20 -10z" />
    <glyph glyph-name="Rcommaaccent" unicode="&#x156;" horiz-adv-x="340" 
d="M190 420v170c0 5 -5 10 -10 10h-30v-190h30c5 0 10 5 10 10zM300 310v-300c0 -5 -5 -10 -10 -10h-90c-5 0 -10 5 -10 10v290c0 5 -5 10 -10 10h-30v-300c0 -5 -5 -10 -10 -10h-90c-5 0 -10 5 -10 10v680c0 5 5 10 10 10h200c30 0 50 -20 50 -50v-235
c0 -30 -20 -50 -50 -50v-5c30 0 50 -20 50 -50zM205 -200h-10c-5 0 -10 5 -10 10v40h-50c-5 0 -10 5 -10 10v70c0 5 5 10 10 10h70c5 0 10 -5 10 -10v-120c0 -5 -5 -10 -10 -10z" />
    <glyph glyph-name="Sacute" unicode="&#x15a;" horiz-adv-x="317" 
d="M30 460v190c0 30 20 50 50 50h160c30 0 50 -20 50 -50v-190c0 -5 -5 -10 -10 -10h-90c-5 0 -10 5 -10 10v130c0 5 -5 10 -10 10h-20c-5 0 -10 -5 -10 -10v-115l135 -175c7 -10 15 -20 15 -40v-210c0 -30 -20 -50 -50 -50h-160c-30 0 -50 20 -50 50v190c0 5 5 10 10 10h90
c5 0 10 -5 10 -10v-130c0 -5 5 -10 10 -10h20c5 0 10 5 10 10v135l-135 175c-7 10 -15 20 -15 40zM296 855l-95 -85c-5 -5 -10 -10 -20 -10h-50c-15 0 -10 10 -10 10l70 85c5 6 10 10 20 10h75c15 0 10 -10 10 -10z" />
    <glyph glyph-name="Scaron" unicode="&#x160;" horiz-adv-x="320" 
d="M30 460v190c0 30 20 50 50 50h160c30 0 50 -20 50 -50v-190c0 -5 -5 -10 -10 -10h-90c-5 0 -10 5 -10 10v130c0 5 -5 10 -10 10h-20c-5 0 -10 -5 -10 -10v-115l135 -175c7 -10 15 -20 15 -40v-210c0 -30 -20 -50 -50 -50h-160c-30 0 -50 20 -50 50v190c0 5 5 10 10 10h90
c5 0 10 -5 10 -10v-130c0 -5 5 -10 10 -10h20c5 0 10 5 10 10v135l-135 175c-7 10 -15 20 -15 40zM160 750c-10 0 -16 5 -20 10l-100 125s-5 10 10 10h60c10 0 16 -5 20 -10l30 -40l30 40c4 5 10 10 20 10h60c15 0 10 -10 10 -10l-100 -125c-4 -5 -10 -10 -20 -10z" />
    <glyph glyph-name="Scedilla" unicode="&#x15e;" horiz-adv-x="320" 
d="M180 -35h25c25 0 40 -15 40 -40v-65c0 -25 -15 -40 -40 -40h-70c-25 0 -40 15 -40 40v30c0 5 5 10 10 10h35c5 0 10 -5 10 -10v-15h40v45h-45c-5 0 -10 5 -10 10v70h-55c-30 0 -50 20 -50 50v190c0 5 5 10 10 10h90c5 0 10 -5 10 -10v-130c0 -5 5 -10 10 -10h20
c5 0 10 5 10 10v135l-135 175c-7 10 -15 20 -15 40v190c0 30 20 50 50 50h160c30 0 50 -20 50 -50v-190c0 -5 -5 -10 -10 -10h-90c-5 0 -10 5 -10 10v130c0 5 -5 10 -10 10h-20c-5 0 -10 -5 -10 -10v-115l135 -175c7 -10 15 -20 15 -40v-210c0 -30 -20 -50 -50 -50h-60v-35z
" />
    <glyph glyph-name="Scommaaccent" unicode="&#x218;" horiz-adv-x="320" 
d="M30 460v190c0 30 20 50 50 50h160c30 0 50 -20 50 -50v-190c0 -5 -5 -10 -10 -10h-90c-5 0 -10 5 -10 10v130c0 5 -5 10 -10 10h-20c-5 0 -10 -5 -10 -10v-115l135 -175c7 -10 15 -20 15 -40v-210c0 -30 -20 -50 -50 -50h-160c-30 0 -50 20 -50 50v190c0 5 5 10 10 10h90
c5 0 10 -5 10 -10v-130c0 -5 5 -10 10 -10h20c5 0 10 5 10 10v135l-135 175c-7 10 -15 20 -15 40zM195 -200h-10c-5 0 -10 5 -10 10v40h-50c-5 0 -10 5 -10 10v70c0 5 5 10 10 10h70c5 0 10 -5 10 -10v-120c0 -5 -5 -10 -10 -10z" />
    <glyph glyph-name="Tcaron" unicode="&#x164;" horiz-adv-x="270" 
d="M260 690v-80c0 -5 -5 -10 -10 -10h-60v-590c0 -5 -5 -10 -10 -10h-90c-5 0 -10 5 -10 10v590h-60c-5 0 -10 5 -10 10v80c0 5 5 10 10 10h230c5 0 10 -5 10 -10zM135 750c-10 0 -16 5 -20 10l-100 125s-5 10 10 10h60c10 0 16 -5 20 -10l30 -40l30 40c4 5 10 10 20 10h60
c15 0 10 -10 10 -10l-100 -125c-4 -5 -10 -10 -20 -10z" />
    <glyph glyph-name="Tcommaaccent" unicode="&#x162;" horiz-adv-x="270" 
d="M260 690v-80c0 -5 -5 -10 -10 -10h-60v-590c0 -5 -5 -10 -10 -10h-90c-5 0 -10 5 -10 10v590h-60c-5 0 -10 5 -10 10v80c0 5 5 10 10 10h230c5 0 10 -5 10 -10zM170 -200h-10c-5 0 -10 5 -10 10v40h-50c-5 0 -10 5 -10 10v70c0 5 5 10 10 10h70c5 0 10 -5 10 -10v-120
c0 -5 -5 -10 -10 -10z" />
    <glyph glyph-name="Yacute" unicode="&#xdd;" horiz-adv-x="320" 
d="M160 470l55 220c2 5 5 10 10 10h85c5 0 10 -5 10 -10l-105 -390v-290c0 -5 -5 -10 -10 -10h-90c-5 0 -10 5 -10 10v290l-105 390c0 5 5 10 10 10h85c5 0 8 -5 10 -10zM296 855l-95 -85c-5 -5 -10 -10 -20 -10h-50c-15 0 -10 10 -10 10l70 85c5 6 10 10 20 10h75
c15 0 10 -10 10 -10z" />
    <glyph glyph-name="Ydieresis" unicode="&#x178;" horiz-adv-x="320" 
d="M160 470l55 220c2 5 5 10 10 10h85c5 0 10 -5 10 -10l-105 -390v-290c0 -5 -5 -10 -10 -10h-90c-5 0 -10 5 -10 10v290l-105 390c0 5 5 10 10 10h85c5 0 8 -5 10 -10zM60 870h70c5 0 10 -5 10 -10v-70c0 -5 -5 -10 -10 -10h-70c-5 0 -10 5 -10 10v70c0 5 5 10 10 10z
M190 870h70c5 0 10 -5 10 -10v-70c0 -5 -5 -10 -10 -10h-70c-5 0 -10 5 -10 10v70c0 5 5 10 10 10z" />
    <glyph glyph-name="dotlessi" unicode="&#x131;" horiz-adv-x="150" 
d="M40 450h70c5 0 10 -5 10 -10v-430c0 -5 -5 -10 -10 -10h-70c-5 0 -10 5 -10 10v430c0 5 5 10 10 10z" />
    <glyph glyph-name="igrave" unicode="&#xec;" horiz-adv-x="147" 
d="M37 450h70c5 0 10 -5 10 -10v-430c0 -5 -5 -10 -10 -10h-70c-5 0 -10 5 -10 10v430c0 5 5 10 10 10zM26 520l-95 85s-5 10 10 10h75c10 0 15 -4 20 -10l70 -85s5 -10 -10 -10h-50c-10 0 -15 5 -20 10z" />
    <glyph glyph-name="iacute" unicode="&#xed;" horiz-adv-x="147" 
d="M40 450h70c5 0 10 -5 10 -10v-430c0 -5 -5 -10 -10 -10h-70c-5 0 -10 5 -10 10v430c0 5 5 10 10 10zM216 605l-95 -85c-5 -5 -10 -10 -20 -10h-50c-15 0 -10 10 -10 10l70 85c5 6 10 10 20 10h75c15 0 10 -10 10 -10z" />
    <glyph glyph-name="icircumflex" unicode="&#xee;" horiz-adv-x="162" 
d="M46 450h70c5 0 10 -5 10 -10v-430c0 -5 -5 -10 -10 -10h-70c-5 0 -10 5 -10 10v430c0 5 5 10 10 10zM81 655c10 0 16 -5 20 -10l100 -125s5 -10 -10 -10h-60c-10 0 -16 5 -20 10l-30 40l-30 -40c-4 -5 -10 -10 -20 -10h-60c-15 0 -10 10 -10 10l100 125c4 5 10 10 20 10z
" />
    <glyph glyph-name="idieresis" unicode="&#xef;" horiz-adv-x="150" 
d="M40 450h70c5 0 10 -5 10 -10v-430c0 -5 -5 -10 -10 -10h-70c-5 0 -10 5 -10 10v430c0 5 5 10 10 10zM-25 610h70c5 0 10 -5 10 -10v-70c0 -5 -5 -10 -10 -10h-70c-5 0 -10 5 -10 10v70c0 5 5 10 10 10zM105 610h70c5 0 10 -5 10 -10v-70c0 -5 -5 -10 -10 -10h-70
c-5 0 -10 5 -10 10v70c0 5 5 10 10 10z" />
    <glyph glyph-name="imacron" unicode="&#x12b;" horiz-adv-x="150" 
d="M40 450h70c5 0 10 -5 10 -10v-430c0 -5 -5 -10 -10 -10h-70c-5 0 -10 5 -10 10v430c0 5 5 10 10 10zM165 520h-180c-5 0 -10 5 -10 10v60c0 5 5 10 10 10h180c5 0 10 -5 10 -10v-60c0 -5 -5 -10 -10 -10z" />
    <glyph glyph-name="iogonek" unicode="&#x12f;" horiz-adv-x="150" 
d="M40 450h70c5 0 10 -5 10 -10v-425c0 -5 -5 -10 -10 -15l-60 -60c-10 -10 -20 -20 -20 -30v-10c0 -5 5 -10 10 -10h50c5 0 10 -5 10 -10v-40c0 -5 -5 -10 -10 -10h-80c-25 0 -40 15 -40 40v40c0 25 10 34 30 50l50 40h-10c-5 0 -10 5 -10 10v430c0 5 5 10 10 10zM40 610
h70c5 0 10 -5 10 -10v-70c0 -5 -5 -10 -10 -10h-70c-5 0 -10 5 -10 10v70c0 5 5 10 10 10z" />
    <glyph glyph-name="nacute" unicode="&#x144;" horiz-adv-x="277" 
d="M250 410v-400c0 -5 -5 -10 -10 -10h-70c-5 0 -10 5 -10 10v340c0 5 -5 10 -10 10h-30v-350c0 -5 -5 -10 -10 -10h-70c-5 0 -10 5 -10 10v430c0 5 5 10 10 10h70c5 0 10 -5 10 -10v-15h5s5 25 35 25h50c25 0 40 -15 40 -40zM286 605l-95 -85c-5 -5 -10 -10 -20 -10h-50
c-15 0 -10 10 -10 10l70 85c5 6 10 10 20 10h75c15 0 10 -10 10 -10z" />
    <glyph glyph-name="ncaron" unicode="&#x148;" horiz-adv-x="282" 
d="M251 410v-400c0 -5 -5 -10 -10 -10h-70c-5 0 -10 5 -10 10v340c0 5 -5 10 -10 10h-30v-350c0 -5 -5 -10 -10 -10h-70c-5 0 -10 5 -10 10v430c0 5 5 10 10 10h70c5 0 10 -5 10 -10v-15h5s5 25 35 25h50c25 0 40 -15 40 -40zM141 500c-10 0 -16 5 -20 10l-100 125
s-5 10 10 10h60c10 0 16 -5 20 -10l30 -40l30 40c4 5 10 10 20 10h60c15 0 10 -10 10 -10l-100 -125c-4 -5 -10 -10 -20 -10z" />
    <glyph glyph-name="ncommaaccent" unicode="&#x146;" 
d="M250 410v-400c0 -5 -5 -10 -10 -10h-70c-5 0 -10 5 -10 10v340c0 5 -5 10 -10 10h-30v-350c0 -5 -5 -10 -10 -10h-70c-5 0 -10 5 -10 10v430c0 5 5 10 10 10h70c5 0 10 -5 10 -10v-15h5s5 25 35 25h50c25 0 40 -15 40 -40zM175 -200h-10c-5 0 -10 5 -10 10v40h-50
c-5 0 -10 5 -10 10v70c0 5 5 10 10 10h70c5 0 10 -5 10 -10v-120c0 -5 -5 -10 -10 -10z" />
    <glyph glyph-name="ntilde" unicode="&#xf1;" 
d="M250 410v-400c0 -5 -5 -10 -10 -10h-70c-5 0 -10 5 -10 10v340c0 5 -5 10 -10 10h-30v-350c0 -5 -5 -10 -10 -10h-70c-5 0 -10 5 -10 10v430c0 5 5 10 10 10h70c5 0 10 -5 10 -10v-15h5s5 25 35 25h50c25 0 40 -15 40 -40zM35 520v50c0 25 15 40 40 40h80c5 0 10 5 10 10
v10c0 5 5 10 10 10h60c5 0 10 -5 10 -10v-50c0 -25 -15 -40 -40 -40h-80c-5 0 -10 -5 -10 -10v-10c0 -5 -5 -10 -10 -10h-60c-5 0 -10 5 -10 10z" />
    <glyph glyph-name="ograve" unicode="&#xf2;" horiz-adv-x="277" 
d="M247 410v-370c0 -25 -15 -40 -40 -40h-140c-25 0 -40 15 -40 40v370c0 25 15 40 40 40h140c25 0 40 -15 40 -40zM147 360h-20c-5 0 -10 -5 -10 -10v-250c0 -5 5 -10 10 -10h20c5 0 10 5 10 10v250c0 5 -5 10 -10 10zM96 520l-95 85s-5 10 10 10h75c10 0 15 -4 20 -10
l70 -85s5 -10 -10 -10h-50c-10 0 -15 5 -20 10z" />
    <glyph glyph-name="oacute" unicode="&#xf3;" 
d="M250 410v-370c0 -25 -15 -40 -40 -40h-140c-25 0 -40 15 -40 40v370c0 25 15 40 40 40h140c25 0 40 -15 40 -40zM150 360h-20c-5 0 -10 -5 -10 -10v-250c0 -5 5 -10 10 -10h20c5 0 10 5 10 10v250c0 5 -5 10 -10 10zM279 605l-95 -85c-5 -5 -10 -10 -20 -10h-50
c-15 0 -10 10 -10 10l70 85c5 6 10 10 20 10h75c15 0 10 -10 10 -10z" />
    <glyph glyph-name="ocircumflex" unicode="&#xf4;" horiz-adv-x="282" 
d="M251 410v-370c0 -25 -15 -40 -40 -40h-140c-25 0 -40 15 -40 40v370c0 25 15 40 40 40h140c25 0 40 -15 40 -40zM151 360h-20c-5 0 -10 -5 -10 -10v-250c0 -5 5 -10 10 -10h20c5 0 10 5 10 10v250c0 5 -5 10 -10 10zM141 665c10 0 16 -5 20 -10l100 -125s5 -10 -10 -10
h-60c-10 0 -16 5 -20 10l-30 40l-30 -40c-4 -5 -10 -10 -20 -10h-60c-15 0 -10 10 -10 10l100 125c4 5 10 10 20 10z" />
    <glyph glyph-name="odieresis" unicode="&#xf6;" 
d="M250 410v-370c0 -25 -15 -40 -40 -40h-140c-25 0 -40 15 -40 40v370c0 25 15 40 40 40h140c25 0 40 -15 40 -40zM150 360h-20c-5 0 -10 -5 -10 -10v-250c0 -5 5 -10 10 -10h20c5 0 10 5 10 10v250c0 5 -5 10 -10 10zM40 610h70c5 0 10 -5 10 -10v-70c0 -5 -5 -10 -10 -10
h-70c-5 0 -10 5 -10 10v70c0 5 5 10 10 10zM170 610h70c5 0 10 -5 10 -10v-70c0 -5 -5 -10 -10 -10h-70c-5 0 -10 5 -10 10v70c0 5 5 10 10 10z" />
    <glyph glyph-name="ohungarumlaut" unicode="&#x151;" horiz-adv-x="286" 
d="M250 410v-370c0 -25 -15 -40 -40 -40h-140c-25 0 -40 15 -40 40v370c0 25 15 40 40 40h140c25 0 40 -15 40 -40zM150 360h-20c-5 0 -10 -5 -10 -10v-250c0 -5 5 -10 10 -10h20c5 0 10 5 10 10v250c0 5 -5 10 -10 10zM215 605l-95 -85c-5 -5 -10 -10 -20 -10h-30
c-15 0 -10 10 -10 10l70 85c5 6 10 10 20 10h55c15 0 10 -10 10 -10zM325 605l-95 -85c-5 -5 -10 -10 -20 -10h-30c-15 0 -10 10 -10 10l70 85c5 6 10 10 20 10h55c15 0 10 -10 10 -10z" />
    <glyph glyph-name="omacron" unicode="&#x14d;" 
d="M250 410v-370c0 -25 -15 -40 -40 -40h-140c-25 0 -40 15 -40 40v370c0 25 15 40 40 40h140c25 0 40 -15 40 -40zM150 360h-20c-5 0 -10 -5 -10 -10v-250c0 -5 5 -10 10 -10h20c5 0 10 5 10 10v250c0 5 -5 10 -10 10zM230 520h-180c-5 0 -10 5 -10 10v60c0 5 5 10 10 10
h180c5 0 10 -5 10 -10v-60c0 -5 -5 -10 -10 -10z" />
    <glyph glyph-name="otilde" unicode="&#xf5;" 
d="M250 410v-370c0 -25 -15 -40 -40 -40h-140c-25 0 -40 15 -40 40v370c0 25 15 40 40 40h140c25 0 40 -15 40 -40zM150 360h-20c-5 0 -10 -5 -10 -10v-250c0 -5 5 -10 10 -10h20c5 0 10 5 10 10v250c0 5 -5 10 -10 10zM35 510v50c0 25 15 40 40 40h80c5 0 10 5 10 10v10
c0 5 5 10 10 10h60c5 0 10 -5 10 -10v-50c0 -25 -15 -40 -40 -40h-80c-5 0 -10 -5 -10 -10v-10c0 -5 -5 -10 -10 -10h-60c-5 0 -10 5 -10 10z" />
    <glyph glyph-name="racute" unicode="&#x155;" horiz-adv-x="247" 
d="M250 410v-70c0 -5 -5 -10 -10 -10h-70c-5 0 -10 5 -10 10v10c0 5 -5 10 -10 10h-30v-350c0 -5 -5 -10 -10 -10h-70c-5 0 -10 5 -10 10v430c0 5 5 10 10 10h70c5 0 10 -5 10 -10v-15h5s5 25 35 25h50c25 0 40 -15 40 -40zM276 605l-95 -85c-5 -5 -10 -10 -20 -10h-50
c-15 0 -10 10 -10 10l70 85c5 6 10 10 20 10h75c15 0 10 -10 10 -10z" />
    <glyph glyph-name="rcaron" unicode="&#x159;" horiz-adv-x="257" 
d="M251 410v-70c0 -5 -5 -10 -10 -10h-70c-5 0 -10 5 -10 10v10c0 5 -5 10 -10 10h-30v-350c0 -5 -5 -10 -10 -10h-70c-5 0 -10 5 -10 10v430c0 5 5 10 10 10h70c5 0 10 -5 10 -10v-15h5s5 25 35 25h50c25 0 40 -15 40 -40zM136 500c-10 0 -16 5 -20 10l-100 125
s-5 10 10 10h60c10 0 16 -5 20 -10l30 -40l30 40c4 5 10 10 20 10h60c15 0 10 -10 10 -10l-100 -125c-4 -5 -10 -10 -20 -10z" />
    <glyph glyph-name="rcommaaccent" unicode="&#x157;" horiz-adv-x="250" 
d="M250 410v-70c0 -5 -5 -10 -10 -10h-70c-5 0 -10 5 -10 10v10c0 5 -5 10 -10 10h-30v-350c0 -5 -5 -10 -10 -10h-70c-5 0 -10 5 -10 10v430c0 5 5 10 10 10h70c5 0 10 -5 10 -10v-15h5s5 25 35 25h50c25 0 40 -15 40 -40zM110 -200h-10c-5 0 -10 5 -10 10v40h-50
c-5 0 -10 5 -10 10v70c0 5 5 10 10 10h70c5 0 10 -5 10 -10v-120c0 -5 -5 -10 -10 -10z" />
    <glyph glyph-name="sacute" unicode="&#x15b;" horiz-adv-x="267" 
d="M240 140v-100c0 -25 -15 -40 -40 -40h-140c-25 0 -40 15 -40 40v110c0 5 5 10 10 10h70c5 0 10 -5 10 -10v-50c0 -5 5 -10 10 -10h20c5 0 10 5 10 10v30l-115 150c-7 10 -15 20 -15 40v90c0 25 15 40 40 40h140c25 0 40 -15 40 -40v-110c0 -5 -5 -10 -10 -10h-70
c-5 0 -10 5 -10 10v50c0 5 -5 10 -10 10h-20c-5 0 -10 -5 -10 -10v-20l115 -150c7 -10 15 -20 15 -40zM266 605l-95 -85c-5 -5 -10 -10 -20 -10h-50c-15 0 -10 10 -10 10l70 85c5 6 10 10 20 10h75c15 0 10 -10 10 -10z" />
    <glyph glyph-name="scaron" unicode="&#x161;" horiz-adv-x="262" 
d="M241 140v-100c0 -25 -15 -40 -40 -40h-140c-25 0 -40 15 -40 40v110c0 5 5 10 10 10h70c5 0 10 -5 10 -10v-50c0 -5 5 -10 10 -10h20c5 0 10 5 10 10v30l-115 150c-7 10 -15 20 -15 40v90c0 25 15 40 40 40h140c25 0 40 -15 40 -40v-110c0 -5 -5 -10 -10 -10h-70
c-5 0 -10 5 -10 10v50c0 5 -5 10 -10 10h-20c-5 0 -10 -5 -10 -10v-20l115 -150c7 -10 15 -20 15 -40zM131 500c-10 0 -16 5 -20 10l-100 125s-5 10 10 10h60c10 0 16 -5 20 -10l30 -40l30 40c4 5 10 10 20 10h60c15 0 10 -10 10 -10l-100 -125c-4 -5 -10 -10 -20 -10z" />
    <glyph glyph-name="scedilla" unicode="&#x15f;" horiz-adv-x="260" 
d="M145 -35h25c25 0 40 -15 40 -40v-65c0 -25 -15 -40 -40 -40h-70c-25 0 -40 15 -40 40v30c0 5 5 10 10 10h35c5 0 10 -5 10 -10v-15h40v45h-45c-5 0 -10 5 -10 10v70h-40c-25 0 -40 15 -40 40v110c0 5 5 10 10 10h70c5 0 10 -5 10 -10v-50c0 -5 5 -10 10 -10h20
c5 0 10 5 10 10v30l-115 150c-7 10 -15 20 -15 40v90c0 25 15 40 40 40h140c25 0 40 -15 40 -40v-110c0 -5 -5 -10 -10 -10h-70c-5 0 -10 5 -10 10v50c0 5 -5 10 -10 10h-20c-5 0 -10 -5 -10 -10v-20l115 -150c7 -10 15 -20 15 -40v-100c0 -25 -15 -40 -40 -40h-55v-35z" />
    <glyph glyph-name="scommaaccent" unicode="&#x219;" horiz-adv-x="260" 
d="M240 140v-100c0 -25 -15 -40 -40 -40h-140c-25 0 -40 15 -40 40v110c0 5 5 10 10 10h70c5 0 10 -5 10 -10v-50c0 -5 5 -10 10 -10h20c5 0 10 5 10 10v30l-115 150c-7 10 -15 20 -15 40v90c0 25 15 40 40 40h140c25 0 40 -15 40 -40v-110c0 -5 -5 -10 -10 -10h-70
c-5 0 -10 5 -10 10v50c0 5 -5 10 -10 10h-20c-5 0 -10 -5 -10 -10v-20l115 -150c7 -10 15 -20 15 -40zM165 -200h-10c-5 0 -10 5 -10 10v40h-50c-5 0 -10 5 -10 10v70c0 5 5 10 10 10h70c5 0 10 -5 10 -10v-120c0 -5 -5 -10 -10 -10z" />
    <glyph glyph-name="tcaron" unicode="&#x165;" horiz-adv-x="260" 
d="M90 700h70c5 0 10 -5 10 -10v-240h60c5 0 10 -5 10 -10v-70c0 -5 -5 -10 -10 -10h-60v-350c0 -5 -5 -10 -10 -10h-70c-5 0 -10 5 -10 10v350h-60c-5 0 -10 5 -10 10v70c0 5 5 10 10 10h60v240c0 5 5 10 10 10zM290 560h-10c-5 0 -10 5 -10 10v40h-50c-5 0 -10 5 -10 10
v70c0 5 5 10 10 10h70c5 0 10 -5 10 -10v-120c0 -5 -5 -10 -10 -10z" />
    <glyph glyph-name="tcommaaccent" unicode="&#x163;" horiz-adv-x="250" 
d="M90 700h70c5 0 10 -5 10 -10v-240h60c5 0 10 -5 10 -10v-70c0 -5 -5 -10 -10 -10h-60v-350c0 -5 -5 -10 -10 -10h-70c-5 0 -10 5 -10 10v350h-60c-5 0 -10 5 -10 10v70c0 5 5 10 10 10h60v240c0 5 5 10 10 10zM160 -200h-10c-5 0 -10 5 -10 10v40h-50c-5 0 -10 5 -10 10
v70c0 5 5 10 10 10h70c5 0 10 -5 10 -10v-120c0 -5 -5 -10 -10 -10z" />
    <glyph glyph-name="yacute" unicode="&#xfd;" horiz-adv-x="277" 
d="M120 440v-340c0 -5 5 -10 10 -10h30v350c0 5 5 10 10 10h70c5 0 10 -5 10 -10v-640c0 -25 -15 -40 -40 -40h-140c-25 0 -40 15 -40 40v130c0 5 5 10 10 10h70c5 0 10 -5 10 -10v-70c0 -5 5 -10 10 -10h20c5 0 10 5 10 10v140h-90c-25 0 -40 15 -40 40v400c0 5 5 10 10 10
h70c5 0 10 -5 10 -10zM276 605l-95 -85c-5 -5 -10 -10 -20 -10h-50c-15 0 -10 10 -10 10l70 85c5 6 10 10 20 10h75c15 0 10 -10 10 -10z" />
    <glyph glyph-name="ydieresis" unicode="&#xff;" 
d="M120 440v-340c0 -5 5 -10 10 -10h30v350c0 5 5 10 10 10h70c5 0 10 -5 10 -10v-640c0 -25 -15 -40 -40 -40h-140c-25 0 -40 15 -40 40v130c0 5 5 10 10 10h70c5 0 10 -5 10 -10v-70c0 -5 5 -10 10 -10h20c5 0 10 5 10 10v140h-90c-25 0 -40 15 -40 40v400c0 5 5 10 10 10
h70c5 0 10 -5 10 -10zM40 610h70c5 0 10 -5 10 -10v-70c0 -5 -5 -10 -10 -10h-70c-5 0 -10 5 -10 10v70c0 5 5 10 10 10zM170 610h70c5 0 10 -5 10 -10v-70c0 -5 -5 -10 -10 -10h-70c-5 0 -10 5 -10 10v70c0 5 5 10 10 10z" />
    <glyph glyph-name="Ugrave" unicode="&#xd9;" horiz-adv-x="337" 
d="M147 690v-580c0 -5 5 -10 10 -10h20c5 0 10 5 10 10v580c0 5 5 10 10 10h90c5 0 10 -5 10 -10v-640c0 -30 -20 -50 -50 -50h-160c-30 0 -50 20 -50 50v640c0 5 5 10 10 10h90c5 0 10 -5 10 -10zM116 770l-95 85s-5 10 10 10h75c10 0 15 -4 20 -10l70 -85s5 -10 -10 -10
h-50c-10 0 -15 5 -20 10z" />
    <glyph glyph-name="Uacute" unicode="&#xda;" horiz-adv-x="337" 
d="M150 690v-580c0 -5 5 -10 10 -10h20c5 0 10 5 10 10v580c0 5 5 10 10 10h90c5 0 10 -5 10 -10v-640c0 -30 -20 -50 -50 -50h-160c-30 0 -50 20 -50 50v640c0 5 5 10 10 10h90c5 0 10 -5 10 -10zM306 855l-95 -85c-5 -5 -10 -10 -20 -10h-50c-15 0 -10 10 -10 10l70 85
c5 6 10 10 20 10h75c15 0 10 -10 10 -10z" />
    <glyph glyph-name="Ucircumflex" unicode="&#xdb;" horiz-adv-x="340" 
d="M150 690v-580c0 -5 5 -10 10 -10h20c5 0 10 5 10 10v580c0 5 5 10 10 10h90c5 0 10 -5 10 -10v-640c0 -30 -20 -50 -50 -50h-160c-30 0 -50 20 -50 50v640c0 5 5 10 10 10h90c5 0 10 -5 10 -10zM170 905c10 0 16 -5 20 -10l100 -125s5 -10 -10 -10h-60
c-10 0 -16 5 -20 10l-30 40l-30 -40c-4 -5 -10 -10 -20 -10h-60c-15 0 -10 10 -10 10l100 125c4 5 10 10 20 10z" />
    <glyph glyph-name="Udieresis" unicode="&#xdc;" horiz-adv-x="340" 
d="M150 690v-580c0 -5 5 -10 10 -10h20c5 0 10 5 10 10v580c0 5 5 10 10 10h90c5 0 10 -5 10 -10v-640c0 -30 -20 -50 -50 -50h-160c-30 0 -50 20 -50 50v640c0 5 5 10 10 10h90c5 0 10 -5 10 -10zM70 860h70c5 0 10 -5 10 -10v-70c0 -5 -5 -10 -10 -10h-70
c-5 0 -10 5 -10 10v70c0 5 5 10 10 10zM200 860h70c5 0 10 -5 10 -10v-70c0 -5 -5 -10 -10 -10h-70c-5 0 -10 5 -10 10v70c0 5 5 10 10 10z" />
    <glyph glyph-name="Uhungarumlaut" unicode="&#x170;" horiz-adv-x="336" 
d="M150 690v-580c0 -5 5 -10 10 -10h20c5 0 10 5 10 10v580c0 5 5 10 10 10h90c5 0 10 -5 10 -10v-640c0 -30 -20 -50 -50 -50h-160c-30 0 -50 20 -50 50v640c0 5 5 10 10 10h90c5 0 10 -5 10 -10zM235 855l-95 -85c-5 -5 -10 -10 -20 -10h-30c-15 0 -10 10 -10 10l70 85
c5 6 10 10 20 10h55c15 0 10 -10 10 -10zM345 855l-95 -85c-5 -5 -10 -10 -20 -10h-30c-15 0 -10 10 -10 10l70 85c5 6 10 10 20 10h55c15 0 10 -10 10 -10z" />
    <glyph glyph-name="Umacron" unicode="&#x16a;" horiz-adv-x="340" 
d="M150 690v-580c0 -5 5 -10 10 -10h20c5 0 10 5 10 10v580c0 5 5 10 10 10h90c5 0 10 -5 10 -10v-640c0 -30 -20 -50 -50 -50h-160c-30 0 -50 20 -50 50v640c0 5 5 10 10 10h90c5 0 10 -5 10 -10zM260 770h-180c-5 0 -10 5 -10 10v60c0 5 5 10 10 10h180c5 0 10 -5 10 -10
v-60c0 -5 -5 -10 -10 -10z" />
    <glyph glyph-name="Uogonek" unicode="&#x172;" horiz-adv-x="340" 
d="M150 690v-580c0 -5 5 -10 10 -10h20c5 0 10 5 10 10v580c0 5 5 10 10 10h90c5 0 10 -5 10 -10v-640c0 -30 -20 -50 -50 -50h-20l-60 -60c-10 -10 -20 -20 -20 -30v-10c0 -5 5 -10 10 -10h50c5 0 10 -5 10 -10v-40c0 -5 -5 -10 -10 -10h-80c-25 0 -40 15 -40 40v40
c0 25 10 34 30 50l50 40h-80c-30 0 -50 20 -50 50v640c0 5 5 10 10 10h90c5 0 10 -5 10 -10z" />
    <glyph glyph-name="Uring" unicode="&#x16e;" horiz-adv-x="340" 
d="M150 690v-580c0 -5 5 -10 10 -10h20c5 0 10 5 10 10v580c0 5 5 10 10 10h90c5 0 10 -5 10 -10v-640c0 -30 -20 -50 -50 -50h-160c-30 0 -50 20 -50 50v640c0 5 5 10 10 10h90c5 0 10 -5 10 -10zM85 800v80c0 25 15 40 40 40h90c25 0 40 -15 40 -40v-80
c0 -25 -15 -40 -40 -40h-90c-25 0 -40 15 -40 40zM190 815v50h-40v-50h40z" />
    <glyph glyph-name="Zacute" unicode="&#x179;" horiz-adv-x="277" 
d="M20 700h240c5 0 10 -5 10 -10l-145 -590h125c5 0 10 -5 10 -10v-80c0 -5 -5 -10 -10 -10h-240c-5 0 -10 5 -10 10l145 590h-125c-5 0 -10 5 -10 10v80c0 5 5 10 10 10zM286 855l-95 -85c-5 -5 -10 -10 -20 -10h-50c-15 0 -10 10 -10 10l70 85c5 6 10 10 20 10h75
c15 0 10 -10 10 -10z" />
    <glyph glyph-name="Zcaron" unicode="&#x17d;" horiz-adv-x="270" 
d="M20 700h240c5 0 10 -5 10 -10l-145 -590h125c5 0 10 -5 10 -10v-80c0 -5 -5 -10 -10 -10h-240c-5 0 -10 5 -10 10l145 590h-125c-5 0 -10 5 -10 10v80c0 5 5 10 10 10zM140 750c-10 0 -16 5 -20 10l-100 125s-5 10 10 10h60c10 0 16 -5 20 -10l30 -40l30 40
c4 5 10 10 20 10h60c15 0 10 -10 10 -10l-100 -125c-4 -5 -10 -10 -20 -10z" />
    <glyph glyph-name="Zdotaccent" unicode="&#x17b;" horiz-adv-x="270" 
d="M20 700h240c5 0 10 -5 10 -10l-145 -590h125c5 0 10 -5 10 -10v-80c0 -5 -5 -10 -10 -10h-240c-5 0 -10 5 -10 10l145 590h-125c-5 0 -10 5 -10 10v80c0 5 5 10 10 10zM105 860h70c5 0 10 -5 10 -10v-70c0 -5 -5 -10 -10 -10h-70c-5 0 -10 5 -10 10v70c0 5 5 10 10 10z
" />
    <glyph glyph-name="ugrave" unicode="&#xf9;" horiz-adv-x="277" 
d="M27 40v400c0 5 5 10 10 10h70c5 0 10 -5 10 -10v-340c0 -5 5 -10 10 -10h30v350c0 5 5 10 10 10h70c5 0 10 -5 10 -10v-430c0 -5 -5 -10 -10 -10h-70c-5 0 -10 5 -10 10v15h-5s-5 -25 -35 -25h-50c-25 0 -40 15 -40 40zM96 520l-95 85s-5 10 10 10h75c10 0 15 -4 20 -10
l70 -85s5 -10 -10 -10h-50c-10 0 -15 5 -20 10z" />
    <glyph glyph-name="uacute" unicode="&#xfa;" horiz-adv-x="277" 
d="M30 40v400c0 5 5 10 10 10h70c5 0 10 -5 10 -10v-340c0 -5 5 -10 10 -10h30v350c0 5 5 10 10 10h70c5 0 10 -5 10 -10v-430c0 -5 -5 -10 -10 -10h-70c-5 0 -10 5 -10 10v15h-5s-5 -25 -35 -25h-50c-25 0 -40 15 -40 40zM276 605l-95 -85c-5 -5 -10 -10 -20 -10h-50
c-15 0 -10 10 -10 10l70 85c5 6 10 10 20 10h75c15 0 10 -10 10 -10z" />
    <glyph glyph-name="ucircumflex" unicode="&#xfb;" horiz-adv-x="282" 
d="M31 40v400c0 5 5 10 10 10h70c5 0 10 -5 10 -10v-340c0 -5 5 -10 10 -10h30v350c0 5 5 10 10 10h70c5 0 10 -5 10 -10v-430c0 -5 -5 -10 -10 -10h-70c-5 0 -10 5 -10 10v15h-5s-5 -25 -35 -25h-50c-25 0 -40 15 -40 40zM141 655c10 0 16 -5 20 -10l100 -125
s5 -10 -10 -10h-60c-10 0 -16 5 -20 10l-30 40l-30 -40c-4 -5 -10 -10 -20 -10h-60c-15 0 -10 10 -10 10l100 125c4 5 10 10 20 10z" />
    <glyph glyph-name="udieresis" unicode="&#xfc;" 
d="M30 40v400c0 5 5 10 10 10h70c5 0 10 -5 10 -10v-340c0 -5 5 -10 10 -10h30v350c0 5 5 10 10 10h70c5 0 10 -5 10 -10v-430c0 -5 -5 -10 -10 -10h-70c-5 0 -10 5 -10 10v15h-5s-5 -25 -35 -25h-50c-25 0 -40 15 -40 40zM40 610h70c5 0 10 -5 10 -10v-70
c0 -5 -5 -10 -10 -10h-70c-5 0 -10 5 -10 10v70c0 5 5 10 10 10zM170 610h70c5 0 10 -5 10 -10v-70c0 -5 -5 -10 -10 -10h-70c-5 0 -10 5 -10 10v70c0 5 5 10 10 10z" />
    <glyph glyph-name="uhungarumlaut" unicode="&#x171;" horiz-adv-x="286" 
d="M30 40v400c0 5 5 10 10 10h70c5 0 10 -5 10 -10v-340c0 -5 5 -10 10 -10h30v350c0 5 5 10 10 10h70c5 0 10 -5 10 -10v-430c0 -5 -5 -10 -10 -10h-70c-5 0 -10 5 -10 10v15h-5s-5 -25 -35 -25h-50c-25 0 -40 15 -40 40zM215 605l-95 -85c-5 -5 -10 -10 -20 -10h-30
c-15 0 -10 10 -10 10l70 85c5 6 10 10 20 10h55c15 0 10 -10 10 -10zM325 605l-95 -85c-5 -5 -10 -10 -20 -10h-30c-15 0 -10 10 -10 10l70 85c5 6 10 10 20 10h55c15 0 10 -10 10 -10z" />
    <glyph glyph-name="umacron" unicode="&#x16b;" 
d="M30 40v400c0 5 5 10 10 10h70c5 0 10 -5 10 -10v-340c0 -5 5 -10 10 -10h30v350c0 5 5 10 10 10h70c5 0 10 -5 10 -10v-430c0 -5 -5 -10 -10 -10h-70c-5 0 -10 5 -10 10v15h-5s-5 -25 -35 -25h-50c-25 0 -40 15 -40 40zM230 520h-180c-5 0 -10 5 -10 10v60
c0 5 5 10 10 10h180c5 0 10 -5 10 -10v-60c0 -5 -5 -10 -10 -10z" />
    <glyph glyph-name="uogonek" unicode="&#x173;" 
d="M30 40v400c0 5 5 10 10 10h70c5 0 10 -5 10 -10v-340c0 -5 5 -10 10 -10h30v350c0 5 5 10 10 10h70c5 0 10 -5 10 -10v-425c0 -5 -5 -10 -10 -15l-60 -60c-10 -10 -20 -20 -20 -30v-10c0 -5 5 -10 10 -10h50c5 0 10 -5 10 -10v-40c0 -5 -5 -10 -10 -10h-80
c-25 0 -40 15 -40 40v40c0 25 10 34 30 50l50 40h-10c-5 0 -10 5 -10 10v15h-5s-5 -25 -35 -25h-50c-25 0 -40 15 -40 40z" />
    <glyph glyph-name="uring" unicode="&#x16f;" 
d="M30 40v400c0 5 5 10 10 10h70c5 0 10 -5 10 -10v-340c0 -5 5 -10 10 -10h30v350c0 5 5 10 10 10h70c5 0 10 -5 10 -10v-430c0 -5 -5 -10 -10 -10h-70c-5 0 -10 5 -10 10v15h-5s-5 -25 -35 -25h-50c-25 0 -40 15 -40 40zM55 560v80c0 25 15 40 40 40h90
c25 0 40 -15 40 -40v-80c0 -25 -15 -40 -40 -40h-90c-25 0 -40 15 -40 40zM160 575v50h-40v-50h40z" />
    <glyph glyph-name="zacute" unicode="&#x17a;" horiz-adv-x="237" 
d="M20 450h200c5 0 10 -5 10 -10l-115 -350h95c5 0 10 -5 10 -10v-70c0 -5 -5 -10 -10 -10h-200c-5 0 -10 5 -10 10l115 350h-95c-5 0 -10 5 -10 10v70c0 5 5 10 10 10zM256 605l-95 -85c-5 -5 -10 -10 -20 -10h-50c-15 0 -10 10 -10 10l70 85c5 6 10 10 20 10h75
c15 0 10 -10 10 -10z" />
    <glyph glyph-name="zcaron" unicode="&#x17e;" horiz-adv-x="232" 
d="M21 450h200c5 0 10 -5 10 -10l-115 -350h95c5 0 10 -5 10 -10v-70c0 -5 -5 -10 -10 -10h-200c-5 0 -10 5 -10 10l115 350h-95c-5 0 -10 5 -10 10v70c0 5 5 10 10 10zM121 500c-10 0 -16 5 -20 10l-100 125s-5 10 10 10h60c10 0 16 -5 20 -10l30 -40l30 40
c4 5 10 10 20 10h60c15 0 10 -10 10 -10l-100 -125c-4 -5 -10 -10 -20 -10z" />
    <glyph glyph-name="zdotaccent" unicode="&#x17c;" horiz-adv-x="230" 
d="M20 450h200c5 0 10 -5 10 -10l-115 -350h95c5 0 10 -5 10 -10v-70c0 -5 -5 -10 -10 -10h-200c-5 0 -10 5 -10 10l115 350h-95c-5 0 -10 5 -10 10v70c0 5 5 10 10 10zM80 610h70c5 0 10 -5 10 -10v-70c0 -5 -5 -10 -10 -10h-70c-5 0 -10 5 -10 10v70c0 5 5 10 10 10z" />
    <glyph glyph-name="quotesingle" unicode="'" horiz-adv-x="180" 
d="M115 530h-50c-5 0 -9 5 -10 10l-15 150c0 5 5 10 10 10h80c5 0 10 -5 10 -10l-15 -150c-1 -5 -5 -10 -10 -10z" />
    <glyph glyph-name="perthousand" unicode="&#x2030;" horiz-adv-x="820" 
d="M40 450v210c0 25 15 40 40 40h130c25 0 40 -15 40 -40v-210c0 -25 -15 -40 -40 -40h-130c-25 0 -40 15 -40 40zM160 510v90c0 5 -5 10 -10 10h-10c-5 0 -10 -5 -10 -10v-90c0 -5 5 -10 10 -10h10c5 0 10 5 10 10zM545 690l-395 -680c-3 -5 -10 -10 -15 -10h-85
c-5 0 -8 5 -5 10l395 680c3 5 10 10 15 10h85c5 0 8 -5 5 -10zM330 40v210c0 25 15 40 40 40h130c25 0 40 -15 40 -40v-210c0 -25 -15 -40 -40 -40h-130c-25 0 -40 15 -40 40zM450 100v90c0 5 -5 10 -10 10h-10c-5 0 -10 -5 -10 -10v-90c0 -5 5 -10 10 -10h10
c5 0 10 5 10 10zM570 40v210c0 25 15 40 40 40h130c25 0 40 -15 40 -40v-210c0 -25 -15 -40 -40 -40h-130c-25 0 -40 15 -40 40zM690 100v90c0 5 -5 10 -10 10h-10c-5 0 -10 -5 -10 -10v-90c0 -5 5 -10 10 -10h10c5 0 10 5 10 10z" />
    <glyph glyph-name="c" unicode="c" 
d="M250 410v-130c0 -5 -5 -10 -10 -10h-70c-5 0 -10 5 -10 10v70c0 5 -5 10 -10 10h-20c-5 0 -10 -5 -10 -10v-250c0 -5 5 -10 10 -10h20c5 0 10 5 10 10v70c0 5 5 10 10 10h70c5 0 10 -5 10 -10v-130c0 -25 -15 -40 -40 -40h-140c-25 0 -40 15 -40 40v370c0 25 15 40 40 40
h140c25 0 40 -15 40 -40z" />
    <glyph glyph-name="greater" unicode="&#x3e;" horiz-adv-x="295" 
d="M265 280c0 -10 -5 -16 -10 -20l-215 -140s-10 -5 -10 10v60c0 10 5 16 10 20l110 70l-110 70c-5 4 -10 10 -10 20v60c0 15 10 10 10 10l215 -140c5 -4 10 -10 10 -20z" />
    <glyph glyph-name="slash" unicode="/" horiz-adv-x="504" 
d="M502 690l-395 -680c-3 -5 -10 -10 -15 -10h-85c-5 0 -8 5 -5 10l395 680c3 5 10 10 15 10h85c5 0 8 -5 5 -10z" />
    <glyph glyph-name="backslash" unicode="\" horiz-adv-x="504" 
d="M397 10l-395 680c-3 5 0 10 5 10h85c5 0 12 -5 15 -10l395 -680c3 -5 0 -10 -5 -10h-85c-5 0 -12 5 -15 10z" />
    <glyph glyph-name="bar" unicode="|" horiz-adv-x="230" 
d="M170 700v-940c0 -5 -5 -10 -10 -10h-90c-5 0 -10 5 -10 10v940c0 5 5 10 10 10h90c5 0 10 -5 10 -10z" />
    <glyph glyph-name="guilsinglleft" unicode="&#x2039;" horiz-adv-x="277" 
d="M144 285l100 -100c3 -3 3 -7 0 -10l-50 -55c-3 -3 -7 -3 -10 0l-150 155c-5 5 -5 15 0 20l150 155c3 3 7 3 10 0l50 -55c3 -3 3 -7 0 -10z" />
    <glyph glyph-name="quotesinglbase" unicode="&#x201a;" horiz-adv-x="150" 
d="M110 -50h-10c-5 0 -10 5 -10 10v40h-50c-5 0 -10 5 -10 10v70c0 5 5 10 10 10h70c5 0 10 -5 10 -10v-120c0 -5 -5 -10 -10 -10z" />
    <glyph glyph-name="underscore" unicode="_" horiz-adv-x="240" 
d="M240 -90v-70c0 -5 -5 -10 -10 -10h-220c-5 0 -10 5 -10 10v70c0 5 5 10 10 10h220c5 0 10 -5 10 -10z" />
    <glyph glyph-name="afii10105" unicode="&#x458;" horiz-adv-x="150" 
d="M40 450h70c5 0 10 -5 10 -10v-640c0 -25 -15 -40 -40 -40h-140c-25 0 -40 15 -40 40v140c0 5 5 10 10 10h70c5 0 10 -5 10 -10v-80c0 -5 5 -10 10 -10h20c5 0 10 5 10 10v580c0 5 5 10 10 10zM40 610h70c5 0 10 -5 10 -10v-70c0 -5 -5 -10 -10 -10h-70c-5 0 -10 5 -10 10
v70c0 5 5 10 10 10z" />
    <glyph glyph-name="afii10054" unicode="&#x405;" horiz-adv-x="320" 
d="M30 460v190c0 30 20 50 50 50h160c30 0 50 -20 50 -50v-190c0 -5 -5 -10 -10 -10h-90c-5 0 -10 5 -10 10v130c0 5 -5 10 -10 10h-20c-5 0 -10 -5 -10 -10v-115l135 -175c7 -10 15 -20 15 -40v-210c0 -30 -20 -50 -50 -50h-160c-30 0 -50 20 -50 50v190c0 5 5 10 10 10h90
c5 0 10 -5 10 -10v-130c0 -5 5 -10 10 -10h20c5 0 10 5 10 10v135l-135 175c-7 10 -15 20 -15 40z" />
    <glyph glyph-name="afii10102" unicode="&#x455;" horiz-adv-x="260" 
d="M240 140v-100c0 -25 -15 -40 -40 -40h-140c-25 0 -40 15 -40 40v110c0 5 5 10 10 10h70c5 0 10 -5 10 -10v-50c0 -5 5 -10 10 -10h20c5 0 10 5 10 10v30l-115 150c-7 10 -15 20 -15 40v90c0 25 15 40 40 40h140c25 0 40 -15 40 -40v-110c0 -5 -5 -10 -10 -10h-70
c-5 0 -10 5 -10 10v50c0 5 -5 10 -10 10h-20c-5 0 -10 -5 -10 -10v-20l115 -150c7 -10 15 -20 15 -40z" />
    <glyph glyph-name="afii10055" unicode="&#x406;" horiz-adv-x="190" 
d="M150 690v-680c0 -5 -5 -10 -10 -10h-90c-5 0 -10 5 -10 10v680c0 5 5 10 10 10h90c5 0 10 -5 10 -10z" />
    <glyph glyph-name="afii10103" unicode="&#x456;" horiz-adv-x="150" 
d="M40 450h70c5 0 10 -5 10 -10v-430c0 -5 -5 -10 -10 -10h-70c-5 0 -10 5 -10 10v430c0 5 5 10 10 10zM40 610h70c5 0 10 -5 10 -10v-70c0 -5 -5 -10 -10 -10h-70c-5 0 -10 5 -10 10v70c0 5 5 10 10 10z" />
    <glyph glyph-name="nbspace" unicode="&#xa0;" horiz-adv-x="0" 
 />
    <glyph glyph-name="degree" unicode="&#xb0;" horiz-adv-x="290" 
d="M40 450v210c0 25 15 40 40 40h130c25 0 40 -15 40 -40v-210c0 -25 -15 -40 -40 -40h-130c-25 0 -40 15 -40 40zM160 510v90c0 5 -5 10 -10 10h-10c-5 0 -10 -5 -10 -10v-90c0 -5 5 -10 10 -10h10c5 0 10 5 10 10z" />
    <glyph glyph-name="currency" unicode="&#xa4;" horiz-adv-x="350" 
d="M270 250v-50c0 -5 -5 -10 -10 -10h-90v-180c0 -5 -5 -10 -10 -10h-90c-5 0 -10 5 -10 10v180h-30c-5 0 -10 5 -10 10v50c0 5 5 10 10 10h30v50h-30c-5 0 -10 5 -10 10v50c0 5 5 10 10 10h30v310c0 5 5 10 10 10h200c30 0 50 -20 50 -50v-290c0 -30 -20 -50 -50 -50h-100
v-50h90c5 0 10 -5 10 -10zM210 390v200c0 5 -5 10 -10 10h-30v-220h30c5 0 10 5 10 10z" />
    <glyph glyph-name="Germandbls" horiz-adv-x="340" 
d="M250 0h-60c-30 0 -35 25 -35 25h-5v-105c0 -5 -5 -10 -10 -10h-90c-5 0 -10 5 -10 10v730c0 30 20 50 50 50h160c30 0 50 -20 50 -50v-225c0 -30 -20 -50 -50 -50v-5c30 0 50 -20 50 -50v-270c0 -30 -20 -50 -50 -50zM150 320v-220h30c5 0 10 5 10 9v201
c0 5 -5 10 -10 10h-30zM180 600h-20c-5 0 -10 -5 -10 -10v-170h30c5 0 10 5 10 10v160c0 5 -5 10 -10 10z" />
    <glyph glyph-name="uni1E9E" unicode="&#x1e9e;" horiz-adv-x="340" 
d="M250 0h-60c-30 0 -35 25 -35 25h-5v-105c0 -5 -5 -10 -10 -10h-90c-5 0 -10 5 -10 10v730c0 30 20 50 50 50h160c30 0 50 -20 50 -50v-225c0 -30 -20 -50 -50 -50v-5c30 0 50 -20 50 -50v-270c0 -30 -20 -50 -50 -50zM150 320v-220h30c5 0 10 5 10 9v201
c0 5 -5 10 -10 10h-30zM180 600h-20c-5 0 -10 -5 -10 -10v-170h30c5 0 10 5 10 10v160c0 5 -5 10 -10 10z" />
    <glyph glyph-name="questiondown" unicode="&#xbf;" horiz-adv-x="220" 
d="M170 250v-30c0 -30 -15 -70 -15 -70l-55 -190v-90c0 -5 5 -10 10 -10v0c5 0 10 5 10 10v80c0 5 5 10 10 10h80c5 0 10 -5 10 -10v-140c0 -30 -20 -50 -50 -50h-120c-30 0 -50 20 -50 50v130c0 30 15 70 15 70l55 190v50c0 5 5 10 10 10h80c5 0 10 -5 10 -10zM85 450h70
c5 0 10 -5 10 -10v-70c0 -5 -5 -10 -10 -10h-70c-5 0 -10 5 -10 10v70c0 5 5 10 10 10z" />
    <glyph glyph-name="minus" unicode="&#x2212;" horiz-adv-x="300" 
d="M270 320v-70c0 -5 -5 -10 -10 -10h-220c-5 0 -10 5 -10 10v70c0 5 5 10 10 10h220c5 0 10 -5 10 -10z" />
    <glyph glyph-name="foundryicon" horiz-adv-x="1230" 
d="M100 -110v920h1030v-920h-1030zM1110 -90v880h-990v-880h990zM635 610h110c50 0 80 -30 80 -65s-30 -65 -80 -65h-55v-80h-55v210zM635 300h110c50 0 80 -30 80 -65s-30 -65 -80 -65h-55v-80h-55v210zM495 170l-75 130h60l40 -75h5l40 75h65l-80 -130v-80h-55v80z
M495 480l-75 130h60l40 -75h5l40 75h65l-80 -130v-80h-55v80zM300 255h-65v45h165l25 -45h-70v-165h-55v165zM300 565h-65v45h165l25 -45h-70v-165h-55v165zM790 400v65c25 5 55 30 60 60h80v-45h-85v-35h120v-45h-175zM790 90v65c25 5 55 30 60 60h80v-45h-85v-35h120v-45
h-175zM810 300h155v-45h-115c-5 20 -20 40 -40 45zM810 610h155v-45h-115c-5 20 -20 40 -40 45zM765 545c0 10 -10 20 -20 20h-55v-40h55c10 0 20 9 20 20zM765 235c0 10 -10 20 -20 20h-55v-40h55c10 0 20 9 20 20z" />
    <glyph glyph-name=".null" horiz-adv-x="0" 
 />
    <glyph glyph-name=".null" horiz-adv-x="0" 
 />
    <glyph glyph-name="CR" unicode="&#xd;" horiz-adv-x="0" 
 />
    <glyph glyph-name="fraction" unicode="&#x2044;" horiz-adv-x="564" 
d="M532 690l-395 -680c-3 -5 -10 -10 -15 -10h-85c-5 0 -8 5 -5 10l395 680c3 5 10 10 15 10h85c5 0 8 -5 5 -10z" />
    <glyph glyph-name="ordfeminine" unicode="&#xaa;" horiz-adv-x="290" 
d="M40 620v40c0 25 15 40 40 40h130c25 0 40 -15 40 -40v-240c0 -5 -5 -10 -10 -10h-70c-5 0 -10 5 -10 10v15h-5s-5 -25 -35 -25h-40c-25 0 -40 15 -40 40v100c0 25 15 40 40 40h40c30 0 35 -25 35 -25h5v55c0 5 -5 10 -10 10h-10c-5 0 -10 -5 -10 -10v0
c0 -5 -5 -10 -10 -10h-70c-5 0 -10 5 -10 10zM160 480v40h-20c-5 0 -10 -5 -10 -10v-20c0 -5 5 -10 10 -10h20z" />
    <glyph glyph-name="twosuperior" unicode="&#xb2;" horiz-adv-x="290" 
d="M240 410h-190c-5 0 -10 5 -10 10v80c0 20 10 33 30 45l90 55v10c0 5 -5 10 -10 10h-10c-5 0 -10 -5 -10 -10s-5 -10 -10 -10h-70c-5 0 -10 4 -10 10v50c0 25 15 40 40 40h130c25 0 40 -15 40 -40v-60c0 -25 -10 -33 -30 -45l-90 -55c-1 -5 2 -10 10 -10h100
c5 0 10 -5 10 -10v-60c0 -5 -5 -10 -10 -10z" />
    <glyph glyph-name="threesuperior" unicode="&#xb3;" horiz-adv-x="290" 
d="M70 540v35c0 5 6 12 10 15l80 40h-110c-5 0 -10 5 -10 10v50c0 5 5 10 10 10h190c5 0 10 -5 10 -10v-50c0 -25 -10 -35 -30 -45l-30 -15h20c25 0 40 -15 40 -40v-90c0 -25 -15 -40 -40 -40h-130c-25 0 -40 15 -40 40v50c0 6 5 10 10 10h70c5 0 10 -5 10 -10s5 -10 10 -10
h10c5 0 10 5 10 10v20c0 5 -5 10 -10 10h-70c-5 0 -10 5 -10 10z" />
    <glyph glyph-name="foursuperior" unicode="&#x2074;" horiz-adv-x="290" 
d="M170 700h70c5 0 10 -5 10 -10v-270c0 -5 -5 -10 -10 -10h-70c-5 0 -10 5 -10 10v80h-110c-5 0 -10 5 -10 10v180c0 5 5 10 10 10h70c5 0 10 -5 10 -10v-100h30v100c0 5 5 10 10 10z" />
    <glyph glyph-name="Dcroat" unicode="&#x110;" horiz-adv-x="360" 
d="M270 0h-200c-5 0 -10 5 -10 10v300h-20c-5 0 -10 5 -10 10v70c0 5 5 10 10 10h20v290c0 5 5 10 10 10h200c30 0 50 -20 50 -50v-600c0 -30 -20 -50 -50 -50zM190 390v-70c0 -5 -5 -10 -10 -10h-10v-210h30c5 0 10 5 10 10v480c0 5 -5 10 -10 10h-30v-200h10
c5 0 10 -5 10 -10z" />
    <glyph glyph-name="Eth" unicode="&#xd0;" horiz-adv-x="360" 
d="M270 0h-200c-5 0 -10 5 -10 10v300h-20c-5 0 -10 5 -10 10v70c0 5 5 10 10 10h20v290c0 5 5 10 10 10h200c30 0 50 -20 50 -50v-600c0 -30 -20 -50 -50 -50zM190 390v-70c0 -5 -5 -10 -10 -10h-10v-210h30c5 0 10 5 10 10v480c0 5 -5 10 -10 10h-30v-200h10
c5 0 10 -5 10 -10z" />
    <glyph glyph-name="A" unicode="A" horiz-adv-x="340" 
d="M150 320v-310c0 -5 -5 -10 -10 -10h-90c-5 0 -10 5 -10 10v640c0 30 20 50 50 50h160c30 0 50 -20 50 -50v-640c0 -5 -5 -10 -10 -10h-90c-5 0 -10 5 -10 10v310h-40zM190 420v170c0 5 -5 10 -10 10h-20c-5 0 -10 -5 -10 -10v-170h40z" />
    <glyph glyph-name="afii10017" unicode="&#x410;" horiz-adv-x="340" 
d="M150 320v-310c0 -5 -5 -10 -10 -10h-90c-5 0 -10 5 -10 10v640c0 30 20 50 50 50h160c30 0 50 -20 50 -50v-640c0 -5 -5 -10 -10 -10h-90c-5 0 -10 5 -10 10v310h-40zM190 420v170c0 5 -5 10 -10 10h-20c-5 0 -10 -5 -10 -10v-170h40z" />
    <glyph glyph-name="afii10037" unicode="&#x423;" horiz-adv-x="340" 
d="M180 100c5 0 10 5 10 10v190h-100c-30 0 -50 20 -50 50v340c0 5 5 10 10 10h90c5 0 10 -5 10 -10v-280c0 -5 5 -10 10 -10h30v290c0 5 5 10 10 10h90c5 0 10 -5 10 -10v-640c0 -30 -20 -50 -50 -50h-160c-30 0 -50 20 -50 50v160c0 5 5 10 10 10h90c5 0 10 -5 10 -10
v-100c0 -5 5 -10 10 -10h20z" />
    <glyph glyph-name="y" unicode="y" 
d="M120 440v-340c0 -5 5 -10 10 -10h30v350c0 5 5 10 10 10h70c5 0 10 -5 10 -10v-640c0 -25 -15 -40 -40 -40h-140c-25 0 -40 15 -40 40v130c0 5 5 10 10 10h70c5 0 10 -5 10 -10v-70c0 -5 5 -10 10 -10h20c5 0 10 5 10 10v140h-90c-25 0 -40 15 -40 40v400c0 5 5 10 10 10
h70c5 0 10 -5 10 -10z" />
    <glyph glyph-name="afii10085" unicode="&#x443;" 
d="M120 440v-340c0 -5 5 -10 10 -10h30v350c0 5 5 10 10 10h70c5 0 10 -5 10 -10v-640c0 -25 -15 -40 -40 -40h-140c-25 0 -40 15 -40 40v130c0 5 5 10 10 10h70c5 0 10 -5 10 -10v-70c0 -5 5 -10 10 -10h20c5 0 10 5 10 10v140h-90c-25 0 -40 15 -40 40v400c0 5 5 10 10 10
h70c5 0 10 -5 10 -10z" />
    <glyph glyph-name="afii10028" unicode="&#x41a;" horiz-adv-x="340" 
d="M180 320h-30v-310c0 -5 -5 -10 -10 -10h-90c-5 0 -10 5 -10 10v680c0 5 5 10 10 10h90c5 0 10 -5 10 -10v-270h30c5 0 10 5 10 10v260c0 5 5 10 10 10h90c5 0 10 -5 10 -10v-265c0 -30 -20 -50 -50 -50v-5c30 0 50 -20 50 -50v-310c0 -5 -5 -10 -10 -10h-90
c-5 0 -10 5 -10 10v300c0 5 -5 10 -10 10z" />
    <glyph glyph-name="afii10024" unicode="&#x416;" horiz-adv-x="490" 
d="M330 320h-30v-310c0 -5 -5 -10 -10 -10h-90c-5 0 -10 5 -10 10v310h-30c-5 0 -10 -5 -10 -10v-300c0 -5 -5 -10 -10 -10h-90c-5 0 -10 5 -10 10v310c0 30 20 50 50 50v5c-30 0 -50 20 -50 50v265c0 5 5 10 10 10h90c5 0 10 -5 10 -10v-260c0 -5 5 -10 10 -10h30v270
c0 5 5 10 10 10h90c5 0 10 -5 10 -10v-270h30c5 0 10 5 10 10v260c0 5 5 10 10 10h90c5 0 10 -5 10 -10v-265c0 -30 -20 -50 -50 -50v-5c30 0 50 -20 50 -50v-310c0 -5 -5 -10 -10 -10h-90c-5 0 -10 5 -10 10v300c0 5 -5 10 -10 10z" />
    <glyph glyph-name="K" unicode="K" horiz-adv-x="340" 
d="M180 320h-30v-310c0 -5 -5 -10 -10 -10h-90c-5 0 -10 5 -10 10v680c0 5 5 10 10 10h90c5 0 10 -5 10 -10v-270h30c5 0 10 5 10 10v260c0 5 5 10 10 10h90c5 0 10 -5 10 -10v-265c0 -30 -20 -50 -50 -50v-5c30 0 50 -20 50 -50v-310c0 -5 -5 -10 -10 -10h-90
c-5 0 -10 5 -10 10v300c0 5 -5 10 -10 10z" />
    <glyph glyph-name="afii10032" unicode="&#x41e;" horiz-adv-x="340" 
d="M90 700h160c30 0 50 -20 50 -50v-600c0 -30 -20 -50 -50 -50h-160c-30 0 -50 20 -50 50v600c0 30 20 50 50 50zM190 110v480c0 5 -5 10 -10 10h-20c-5 0 -10 -5 -10 -10v-480c0 -5 5 -10 10 -10h20c5 0 10 5 10 10z" />
    <glyph glyph-name="afii10048" unicode="&#x42e;" horiz-adv-x="490" 
d="M250 700h150c30 0 50 -20 50 -50v-600c0 -30 -20 -50 -50 -50h-150c-30 0 -50 20 -50 50v270h-50v-310c0 -5 -5 -10 -10 -10h-90c-5 0 -10 5 -10 10v680c0 5 5 10 10 10h90c5 0 10 -5 10 -10v-270h50v230c0 30 20 50 50 50zM340 110v480c0 5 -5 10 -10 10h-10
c-5 0 -10 -5 -10 -10v-480c0 -5 5 -10 10 -10h10c5 0 10 5 10 10z" />
    <glyph glyph-name="afii10049" unicode="&#x42f;" horiz-adv-x="340" 
d="M150 590v-170c0 -5 5 -10 10 -10h30v190h-30c-5 0 -10 -5 -10 -10zM40 10v300c0 30 20 50 50 50v5c-30 0 -50 20 -50 50v235c0 30 20 50 50 50h200c5 0 10 -5 10 -10v-680c0 -5 -5 -10 -10 -10h-90c-5 0 -10 5 -10 10v300h-30c-5 0 -10 -5 -10 -10v-290
c0 -5 -5 -10 -10 -10h-90c-5 0 -10 5 -10 10z" />
    </font>
</defs>
</svg>
