<?xml version="1.0" encoding="utf-8"?>
<!-- Generator: Adobe Illustrator 21.0.2, SVG Export Plug-In . SVG Version: 6.00 Build 0)  -->
<svg version="1.1" id="Layer_1" xmlns="http://www.w3.org/2000/svg" xmlns:xlink="http://www.w3.org/1999/xlink" x="0px" y="0px"
	 width="81px" height="83.3px" viewBox="0 0 81 83.3" style="enable-background:new 0 0 81 83.3;" xml:space="preserve">
<style type="text/css">
	.st0{fill:none;stroke:#000000;stroke-width:2;stroke-linecap:round;stroke-linejoin:round;stroke-miterlimit:10;}
</style>
<g>
	<path class="st0" d="M48.5,46.5"/>
	<g>
		<g>
			<path d="M62.7,2c0.2,0,0.4,0,0.6,0.1c2.8,0.5,6,2.2,6,4c0,2.5-0.8,3.8-0.8,3.8l0,0c-0.5,0.8-0.4,1.8,0.2,2.4
				c-0.1,0.3-0.5,0.7-0.7,0.8c-0.6,0.4-0.9,1.1-0.9,1.8c0.1,0.8-0.1,3.2-1.3,4.5c-0.6,0.7-1.5,1-2.7,1c-4.8,0-6.2-7-6.2-7.1
				c-0.1-0.4-0.3-0.8-0.5-1.1c0.1-0.1,0.2-0.1,0.3-0.2c0.8-0.6,1-1.7,0.6-2.6c0,0-1.9-3.5,0.1-5.1c1-0.8,1.6-1,1.8-1.1
				c0.4,0.3,0.8,0.5,1.3,0.5c0.2,0,0.4,0,0.6-0.1c0.7-0.2,1.3-0.9,1.4-1.6C62.4,2,62.5,2,62.7,2 M55.3,11.3L55.3,11.3L55.3,11.3
				 M62.7,0c-2.3,0-2.3,1.7-2.3,1.7S60,1.2,59.2,1.2c-0.7,0-1.7,0.3-3.2,1.6c-3.3,2.7-0.5,7.6-0.5,7.6s-0.6-0.6-1.2-0.6
				c-0.4,0-0.8,0.3-1,1.1c-0.5,2.2,1.6,2.7,1.6,2.7s1.6,8.7,8.2,8.7c6.5,0,6-7.6,6-7.6s1.6-1.1,1.6-2.7c0-1-0.2-1.2-0.4-1.2
				c-0.1,0-0.2,0.1-0.2,0.1s1.1-1.6,1.1-4.9s-4.4-5.4-7.6-6C63.3,0,62.9,0,62.7,0L62.7,0z"/>
		</g>
		<path class="st0" d="M55.5,8.3c0,0,2.2-2.2,3.3-1.6s1.6,1.6,1.6,1.6s8.2,1.6,9.8,0"/>
		<g>
			<path d="M60.6,11.5c-0.8,0-1.4,0.6-1.4,1.4s0.6,1.4,1.4,1.4s1.4-0.6,1.4-1.4S61.4,11.5,60.6,11.5L60.6,11.5z"/>
		</g>
		<g>
			<path d="M65,11.5c-0.8,0-1.4,0.6-1.4,1.4s0.6,1.4,1.4,1.4s1.4-0.6,1.4-1.4S65.7,11.5,65,11.5L65,11.5z"/>
		</g>
		<path class="st0" d="M58.7,20.2c0,0-7.1,1.1-9.8,3.8s-3.3,3.8-3.8,6.5s1.1,15.8,1.1,15.8s1.1,4.4,5.4,4.4"/>
		<line class="st0" x1="51.6" y1="43.7" x2="45.9" y2="43.7"/>
		<path class="st0" d="M52.2,32.2v28.3l1.1,15.8c0,0,0.5,6,3.3,6s6,0,6,0V54.5"/>
		<path class="st0" d="M53.8,77c0,0,2.7-0.8,4.9-0.8s3.9,0.7,3.9,0.7"/>
		<path class="st0" d="M67.4,20.2c0,0,5.9,1.1,8.7,3.8s3.3,3.8,3.8,6.5c0.5,2.7-1.1,15.8-1.1,15.8s-1.1,4.4-5.4,4.4"/>
		<line class="st0" x1="73.4" y1="43.7" x2="79.1" y2="43.7"/>
		<path class="st0" d="M72.8,32.2v28.3l-1.1,15.8c0,0-0.5,6-3.3,6c-2.7,0-6,0-6,0V54.5"/>
		<path class="st0" d="M71.2,77c0,0-2.7-0.8-4.9-0.8s-3.9,0.7-3.9,0.7"/>
		<line class="st0" x1="52.2" y1="48.7" x2="72.6" y2="48.7"/>
	</g>
</g>
<g>
	<path class="st0" d="M4.5,46.5"/>
	<g>
		<g>
			<path d="M18.7,2c0.2,0,0.4,0,0.6,0.1c2.8,0.5,6,2.2,6,4c0,2.5-0.8,3.8-0.8,3.8l0,0c-0.5,0.8-0.4,1.8,0.2,2.4
				c-0.1,0.3-0.5,0.7-0.7,0.8c-0.6,0.4-0.9,1.1-0.9,1.8c0.1,0.8-0.1,3.2-1.3,4.5c-0.6,0.7-1.5,1-2.7,1c-4.8,0-6.2-7-6.2-7.1
				c-0.1-0.4-0.3-0.8-0.5-1.1c0.1-0.1,0.2-0.1,0.3-0.2c0.8-0.6,1-1.7,0.6-2.6c0,0-1.9-3.5,0.1-5.1c1-0.8,1.6-1,1.8-1.1
				c0.4,0.3,0.8,0.5,1.3,0.5c0.2,0,0.4,0,0.6-0.1c0.7-0.2,1.3-0.9,1.4-1.6C18.4,2,18.5,2,18.7,2 M11.3,11.3L11.3,11.3L11.3,11.3
				 M18.7,0c-2.3,0-2.3,1.7-2.3,1.7S16,1.2,15.2,1.2c-0.7,0-1.7,0.3-3.2,1.6c-3.3,2.7-0.5,7.6-0.5,7.6s-0.6-0.6-1.2-0.6
				c-0.4,0-0.8,0.3-1,1.1c-0.5,2.2,1.6,2.7,1.6,2.7s1.6,8.7,8.2,8.7c6.5,0,6-7.6,6-7.6s1.6-1.1,1.6-2.7c0-1-0.2-1.2-0.4-1.2
				c-0.1,0-0.2,0.1-0.2,0.1s1.1-1.6,1.1-4.9s-4.4-5.4-7.6-6C19.3,0,18.9,0,18.7,0L18.7,0z"/>
		</g>
		<path class="st0" d="M11.5,8.3c0,0,2.2-2.2,3.3-1.6s1.6,1.6,1.6,1.6s8.2,1.6,9.8,0"/>
		<g>
			<path d="M16.6,11.5c-0.8,0-1.4,0.6-1.4,1.4s0.6,1.4,1.4,1.4s1.4-0.6,1.4-1.4S17.4,11.5,16.6,11.5L16.6,11.5z"/>
		</g>
		<g>
			<path d="M21,11.5c-0.8,0-1.4,0.6-1.4,1.4s0.6,1.4,1.4,1.4s1.4-0.6,1.4-1.4S21.7,11.5,21,11.5L21,11.5z"/>
		</g>
		<path class="st0" d="M14.7,20.2c0,0-7.1,1.1-9.8,3.8s-3.3,3.8-3.8,6.5s1.1,15.8,1.1,15.8s1.1,4.4,5.4,4.4"/>
		<line class="st0" x1="7.6" y1="43.7" x2="1.9" y2="43.7"/>
		<path class="st0" d="M8.2,32.2v28.3l1.1,15.8c0,0,0.5,6,3.3,6s6,0,6,0V54.5"/>
		<path class="st0" d="M9.8,77c0,0,2.7-0.8,4.9-0.8s3.9,0.7,3.9,0.7"/>
		<path class="st0" d="M23.4,20.2c0,0,5.9,1.1,8.7,3.8s3.3,3.8,3.8,6.5s-1.1,15.8-1.1,15.8s-1.1,4.4-5.4,4.4"/>
		<line class="st0" x1="29.4" y1="43.7" x2="35.1" y2="43.7"/>
		<path class="st0" d="M28.8,32.2v28.3l-1.1,15.8c0,0-0.5,6-3.3,6s-6,0-6,0V54.5"/>
		<path class="st0" d="M27.2,77c0,0-2.7-0.8-4.9-0.8s-3.9,0.7-3.9,0.7"/>
		<line class="st0" x1="8.2" y1="48.7" x2="28.6" y2="48.7"/>
	</g>
</g>
<rect x="12" y="30.3" class="st0" width="4" height="6"/>
<path class="st0" d="M17.9,30.3h2.7c0,0,4.8,0,3.4,1.4c1.2,1.8,1,3.2,0,4.6c-0.7,1.3-4.3,0.4-4.3,0.4v2.1c0,1-0.8,1.9-1.8,1.9
	c-0.5,0-1,0-1-0.4c0-0.9,0-4.6,0-4.6"/>
<rect x="56" y="30.3" class="st0" width="4" height="6"/>
<path class="st0" d="M61.9,30.3h2.7c0,0,4.8,0,3.4,1.4c1.2,1.8,1,3.2,0,4.6c-0.7,1.3-4.3,0.4-4.3,0.4v2.1c0,1-0.8,1.9-1.8,1.9
	c-0.5,0-1,0-1-0.4c0-0.9,0-4.6,0-4.6"/>
</svg>
