<?xml version="1.0" encoding="utf-8"?>
<!-- Generator: Adobe Illustrator 21.0.2, SVG Export Plug-In . SVG Version: 6.00 Build 0)  -->
<svg version="1.1" id="Isolation_Mode" xmlns="http://www.w3.org/2000/svg" xmlns:xlink="http://www.w3.org/1999/xlink" x="0px"
	 y="0px" width="65px" height="79px" viewBox="0 0 65 79" style="enable-background:new 0 0 65 79;" xml:space="preserve">
<style type="text/css">
	.st0{fill:none;stroke:#000000;stroke-width:2;stroke-linecap:round;stroke-miterlimit:10;}
	.st1{fill:none;stroke:#000000;stroke-width:3;stroke-linecap:round;stroke-miterlimit:10;}
</style>
<g>
	<rect x="1" y="1" transform="matrix(-1 -4.490420e-11 4.490420e-11 -1 53 67)" class="st0" width="51" height="65"/>
	<path class="st0" d="M59,7"/>
	<polyline class="st0" points="53,5 56,5 56,70 7,70 7,66 	"/>
	<polyline class="st0" points="57,9 60,9 60,74 11,74 11,70 	"/>
	<polyline class="st0" points="61,13 64,13 64,78 15,78 15,74 	"/>
	<line class="st0" x1="9" y1="33" x2="43" y2="33"/>
	<line class="st0" x1="9" y1="37" x2="43" y2="37"/>
	<line class="st0" x1="9" y1="41" x2="43" y2="41"/>
	<line class="st0" x1="9" y1="45" x2="23" y2="45"/>
	<g>
		<line class="st1" x1="14" y1="27" x2="29.5" y2="27"/>
		<line class="st1" x1="33.5" y1="27" x2="38.5" y2="27"/>
	</g>
	<line class="st0" x1="32" y1="11" x2="45" y2="11"/>
	<line class="st0" x1="32" y1="15" x2="42" y2="15"/>
	<path class="st0" d="M31,50.3c0,0,1-4.3,3-2.6s0,4.3,1,4.3s1-7.7,4-5.1S37,58,37,58s-5-1.7-1-4.3c4-2.6,9-4.3,9-4.3"/>
</g>
</svg>
