<?xml version="1.0" encoding="utf-8"?>
<!-- Generator: Adobe Illustrator 21.0.2, SVG Export Plug-In . SVG Version: 6.00 Build 0)  -->
<svg version="1.1" id="Isolation_Mode" xmlns="http://www.w3.org/2000/svg" xmlns:xlink="http://www.w3.org/1999/xlink" x="0px"
	 y="0px" width="65.5px" height="76px" viewBox="0 0 65.5 76" style="enable-background:new 0 0 65.5 76;" xml:space="preserve">
<style type="text/css">
	.st0{fill:none;stroke:#000000;stroke-width:2;stroke-miterlimit:10;}
	.st1{fill:none;stroke:#000000;stroke-width:2;stroke-linecap:round;stroke-miterlimit:10;}
	.st2{fill:none;stroke:#000000;stroke-width:2;stroke-linecap:round;stroke-linejoin:round;stroke-miterlimit:10;}
</style>
<path class="st0" d="M56.5,42.9c0,2.6-2,3.5-4.4,3.5H14.3c-2.4,0-4.4-1-4.4-3.6H8.8c-4.3,0-7.8,3.8-7.8,8.4V61
	c0,4.6,3.5,8.4,7.8,8.4h46.7c4.3,0,7.8-3.8,7.8-8.4v-9.8C63.2,47,60.3,43.5,56.5,42.9z"/>
<path class="st1" d="M9.9,41.7L9.9,41.7c0-6.7,4.4-11.1,11.1-11.1h24.4c6.7,0,11.1,4.4,11.1,11.1v0"/>
<g>
	<path d="M7,38.1c1,0,1.7,0.8,1.7,1.7v0.8c0,0.6-0.5,1-1,1H4c-0.6,0-1-0.5-1-1v-1.4c0-0.6,0.5-1,1-1H7 M7,36.1H4c-1.7,0-3,1.4-3,3
		v1.4c0,1.7,1.4,3,3,3h3.6c1.7,0,3-1.4,3-3v-0.8C10.7,37.8,9,36.1,7,36.1L7,36.1z"/>
</g>
<g>
	<path d="M62.1,38.1c0.8,0,1.4,0.6,1.4,1.4v0.8c0,0.8-0.6,1.4-1.4,1.4h-2.9c-0.8,0-1.4-0.6-1.4-1.4v-0.8c0-0.8,0.6-1.4,1.4-1.4H62.1
		 M62.1,36.1h-2.9c-1.9,0-3.4,1.5-3.4,3.4v0.8c0,1.9,1.5,3.4,3.4,3.4h2.9c1.9,0,3.4-1.5,3.4-3.4v-0.8C65.5,37.6,64,36.1,62.1,36.1
		L62.1,36.1z"/>
</g>
<g>
	<path d="M14.7,55.4c0.5,0,1,0.5,1,1v1.2c0,0.5-0.5,1-1,1H7.3c-0.5,0-1-0.5-1-1v-1.2c0-0.6,0.4-1,1-1H14.7 M14.7,53.4H7.3
		c-1.7,0-3,1.3-3,3v1.2c0,1.6,1.4,3,3,3h7.3c1.6,0,3-1.4,3-3v-1.2C17.7,54.8,16.3,53.4,14.7,53.4L14.7,53.4z"/>
</g>
<g>
	<path d="M56.9,55.4c0.5,0,1,0.5,1,1v1.2c0,0.5-0.5,1-1,1h-7.3c-0.5,0-1-0.5-1-1v-1.2c0-0.5,0.5-1,1-1H56.9 M56.9,53.4h-7.3
		c-1.6,0-3,1.3-3,3v1.2c0,1.6,1.4,3,3,3h7.3c1.6,0,3-1.4,3-3v-1.2C59.9,54.8,58.5,53.4,56.9,53.4L56.9,53.4z"/>
</g>
<g>
	<path d="M41.3,55.4c0.5,0,1,0.5,1,1V59c0,0.5-0.5,1-1,1H22.9c-0.5,0-1-0.5-1-1v-3.6H41.3 M41.3,53.4H20.9c-0.6,0-1,0.4-1,1V59
		c0,1.6,1.3,3,3,3h18.4c1.7,0,3-1.4,3-3v-2.6C44.3,54.8,43,53.4,41.3,53.4L41.3,53.4z"/>
</g>
<path class="st1" d="M1,60.8c0,0,2.2,4.8,5.6,4.8c4,0,1.1,0,50,0c0,0,6.7,0,6.7-4.8"/>
<path class="st2" d="M16.6,69.4v2.2c0,1.8-1.5,3.3-3.3,3.3H9.9c-1.8,0-3.3-1.5-3.3-3.3v-2.2"/>
<path class="st2" d="M56.6,69.4v2.2c0,1.8-1.5,3.3-3.3,3.3h-3.3c-1.8,0-3.3-1.5-3.3-3.3v-2.2"/>
<path class="st2" d="M8.8,42.8c0,0,1.3,6.8,3.3,7.8"/>
<path class="st2" d="M57.7,42.8c0,0-1.3,6.8-3.3,7.8"/>
<g>
	<polyline class="st2" points="10,6 13.2,12 16,6.8 18.8,12 22,6 	"/>
	<polyline class="st2" points="26,6 29.2,12 32,6.8 34.8,12 38,6 	"/>
	<polyline class="st2" points="42,6 45.2,12 48,6.8 50.8,12 54,6 	"/>
</g>
<path class="st2" d="M56,17H8c-1.7,0-3-1.4-3-3V4c0-1.7,1.3-3,3-3h48c1.7,0,3,1.3,3,3v10C59,15.6,57.7,17,56,17z"/>
</svg>
