<?xml version="1.0" encoding="utf-8"?>
<!-- Generator: Adobe Illustrator 21.0.2, SVG Export Plug-In . SVG Version: 6.00 Build 0)  -->
<svg version="1.1" id="Layer_1" xmlns="http://www.w3.org/2000/svg" xmlns:xlink="http://www.w3.org/1999/xlink" x="0px" y="0px"
	 width="83px" height="83.3px" viewBox="0 0 83 83.3" style="enable-background:new 0 0 83 83.3;" xml:space="preserve">
<style type="text/css">
	.st0{fill:none;stroke:#000000;stroke-width:2;stroke-linecap:round;stroke-miterlimit:10;}
	.st1{fill:none;stroke:#000000;stroke-width:2;stroke-linecap:round;stroke-linejoin:round;stroke-miterlimit:10;}
</style>
<g>
	<path class="st0" d="M43.3,39.4H16.2c-2.8,0-5.1-1.1-5.1-4.1H9.9C5,35.3,1,39.6,1,44.9v11.2c0,5.3,4,9.6,8.9,9.6h39"/>
	<path class="st0" d="M11.1,34L11.1,34c0-7.7,5-12.7,12.7-12.7h23.3"/>
	<g>
		<path d="M8.3,29.7c1,0,1.7,0.8,1.7,1.7v1.8c0,0.6-0.5,1.1-1,1.1H4c-0.6,0-1-0.5-1-1.1v-2.5c0-0.6,0.5-1.1,1-1.1H8.3 M8.3,27.7H4
			c-1.7,0-3,1.4-3,3.1v2.5c0,1.7,1.4,3.1,3,3.1H9c1.7,0,3-1.4,3-3.1v-1.8C12,29.4,10.4,27.7,8.3,27.7L8.3,27.7z"/>
	</g>
	<g>
		<path d="M17,49.4c0.5,0,1,0.5,1,1v2.2c0,0.5-0.5,1-1,1H7.8c-0.5,0-1-0.5-1-1v-2.2c0-0.6,0.4-1,1-1H17 M17,47.4H7.8
			c-1.7,0-3,1.3-3,3v2.2c0,1.6,1.4,3,3,3H17c1.6,0,3-1.4,3-3v-2.2C20,48.8,18.7,47.4,17,47.4L17,47.4z"/>
	</g>
	<path class="st1" d="M49.3,57.3H26c-1.9,0-3.4-1.5-3.4-3.4v-3c0-0.6,0.5-1.1,1.1-1.1h21"/>
	<path class="st0" d="M1,55.9c0,0,2.5,5.5,6.3,5.5c4.6,0-14.3,0,41.6,0"/>
	<path class="st1" d="M18.7,65.7v2.5c0,2.1-1.7,3.8-3.8,3.8h-3.8c-2.1,0-3.8-1.7-3.8-3.8v-2.5"/>
	<path class="st1" d="M9.9,35.3c0,0,1.5,7.7,3.8,8.9"/>
	<path class="st1" d="M50.4,46.5"/>
	<g>
		<g>
			<path d="M64.6,2c0.2,0,0.4,0,0.6,0.1c2.8,0.5,6,2.2,6,4c0,2.5-0.8,3.8-0.8,3.8l0,0c-0.5,0.8-0.4,1.8,0.2,2.4
				c-0.1,0.3-0.5,0.7-0.7,0.8c-0.6,0.4-0.9,1.1-0.9,1.8c0.1,0.8-0.1,3.2-1.3,4.5c-0.6,0.7-1.5,1-2.7,1c-4.8,0-6.2-7-6.2-7.1
				c-0.1-0.4-0.3-0.8-0.6-1.1c0.1-0.1,0.2-0.1,0.4-0.2c0.8-0.6,1-1.7,0.6-2.6c0,0-1.9-3.5,0.1-5.1c1-0.8,1.6-1,1.8-1.1
				c0.4,0.3,0.8,0.5,1.3,0.5c0.2,0,0.4,0,0.6-0.1c0.7-0.2,1.3-0.9,1.4-1.6C64.4,2,64.5,2,64.6,2 M64.6,0c-2.3,0-2.3,1.7-2.3,1.7
				S62,1.2,61.2,1.2c-0.7,0-1.7,0.3-3.2,1.6c-3.3,2.7-0.5,7.6-0.5,7.6s-0.6-0.6-1.2-0.6c-0.4,0-0.8,0.3-1,1.1
				c-0.5,2.2,1.6,2.7,1.6,2.7s1.6,8.7,8.2,8.7c6.5,0,6-7.6,6-7.6s1.6-1.1,1.6-2.7c0-1-0.2-1.2-0.4-1.2c-0.1,0-0.2,0.1-0.2,0.1
				s1.1-1.6,1.1-4.9c0-3.3-4.4-5.4-7.6-6C65.2,0,64.9,0,64.6,0L64.6,0z"/>
		</g>
		<path class="st1" d="M57.4,8.3c0,0,2.2-2.2,3.3-1.6s1.6,1.6,1.6,1.6s8.2,1.6,9.8,0"/>
		<g>
			<path d="M62.6,11.5c-0.8,0-1.4,0.6-1.4,1.4s0.6,1.4,1.4,1.4s1.4-0.6,1.4-1.4S63.4,11.5,62.6,11.5L62.6,11.5z"/>
		</g>
		<g>
			<path d="M67,11.5c-0.8,0-1.4,0.6-1.4,1.4s0.6,1.4,1.4,1.4s1.4-0.6,1.4-1.4S67.7,11.5,67,11.5L67,11.5z"/>
		</g>
		<path class="st1" d="M60.7,20.2c0,0-7.1,1.1-9.8,3.8s-3.3,3.8-3.8,6.5s1.1,15.8,1.1,15.8s1.1,4.4,5.4,4.4"/>
		<line class="st1" x1="53.6" y1="43.7" x2="47.9" y2="43.7"/>
		<path class="st1" d="M54.2,32.2v28.3l1.1,15.8c0,0,0.5,6,3.3,6s6,0,6,0V54.5"/>
		<path class="st1" d="M55.8,77c0,0,2.7-0.8,4.9-0.8s3.9,0.7,3.9,0.7"/>
		<path class="st1" d="M69.4,20.2c0,0,5.9,1.1,8.7,3.8c2.7,2.7,3.3,3.8,3.8,6.5c0.5,2.7-1.1,15.8-1.1,15.8s-1.1,4.4-5.4,4.4"/>
		<line class="st1" x1="75.4" y1="43.7" x2="81.1" y2="43.7"/>
		<path class="st1" d="M74.8,32.2v28.3l-1.1,15.8c0,0-0.5,6-3.3,6c-2.7,0-6,0-6,0V54.5"/>
		<path class="st1" d="M73.2,77c0,0-2.7-0.8-4.9-0.8s-3.9,0.7-3.9,0.7"/>
		<line class="st1" x1="54.2" y1="48.7" x2="74.6" y2="48.7"/>
		<polyline class="st1" points="61.2,20.8 63.4,26.2 60.7,37.1 65,42.6 69.4,37.1 66.1,26.2 68.9,20.8 		"/>
		<line class="st1" x1="66.1" y1="26.2" x2="63.4" y2="26.2"/>
	</g>
</g>
</svg>
