<?xml version="1.0" encoding="utf-8"?>
<!-- Generator: Adobe Illustrator 21.0.2, SVG Export Plug-In . SVG Version: 6.00 Build 0)  -->
<svg version="1.1" id="Layer_1" xmlns="http://www.w3.org/2000/svg" xmlns:xlink="http://www.w3.org/1999/xlink" x="0px" y="0px"
	 width="65.5px" height="82.5px" viewBox="0 0 65.5 82.5" style="enable-background:new 0 0 65.5 82.5;" xml:space="preserve">
<style type="text/css">
	.st0{fill:none;stroke:#000000;stroke-width:2;stroke-miterlimit:10;}
	.st1{fill:none;stroke:#000000;stroke-width:2;stroke-linecap:round;stroke-miterlimit:10;}
	.st2{fill:none;stroke:#000000;stroke-width:2;stroke-linecap:round;stroke-linejoin:round;stroke-miterlimit:10;}
	.st3{fill:none;}
</style>
<g>
	<path class="st0" d="M56.5,49.4c0,2.6-2,3.5-4.4,3.5H14.3c-2.4,0-4.4-1-4.4-3.6H8.8c-4.3,0-7.8,3.8-7.8,8.4v9.8
		c0,4.6,3.5,8.4,7.8,8.4h46.7c4.3,0,7.8-3.8,7.8-8.4v-9.8C63.2,53.5,60.3,50,56.5,49.4z"/>
	<path class="st1" d="M9.9,48.2L9.9,48.2c0-6.7,4.4-11.1,11.1-11.1h24.4c6.7,0,11.1,4.4,11.1,11.1v0"/>
	<g>
		<path d="M7,44.6c1,0,1.7,0.8,1.7,1.7v0.8c0,0.6-0.5,1-1,1H4c-0.6,0-1-0.5-1-1v-1.4c0-0.6,0.5-1,1-1H7 M7,42.6H4c-1.7,0-3,1.4-3,3
			v1.4c0,1.7,1.4,3,3,3h3.6c1.7,0,3-1.4,3-3v-0.8C10.7,44.3,9,42.6,7,42.6L7,42.6z"/>
	</g>
	<g>
		<path d="M62.1,44.6c0.8,0,1.4,0.6,1.4,1.4v0.8c0,0.8-0.6,1.4-1.4,1.4h-2.9c-0.8,0-1.4-0.6-1.4-1.4V46c0-0.8,0.6-1.4,1.4-1.4H62.1
			 M62.1,42.6h-2.9c-1.9,0-3.4,1.5-3.4,3.4v0.8c0,1.9,1.5,3.4,3.4,3.4h2.9c1.9,0,3.4-1.5,3.4-3.4V46C65.5,44.1,64,42.6,62.1,42.6
			L62.1,42.6z"/>
	</g>
	<g>
		<path d="M14.7,61.9c0.5,0,1,0.5,1,1v1.2c0,0.5-0.5,1-1,1H7.3c-0.5,0-1-0.5-1-1v-1.2c0-0.6,0.4-1,1-1H14.7 M14.7,59.9H7.3
			c-1.7,0-3,1.3-3,3v1.2c0,1.7,1.4,3,3,3h7.3c1.6,0,3-1.3,3-3v-1.2C17.7,61.3,16.3,59.9,14.7,59.9L14.7,59.9z"/>
	</g>
	<g>
		<path d="M56.9,61.9c0.5,0,1,0.5,1,1v1.2c0,0.5-0.5,1-1,1h-7.3c-0.5,0-1-0.5-1-1v-1.2c0-0.5,0.5-1,1-1H56.9 M56.9,59.9h-7.3
			c-1.6,0-3,1.4-3,3v1.2c0,1.7,1.4,3,3,3h7.3c1.6,0,3-1.3,3-3v-1.2C59.9,61.3,58.5,59.9,56.9,59.9L56.9,59.9z"/>
	</g>
	<g>
		<path d="M41.3,61.9c0.5,0,1,0.5,1,1v2.6c0,0.5-0.5,1-1,1H22.9c-0.5,0-1-0.5-1-1v-3.6H41.3 M41.3,59.9H20.9c-0.6,0-1,0.4-1,1v4.6
			c0,1.7,1.3,3,3,3h18.4c1.7,0,3-1.3,3-3v-2.6C44.3,61.3,43,59.9,41.3,59.9L41.3,59.9z"/>
	</g>
	<path class="st1" d="M1,67.3c0,0,2.2,4.8,5.6,4.8c4,0,1.1,0,50,0c0,0,6.7,0,6.7-4.8"/>
	<path class="st2" d="M16.6,75.9v2.2c0,1.8-1.5,3.3-3.3,3.3H9.9c-1.8,0-3.3-1.5-3.3-3.3v-2.2"/>
	<path class="st2" d="M56.6,75.9v2.2c0,1.8-1.5,3.3-3.3,3.3h-3.3c-1.8,0-3.3-1.5-3.3-3.3v-2.2"/>
	<path class="st2" d="M8.8,49.3c0,0,1.3,6.8,3.3,7.8"/>
	<path class="st2" d="M57.7,49.3c0,0-1.3,6.8-3.3,7.8"/>
	<g>
		<path class="st3" d="M9.1,14"/>
		<path class="st2" d="M18,27H8c-2.8,0-5-2.3-5-5V6c0-2.8,2.3-5,5-5h10c2.8,0,5,2.3,5,5v16C23,24.8,20.8,27,18,27z"/>
		<path class="st2" d="M9.5,21.5L9.5,21.5C8.1,21.5,7,20.4,7,19V9c0-1.4,1.1-2.5,2.5-2.5h0C10.9,6.5,12,7.6,12,9v10
			C12,20.4,10.9,21.5,9.5,21.5z"/>
		<polyline class="st2" points="28.3,8.8 57,8.8 57,16.5 51,20.5 28,20.5 		"/>
		<path class="st2" d="M23,5.5h2c1.1,0,2,1.3,2,3v12c0,1.6-0.9,3-2,3h-2"/>
		<line class="st2" x1="31" y1="14.5" x2="51" y2="14.5"/>
		<line class="st2" x1="31" y1="20.5" x2="31" y2="22.5"/>
		<line class="st2" x1="36" y1="20.5" x2="36" y2="22.5"/>
		<line class="st2" x1="41" y1="20.5" x2="41" y2="22.5"/>
		<line class="st2" x1="46" y1="20.5" x2="46" y2="22.5"/>
	</g>
</g>
</svg>
