<?xml version="1.0" encoding="utf-8"?>
<!-- Generator: Adobe Illustrator 21.0.2, SVG Export Plug-In . SVG Version: 6.00 Build 0)  -->
<svg version="1.1" id="Layer_1" xmlns="http://www.w3.org/2000/svg" xmlns:xlink="http://www.w3.org/1999/xlink" x="0px" y="0px"
	 width="89.9px" height="82px" viewBox="0 0 89.9 82" style="enable-background:new 0 0 89.9 82;" xml:space="preserve">
<style type="text/css">
	.st0{fill:none;stroke:#000000;stroke-width:2;stroke-miterlimit:10;}
	.st1{fill:none;stroke:#000000;stroke-width:2;stroke-linecap:round;stroke-miterlimit:10;}
	.st2{fill:none;stroke:#000000;stroke-width:2;stroke-linecap:round;stroke-linejoin:round;stroke-miterlimit:10;}
	.st3{fill:none;}
</style>
<path class="st0" d="M56.5,48.9c0,2.6-2,3.5-4.4,3.5H14.3c-2.4,0-4.4-1-4.4-3.6H8.8c-4.3,0-7.8,3.8-7.8,8.4V67
	c0,4.6,3.5,8.4,7.8,8.4h46.7c4.3,0,7.8-3.8,7.8-8.4v-9.8C63.2,53,60.3,49.5,56.5,48.9z"/>
<path class="st1" d="M9.9,47.7L9.9,47.7c0-6.7,4.4-11.1,11.1-11.1h24.4c6.7,0,11.1,4.4,11.1,11.1v0"/>
<g>
	<path d="M7,44.1c1,0,1.7,0.8,1.7,1.7v0.8c0,0.6-0.5,1-1,1H4c-0.6,0-1-0.5-1-1v-1.4c0-0.6,0.5-1,1-1H7 M7,42.1H4c-1.7,0-3,1.4-3,3
		v1.4c0,1.7,1.4,3,3,3h3.6c1.7,0,3-1.4,3-3v-0.8C10.7,43.8,9,42.1,7,42.1L7,42.1z"/>
</g>
<g>
	<path d="M62.1,44.1c0.8,0,1.4,0.6,1.4,1.4v0.8c0,0.8-0.6,1.4-1.4,1.4h-2.9c-0.8,0-1.4-0.6-1.4-1.4v-0.8c0-0.8,0.6-1.4,1.4-1.4H62.1
		 M62.1,42.1h-2.9c-1.9,0-3.4,1.5-3.4,3.4v0.8c0,1.9,1.5,3.4,3.4,3.4h2.9c1.9,0,3.4-1.5,3.4-3.4v-0.8C65.5,43.6,64,42.1,62.1,42.1
		L62.1,42.1z"/>
</g>
<g>
	<path d="M14.7,61.4c0.5,0,1,0.5,1,1v1.2c0,0.5-0.5,1-1,1H7.3c-0.5,0-1-0.5-1-1v-1.2c0-0.6,0.4-1,1-1H14.7 M14.7,59.4H7.3
		c-1.7,0-3,1.3-3,3v1.2c0,1.7,1.4,3,3,3h7.3c1.6,0,3-1.3,3-3v-1.2C17.7,60.8,16.3,59.4,14.7,59.4L14.7,59.4z"/>
</g>
<g>
	<path d="M56.9,61.4c0.5,0,1,0.5,1,1v1.2c0,0.5-0.5,1-1,1h-7.3c-0.5,0-1-0.5-1-1v-1.2c0-0.5,0.5-1,1-1H56.9 M56.9,59.4h-7.3
		c-1.7,0-3,1.4-3,3v1.2c0,1.7,1.3,3,3,3h7.3c1.7,0,3-1.3,3-3v-1.2C59.9,60.8,58.5,59.4,56.9,59.4L56.9,59.4z"/>
</g>
<g>
	<path d="M41.3,61.4c0.5,0,1,0.5,1,1V65c0,0.5-0.5,1-1,1H22.9c-0.5,0-1-0.5-1-1v-3.6H41.3 M41.3,59.4H20.9c-0.6,0-1,0.4-1,1V65
		c0,1.7,1.3,3,3,3h18.4c1.6,0,3-1.3,3-3v-2.6C44.3,60.8,43,59.4,41.3,59.4L41.3,59.4z"/>
</g>
<path class="st1" d="M1,66.8c0,0,2.2,4.8,5.6,4.8c4,0,1.1,0,50,0c0,0,6.7,0,6.7-4.8"/>
<path class="st2" d="M16.6,75.4v2.2c0,1.8-1.5,3.3-3.3,3.3H9.9c-1.8,0-3.3-1.5-3.3-3.3v-2.2"/>
<path class="st2" d="M56.6,75.4v2.2c0,1.8-1.5,3.3-3.3,3.3h-3.3c-1.8,0-3.3-1.5-3.3-3.3v-2.2"/>
<path class="st3" d="M35.4,29.9"/>
<polyline class="st2" points="37.7,27.5 37.7,1 88.9,1 88.9,59.9 73.5,59.9 "/>
<polyline class="st2" points="45.4,25.4 48.8,17.7 52.1,25.4 "/>
<line class="st2" x1="46.6" y1="23.2" x2="51" y2="23.2"/>
<g>
	<path class="st2" d="M77.7,6.6v7.8c0,0,4.4,1.1,4.4-2.2s-3.3-2.2-3.3-2.2"/>
	<line class="st2" x1="82.1" y1="6.3" x2="77.7" y2="6.3"/>
</g>
<polyline class="st2" points="55.4,23.2 61,17.7 67.7,18.8 74.3,12.1 69.9,13.2 "/>
<line class="st2" x1="73.2" y1="16.6" x2="74.3" y2="12.1"/>
<line class="st2" x1="57.7" y1="31" x2="81" y2="31"/>
<line class="st2" x1="61" y1="36.6" x2="81" y2="36.6"/>
<line class="st2" x1="73.2" y1="42.1" x2="81" y2="42.1"/>
<path class="st2" d="M8.8,48.8c0,0,1.3,6.8,3.3,7.8"/>
<path class="st2" d="M57.7,48.8c0,0-1.3,6.8-3.3,7.8"/>
</svg>
