<?xml version="1.0" encoding="utf-8"?>
<!-- Generator: Adobe Illustrator 21.0.2, SVG Export Plug-In . SVG Version: 6.00 Build 0)  -->
<svg version="1.1" id="Layer_1" xmlns="http://www.w3.org/2000/svg" xmlns:xlink="http://www.w3.org/1999/xlink" x="0px" y="0px"
	 width="89.5px" height="70.4px" viewBox="0 0 89.5 70.4" style="enable-background:new 0 0 89.5 70.4;" xml:space="preserve">
<style type="text/css">
	.st0{fill:none;stroke:#000000;stroke-width:2;stroke-miterlimit:10;}
	.st1{fill:none;stroke:#000000;stroke-width:2;stroke-linecap:round;stroke-miterlimit:10;}
	.st2{fill:none;stroke:#000000;stroke-width:2;stroke-linecap:round;stroke-linejoin:round;stroke-miterlimit:10;}
</style>
<g>
	<path class="st0" d="M80.5,37.3c0,2.6-2,3.5-4.4,3.5H38.3c-2.4,0-4.4-1-4.4-3.6h-1.1c-4.3,0-7.8,3.8-7.8,8.4v9.8
		c0,4.6,3.5,8.4,7.8,8.4h46.7c4.3,0,7.8-3.8,7.8-8.4v-9.8C87.2,41.4,84.3,37.9,80.5,37.3z"/>
	<path class="st1" d="M33.9,36.1L33.9,36.1C33.9,29.4,38.3,25,45,25h24.4c6.7,0,11.1,4.4,11.1,11.1v0"/>
	<g>
		<path d="M31,32.6c1,0,1.7,0.8,1.7,1.7V35c0,0.6-0.5,1-1,1H28c-0.6,0-1-0.5-1-1v-1.4c0-0.6,0.5-1,1-1H31 M31,30.6H28
			c-1.7,0-3,1.4-3,3V35c0,1.7,1.4,3,3,3h3.6c1.7,0,3-1.4,3-3v-0.8C34.7,32.2,33,30.6,31,30.6L31,30.6z"/>
	</g>
	<g>
		<path d="M86.1,32.6c0.8,0,1.4,0.6,1.4,1.4v0.8c0,0.8-0.6,1.4-1.4,1.4h-2.9c-0.8,0-1.4-0.6-1.4-1.4v-0.8c0-0.8,0.6-1.4,1.4-1.4
			H86.1 M86.1,30.6h-2.9c-1.9,0-3.4,1.5-3.4,3.4v0.8c0,1.9,1.5,3.4,3.4,3.4h2.9c1.9,0,3.4-1.5,3.4-3.4v-0.8
			C89.5,32.1,88,30.6,86.1,30.6L86.1,30.6z"/>
	</g>
	<g>
		<path d="M38.7,49.9c0.5,0,1,0.5,1,1v1.2c0,0.5-0.5,1-1,1h-7.3c-0.5,0-1-0.5-1-1v-1.2c0-0.6,0.4-1,1-1H38.7 M38.7,47.9h-7.3
			c-1.7,0-3,1.3-3,3v1.2c0,1.6,1.3,3,3,3h7.3c1.7,0,3-1.4,3-3v-1.2C41.7,49.2,40.3,47.9,38.7,47.9L38.7,47.9z"/>
	</g>
	<g>
		<path d="M80.9,49.9c0.5,0,1,0.5,1,1v1.2c0,0.5-0.5,1-1,1h-7.3c-0.5,0-1-0.5-1-1v-1.2c0-0.5,0.5-1,1-1H80.9 M80.9,47.9h-7.3
			c-1.6,0-3,1.3-3,3v1.2c0,1.6,1.4,3,3,3h7.3c1.6,0,3-1.4,3-3v-1.2C83.9,49.2,82.5,47.9,80.9,47.9L80.9,47.9z"/>
	</g>
	<g>
		<path d="M65.3,49.9c0.5,0,1,0.5,1,1v2.6c0,0.5-0.5,1-1,1H46.9c-0.5,0-1-0.5-1-1v-3.6H65.3 M65.3,47.9H44.9c-0.6,0-1,0.4-1,1v4.6
			c0,1.6,1.4,3,3,3h18.4c1.7,0,3-1.4,3-3v-2.6C68.3,49.2,67,47.9,65.3,47.9L65.3,47.9z"/>
	</g>
	<path class="st1" d="M25,55.3c0,0,2.2,4.8,5.6,4.8c4,0,1.1,0,50,0c0,0,6.7,0,6.7-4.8"/>
	<path class="st2" d="M40.6,63.9v2.2c0,1.8-1.5,3.3-3.3,3.3h-3.3c-1.8,0-3.3-1.5-3.3-3.3v-2.2"/>
	<path class="st2" d="M80.6,63.9v2.2c0,1.8-1.5,3.3-3.3,3.3h-3.3c-1.8,0-3.3-1.5-3.3-3.3v-2.2"/>
	<path class="st2" d="M81.7,19.4"/>
	<path class="st2" d="M85,25"/>
	<path class="st2" d="M32.8,37.2c0,0,1.3,6.8,3.3,7.8"/>
	<path class="st2" d="M81.7,37.2c0,0-1.3,6.8-3.3,7.8"/>
</g>
<g>
	<path class="st0" d="M63.2,21.6c0-4.2-2.9-7.7-6.7-8.3c0,2.6-2,3.5-4.4,3.5H14.3c-2.4,0-4.4-1-4.4-3.6H8.8C4.5,13.2,1,17,1,21.6
		v9.8c0,4.6,3.5,8.4,7.8,8.4h14.7"/>
	<path class="st1" d="M9.9,12.1L9.9,12.1C9.9,5.4,14.3,1,21,1h24.4c6.7,0,11.1,4.4,11.1,11.1v0"/>
	<g>
		<path d="M7,8.6c1,0,1.7,0.8,1.7,1.7V11c0,0.6-0.5,1-1,1H4c-0.6,0-1-0.5-1-1V9.6c0-0.6,0.5-1,1-1H7 M7,6.6H4c-1.7,0-3,1.4-3,3V11
			c0,1.7,1.4,3,3,3h3.6c1.7,0,3-1.4,3-3v-0.8C10.7,8.2,9,6.6,7,6.6L7,6.6z"/>
	</g>
	<g>
		<path d="M62.1,8.6c0.8,0,1.4,0.6,1.4,1.4v0.8c0,0.8-0.6,1.4-1.4,1.4h-2.9c-0.8,0-1.4-0.6-1.4-1.4V9.9c0-0.8,0.6-1.4,1.4-1.4H62.1
			 M62.1,6.6h-2.9c-1.9,0-3.4,1.5-3.4,3.4v0.8c0,1.9,1.5,3.4,3.4,3.4h2.9c1.9,0,3.4-1.5,3.4-3.4V9.9C65.5,8.1,64,6.6,62.1,6.6
			L62.1,6.6z"/>
	</g>
	<g>
		<path d="M14.7,25.9c0.5,0,1,0.5,1,1v1.2c0,0.5-0.5,1-1,1H7.3c-0.5,0-1-0.5-1-1v-1.2c0-0.6,0.4-1,1-1H14.7 M14.7,23.9H7.3
			c-1.7,0-3,1.3-3,3v1.2c0,1.6,1.3,3,3,3h7.3c1.7,0,3-1.4,3-3v-1.2C17.7,25.2,16.3,23.9,14.7,23.9L14.7,23.9z"/>
	</g>
	<path class="st2" d="M21.3,32.5h1.6c-1.6,0-3-1.3-3-3v-2.6c0-0.6,0.4-1,1-1H36"/>
	<path class="st2" d="M16.6,39.9v2.2c0,1.8-1.5,3.3-3.3,3.3H9.9c-1.8,0-3.3-1.5-3.3-3.3v-2.2"/>
	<path class="st2" d="M8.8,13.2c0,0,1.3,6.8,3.3,7.8"/>
	<path class="st2" d="M57.7,13.2c0,0-1.3,8.8-3.3,9.8"/>
</g>
</svg>
