<?xml version="1.0" encoding="utf-8"?>
<!-- Generator: Adobe Illustrator 21.0.2, SVG Export Plug-In . SVG Version: 6.00 Build 0)  -->
<svg version="1.1" id="Layer_1" xmlns="http://www.w3.org/2000/svg" xmlns:xlink="http://www.w3.org/1999/xlink" x="0px" y="0px"
	 width="105.2px" height="82.4px" viewBox="0 0 105.2 82.4" style="enable-background:new 0 0 105.2 82.4;" xml:space="preserve">
<style type="text/css">
	.st0{fill:none;stroke:#000000;stroke-width:2;stroke-miterlimit:10;}
	.st1{fill:none;stroke:#000000;stroke-width:2;stroke-linecap:round;stroke-miterlimit:10;}
	.st2{fill:none;stroke:#000000;stroke-width:2;stroke-linecap:round;stroke-linejoin:round;stroke-miterlimit:10;}
</style>
<g>
	<g>
		<path class="st0" d="M72.4,12.3c0,2.4-1.9,3.2-4.1,3.2H33.6c-2.2,0-4.1-0.9-4.1-3.3h-1c-3.9,0-7.1,3.5-7.1,7.7v9
			c0,4.3,3.2,7.7,7.1,7.7h42.9c3.9,0,7.1-3.5,7.1-7.7v-9C78.6,16.1,75.9,12.9,72.4,12.3z"/>
		<path class="st1" d="M29.5,11.2L29.5,11.2C29.5,5,33.6,1,39.7,1h22.5c6.2,0,10.2,4,10.2,10.2v0"/>
		<g>
			<path d="M26.5,8.1c1,0,1.7,0.8,1.7,1.7V10c0,0.6-0.5,1.1-1,1.1h-2.8c-0.6,0-1-0.5-1-1.1V9.2c0-0.6,0.5-1.1,1-1.1H26.5 M26.5,6.1
				h-2.1c-1.7,0-3,1.4-3,3.1V10c0,1.7,1.4,3.1,3,3.1h2.8c1.7,0,3-1.4,3-3.1V9.8C30.3,7.8,28.6,6.1,26.5,6.1L26.5,6.1z"/>
		</g>
		<g>
			<path d="M77.2,8.1c0.8,0,1.4,0.6,1.4,1.4v0.1c0,0.8-0.6,1.4-1.4,1.4h-2.1c-0.8,0-1.4-0.6-1.4-1.4V9.5c0-0.8,0.6-1.4,1.4-1.4H77.2
				 M77.2,6.1h-2.1c-1.9,0-3.4,1.5-3.4,3.4v0.1c0,1.9,1.5,3.4,3.4,3.4h2.1c1.9,0,3.4-1.5,3.4-3.4V9.5C80.6,7.6,79.1,6.1,77.2,6.1
				L77.2,6.1z"/>
		</g>
		<g>
			<path d="M33.7,24c0.5,0,1,0.5,1,1v0.6c0,0.5-0.5,1-1,1h-6.3c-0.5,0-1-0.5-1-1V25c0-0.6,0.4-1,1-1H33.7 M33.7,22h-6.3
				c-1.7,0-3,1.3-3,3v0.6c0,1.7,1.3,3,3,3h6.3c1.7,0,3-1.3,3-3V25C36.7,23.4,35.3,22,33.7,22L33.7,22z"/>
		</g>
		<g>
			<path d="M72.5,24c0.5,0,1,0.5,1,1v0.6c0,0.5-0.5,1-1,1h-6.3c-0.5,0-1-0.5-1-1V25c0-0.5,0.5-1,1-1H72.5 M72.5,22h-6.3
				c-1.6,0-3,1.4-3,3v0.6c0,1.7,1.4,3,3,3h6.3c1.6,0,3-1.3,3-3V25C75.5,23.4,74.1,22,72.5,22L72.5,22z"/>
		</g>
		<g>
			<path d="M58.2,24c0.5,0,1,0.5,1,1v1.9c0,0.5-0.5,1-1,1H41.7c-0.5,0-1-0.5-1-1V24H58.2 M58.2,22H39.7c-0.6,0-1,0.4-1,1v3.9
				c0,1.7,1.3,3,3,3h16.5c1.6,0,3-1.3,3-3V25C61.2,23.4,59.8,22,58.2,22L58.2,22z"/>
		</g>
		<path class="st1" d="M21.4,28.8c0,0,2,4.4,5.1,4.4c3.7,0,1,0,46,0c0,0,6.1,0,6.1-4.4"/>
		<path class="st2" d="M35.7,36.7v2c0,1.7-1.4,4-3.1,4h-3.1c-1.7,0-3.1-2.3-3.1-4v-2"/>
		<path class="st2" d="M72.4,36.7v2c0,1.7-1.4,4-3.1,4h-3.1c-1.7,0-3.1-2.3-3.1-4v-2"/>
		<path class="st2" d="M28.5,12.2c0,0,1.2,6.2,3.1,7.1"/>
		<path class="st2" d="M73.4,12.2c0,0-1.2,6.2-3.1,7.1"/>
	</g>
	<path class="st2" d="M29.6,45.5c0,0-1.8,3.4-1.8,6c0,2.6,2.8,7.8,4.6,7.8c1.8,0,3.7-5,3.7-7.8c0-2.6-1.8-6-1.8-6"/>
	<path class="st2" d="M65.5,45.5c0,0-1.8,3.4-1.8,6c0,2.6,2.8,7.8,4.6,7.8c1.8,0,3.7-5,3.7-7.8c0-2.6-1.8-6-1.8-6"/>
	<g>
		<path class="st2" d="M96.7,66.7c4.6,0,6.4,0.9,7.4,5.5c0.9,4.6-6.4,6.4-6.4,6.4l-2.8,2.8H7.6l-1.8-4.6c0,0-3.7-0.9-4.6-3.7
			c-0.9-2.8,2.8-6.4,2.8-6.4"/>
		<path class="st2" d="M7.6,70.3c0,0-7.4-7.4-0.9-11c6.2-3.6,9.2-1.8,11,5.5"/>
		<path class="st2" d="M13.1,69.4c0,0-1.8,4.6,5.5,5.5"/>
		<path class="st2" d="M13.1,77.7c0,0-2.3-3,1.1-4.3"/>
		<path class="st2" d="M8.8,58.3c0,0-1.3-6.3,4.3-6.3s5.5,5.5,5.5,5.5"/>
		<path class="st2" d="M16.2,60.2c0,0,4.3-5.5,9.8,0.9c3.8,4.5-4.6,9.2-4.6,9.2"/>
		<path class="st2" d="M26,66.7c0,0,1.8,1.8,1.8,2.8"/>
		<path class="st2" d="M26.9,71.3c0,0,3.7-6.7,11-5.5c5.5,0.9,6.4,2.8,6.4,2.8"/>
		<path class="st2" d="M41.6,75.9c0,0,0.9-2.8,3.7-2.8c2.8,0,4.6,1.8,4.6,1.8"/>
		<path class="st2" d="M51.7,69.4c0,0-4.6,0.9-5.5,3.7"/>
		<path class="st2" d="M56.3,69.4c0,0,1.8-5.5,9.2-4.6c7.4,0.9,9.2,5.5,9.2,5.5"/>
		<path class="st2" d="M81.1,75.9c0,0,0-4.6-3.7-5.5c-1.8-0.4-4.6,0.9-4.6,0.9"/>
		<path class="st2" d="M94.9,71.3c0,0,1.8,3.7-3.7,4.6"/>
		<path class="st2" d="M77.4,70.3c0,0,0.9-1.8,1.8-1.8"/>
		<path class="st2" d="M81.1,70.3c0,0-6.4-5.5-1.8-11s11,0,11,0s2.8,2.8,1.8,5.5"/>
		<path class="st2" d="M82,64.8c0,0-1.8-2.8,1.8-3.7"/>
		<path class="st2" d="M91.2,59.3c0,0,2.8-2.8,7.4,0.9s0.7,6.7,0.7,6.7"/>
	</g>
</g>
</svg>
